<svg width="48.000000" height="48.000000" viewBox="0 0 48 48" fill="none" xmlns="http://www.w3.org/2000/svg" xmlns:xlink="http://www.w3.org/1999/xlink">
	<desc>
			Created with Pixso.
	</desc>
	<defs>
		<clipPath id="clip52_68">
			<rect id="Frame" rx="-0.500000" width="23.000000" height="23.000000" transform="translate(12.500000 12.500000)" fill="white" fill-opacity="0"/>
		</clipPath>
	</defs>
	<rect id="Discord" rx="23.500000" width="47.000000" height="47.000000" transform="translate(0.500000 0.500000)" fill="#000000" fill-opacity="0"/>
	<rect id="Frame" rx="-0.500000" width="23.000000" height="23.000000" transform="translate(12.500000 12.500000)" fill="#FFFFFF" fill-opacity="0"/>
	<g clip-path="url(#clip52_68)">
		<path id="Vector" d="M32.33 16.22C30.77 15.5 29.11 14.97 27.37 14.67C27.16 15.05 26.91 15.57 26.74 15.98C24.89 15.71 23.06 15.71 21.25 15.98C21.08 15.57 20.83 15.05 20.61 14.67C18.87 14.97 17.21 15.5 15.66 16.23C12.52 20.96 11.67 25.58 12.1 30.13C14.18 31.68 16.19 32.63 18.17 33.24C18.66 32.57 19.09 31.86 19.47 31.1C18.75 30.83 18.07 30.49 17.42 30.1C17.59 29.98 17.76 29.84 17.92 29.71C21.87 31.55 26.16 31.55 30.07 29.71C30.23 29.84 30.4 29.98 30.57 30.1C29.92 30.5 29.23 30.83 28.52 31.1C28.89 31.86 29.33 32.57 29.82 33.25C31.8 32.63 33.81 31.69 35.89 30.13C36.39 24.85 35.04 20.28 32.33 16.22ZM20.01 27.33C18.82 27.33 17.85 26.23 17.85 24.88C17.85 23.53 18.8 22.42 20.01 22.42C21.21 22.42 22.19 23.53 22.17 24.88C22.17 26.23 21.21 27.33 20.01 27.33ZM27.98 27.33C26.8 27.33 25.82 26.23 25.82 24.88C25.82 23.53 26.78 22.42 27.98 22.42C29.19 22.42 30.16 23.53 30.14 24.88C30.14 26.23 29.19 27.33 27.98 27.33Z" fill="#000000" fill-opacity="1.000000" fill-rule="nonzero"/>
	</g>
	<rect id="Discord" rx="23.500000" width="47.000000" height="47.000000" transform="translate(0.500000 0.500000)" stroke="#000000" stroke-opacity="0.500000" stroke-width="1.000000"/>
</svg>
