<svg width="48.000000" height="48.000000" viewBox="0 0 48 48" fill="none" xmlns="http://www.w3.org/2000/svg" xmlns:xlink="http://www.w3.org/1999/xlink">
	<desc>
			Created with Pixso.
	</desc>
	<defs>
		<clipPath id="clip52_73">
			<rect id="Livello_1" rx="-0.500000" width="23.000000" height="23.000000" transform="translate(12.500000 12.500000)" fill="white" fill-opacity="0"/>
		</clipPath>
		<linearGradient x1="24.000000" y1="36.000000" x2="24.000000" y2="12.000000" id="paint_linear_52_74_0" gradientUnits="userSpaceOnUse">
			<stop stop-color="#1D93D2"/>
			<stop offset="1.000000" stop-color="#38B0E3"/>
		</linearGradient>
	</defs>
	<rect id="Telegram" rx="23.500000" width="47.000000" height="47.000000" transform="translate(0.500000 0.500000)" fill="#000000" fill-opacity="0"/>
	<rect id="Livello_1" rx="-0.500000" width="23.000000" height="23.000000" transform="translate(12.500000 12.500000)" fill="#FFFFFF" fill-opacity="0"/>
	<g clip-path="url(#clip52_73)">
		<path id="Vector" d="M18.25 25L20.48 31.16C20.48 31.16 20.75 31.73 21.05 31.73C21.35 31.73 25.78 27.13 25.78 27.13L30.7 17.62L18.33 23.41L18.25 25Z" fill="#3C3C3C" fill-opacity="1.000000" fill-rule="nonzero"/>
		<path id="Vector" d="M21.2 26.58L20.77 31.12C20.77 31.12 20.59 32.51 21.98 31.12C23.37 29.73 24.7 28.65 24.7 28.65L21.2 26.58Z" fill="#5A5A5A" fill-opacity="1.000000" fill-rule="nonzero"/>
		<path id="Vector" d="M18.29 25.22L13.72 23.73C13.72 23.73 13.17 23.51 13.35 23.01C13.38 22.9 13.46 22.81 13.68 22.66C14.69 21.96 32.43 15.58 32.43 15.58C32.43 15.58 32.93 15.41 33.23 15.52C33.3 15.54 33.37 15.59 33.42 15.64C33.47 15.7 33.51 15.77 33.52 15.84C33.56 15.97 33.57 16.11 33.56 16.25C33.56 16.36 33.55 16.47 33.54 16.64C33.43 18.39 30.2 31.4 30.2 31.4C30.2 31.4 30 32.16 29.31 32.19C29.14 32.19 28.97 32.16 28.81 32.1C28.65 32.04 28.51 31.95 28.38 31.83C27.02 30.66 22.32 27.5 21.28 26.81C21.26 26.79 21.24 26.77 21.22 26.74C21.21 26.72 21.2 26.69 21.2 26.66C21.18 26.59 21.26 26.5 21.26 26.5C21.26 26.5 29.45 19.22 29.67 18.46C29.68 18.4 29.62 18.37 29.53 18.4C28.99 18.6 19.56 24.55 18.52 25.21C18.45 25.23 18.37 25.23 18.29 25.22Z" fill="#000000" fill-opacity="1.000000" fill-rule="nonzero"/>
	</g>
	<rect id="Telegram" rx="23.500000" width="47.000000" height="47.000000" transform="translate(0.500000 0.500000)" stroke="#000000" stroke-opacity="0.500000" stroke-width="1.000000"/>
</svg>
