<svg width="1436.000122" height="513.000000" viewBox="0 0 1436 513" fill="none" xmlns="http://www.w3.org/2000/svg" xmlns:xlink="http://www.w3.org/1999/xlink">
	<desc>
			Created with Pixso.
	</desc>
	<defs>
		<linearGradient x1="430.799988" y1="0.000977" x2="430.799988" y2="102.600807" id="paint_linear_52_29_0" gradientUnits="userSpaceOnUse">
			<stop stop-color="#111111"/>
			<stop offset="1.000000" stop-color="#111111" stop-opacity="0.000000"/>
		</linearGradient>
		<linearGradient x1="143.600021" y1="0.000000" x2="143.600021" y2="102.599831" id="paint_linear_52_30_0" gradientUnits="userSpaceOnUse">
			<stop stop-color="#111111"/>
			<stop offset="1.000000" stop-color="#111111" stop-opacity="0.000000"/>
		</linearGradient>
		<linearGradient x1="143.600021" y1="0.000000" x2="143.600021" y2="102.599831" id="paint_linear_52_31_0" gradientUnits="userSpaceOnUse">
			<stop stop-color="#111111"/>
			<stop offset="1.000000" stop-color="#111111" stop-opacity="0.000000"/>
		</linearGradient>
		<linearGradient x1="143.600021" y1="0.000000" x2="143.600021" y2="102.599831" id="paint_linear_52_32_0" gradientUnits="userSpaceOnUse">
			<stop stop-color="#111111"/>
			<stop offset="1.000000" stop-color="#111111" stop-opacity="0.000000"/>
		</linearGradient>
		<linearGradient x1="143.600021" y1="0.000000" x2="143.600021" y2="102.599831" id="paint_linear_52_33_0" gradientUnits="userSpaceOnUse">
			<stop stop-color="#111111"/>
			<stop offset="1.000000" stop-color="#111111" stop-opacity="0.000000"/>
		</linearGradient>
		<linearGradient x1="1005.200134" y1="0.000977" x2="1005.200134" y2="102.600807" id="paint_linear_52_34_0" gradientUnits="userSpaceOnUse">
			<stop stop-color="#111111"/>
			<stop offset="1.000000" stop-color="#111111" stop-opacity="0.000000"/>
		</linearGradient>
		<linearGradient x1="1005.200134" y1="205.201172" x2="1005.200134" y2="307.800995" id="paint_linear_52_35_0" gradientUnits="userSpaceOnUse">
			<stop stop-color="#111111"/>
			<stop offset="1.000000" stop-color="#111111" stop-opacity="0.000000"/>
		</linearGradient>
		<linearGradient x1="1005.200134" y1="410.400146" x2="1005.200134" y2="513.000000" id="paint_linear_52_36_0" gradientUnits="userSpaceOnUse">
			<stop stop-color="#111111"/>
			<stop offset="1.000000" stop-color="#111111" stop-opacity="0.000000"/>
		</linearGradient>
		<linearGradient x1="143.600021" y1="0.000000" x2="143.600021" y2="102.599831" id="paint_linear_52_37_0" gradientUnits="userSpaceOnUse">
			<stop stop-color="#111111"/>
			<stop offset="1.000000" stop-color="#111111" stop-opacity="0.000000"/>
		</linearGradient>
		<linearGradient x1="143.600021" y1="0.000000" x2="143.600021" y2="102.599831" id="paint_linear_52_38_0" gradientUnits="userSpaceOnUse">
			<stop stop-color="#111111"/>
			<stop offset="1.000000" stop-color="#111111" stop-opacity="0.000000"/>
		</linearGradient>
		<linearGradient x1="143.600021" y1="0.000000" x2="143.600021" y2="102.599831" id="paint_linear_52_39_0" gradientUnits="userSpaceOnUse">
			<stop stop-color="#111111"/>
			<stop offset="1.000000" stop-color="#111111" stop-opacity="0.000000"/>
		</linearGradient>
		<linearGradient x1="143.600021" y1="0.000000" x2="143.600021" y2="102.599831" id="paint_linear_52_40_0" gradientUnits="userSpaceOnUse">
			<stop stop-color="#111111"/>
			<stop offset="1.000000" stop-color="#111111" stop-opacity="0.000000"/>
		</linearGradient>
		<linearGradient x1="143.600021" y1="0.000000" x2="143.600021" y2="102.599831" id="paint_linear_52_41_0" gradientUnits="userSpaceOnUse">
			<stop stop-color="#111111"/>
			<stop offset="1.000000" stop-color="#111111" stop-opacity="0.000000"/>
		</linearGradient>
		<linearGradient x1="143.600021" y1="0.000000" x2="143.600021" y2="102.599831" id="paint_linear_52_42_0" gradientUnits="userSpaceOnUse">
			<stop stop-color="#111111"/>
			<stop offset="1.000000" stop-color="#111111" stop-opacity="0.000000"/>
		</linearGradient>
		<linearGradient x1="143.600021" y1="0.000000" x2="143.600021" y2="102.599831" id="paint_linear_52_43_0" gradientUnits="userSpaceOnUse">
			<stop stop-color="#111111"/>
			<stop offset="1.000000" stop-color="#111111" stop-opacity="0.000000"/>
		</linearGradient>
		<linearGradient x1="143.600021" y1="0.000000" x2="143.600021" y2="102.599831" id="paint_linear_52_44_0" gradientUnits="userSpaceOnUse">
			<stop stop-color="#111111"/>
			<stop offset="1.000000" stop-color="#111111" stop-opacity="0.000000"/>
		</linearGradient>
		<linearGradient x1="143.600021" y1="0.000000" x2="143.600021" y2="102.599831" id="paint_linear_52_45_0" gradientUnits="userSpaceOnUse">
			<stop stop-color="#111111"/>
			<stop offset="1.000000" stop-color="#111111" stop-opacity="0.000000"/>
		</linearGradient>
		<linearGradient x1="143.600021" y1="205.201172" x2="143.600021" y2="307.800995" id="paint_linear_52_46_0" gradientUnits="userSpaceOnUse">
			<stop stop-color="#111111"/>
			<stop offset="1.000000" stop-color="#111111" stop-opacity="0.000000"/>
		</linearGradient>
		<linearGradient x1="143.600998" y1="410.400146" x2="143.600998" y2="513.000000" id="paint_linear_52_47_0" gradientUnits="userSpaceOnUse">
			<stop stop-color="#111111"/>
			<stop offset="1.000000" stop-color="#111111" stop-opacity="0.000000"/>
		</linearGradient>
		<linearGradient x1="718.000916" y1="102.600830" x2="718.000916" y2="205.200653" id="paint_linear_52_48_0" gradientUnits="userSpaceOnUse">
			<stop stop-color="#111111"/>
			<stop offset="1.000000" stop-color="#111111" stop-opacity="0.000000"/>
		</linearGradient>
		<linearGradient x1="1292.399048" y1="102.599854" x2="1292.399048" y2="205.199677" id="paint_linear_52_49_0" gradientUnits="userSpaceOnUse">
			<stop stop-color="#111111"/>
			<stop offset="1.000000" stop-color="#111111" stop-opacity="0.000000"/>
		</linearGradient>
		<linearGradient x1="143.600021" y1="102.599854" x2="143.600021" y2="205.199677" id="paint_linear_52_50_0" gradientUnits="userSpaceOnUse">
			<stop stop-color="#111111"/>
			<stop offset="1.000000" stop-color="#111111" stop-opacity="0.000000"/>
		</linearGradient>
		<linearGradient x1="718.000916" y1="307.802246" x2="718.000916" y2="410.402069" id="paint_linear_52_51_0" gradientUnits="userSpaceOnUse">
			<stop stop-color="#111111"/>
			<stop offset="1.000000" stop-color="#111111" stop-opacity="0.000000"/>
		</linearGradient>
		<linearGradient x1="1292.399048" y1="307.801025" x2="1292.399048" y2="410.400848" id="paint_linear_52_52_0" gradientUnits="userSpaceOnUse">
			<stop stop-color="#111111"/>
			<stop offset="1.000000" stop-color="#111111" stop-opacity="0.000000"/>
		</linearGradient>
		<linearGradient x1="143.600021" y1="307.801025" x2="143.600021" y2="410.400848" id="paint_linear_52_53_0" gradientUnits="userSpaceOnUse">
			<stop stop-color="#111111"/>
			<stop offset="1.000000" stop-color="#111111" stop-opacity="0.000000"/>
		</linearGradient>
	</defs>
	<rect id="Icon" x="287.199951" y="0.000977" width="287.200043" height="102.599831" fill="url(#paint_linear_52_29_0)" fill-opacity="0.040000"/>
	<rect id="Icon" width="287.200043" height="102.599831" transform="matrix(1 -1.78789e-17 2.72026e-16 -1 287.199 307.8)" fill="url(#paint_linear_52_30_0)" fill-opacity="0.040000"/>
	<rect id="Icon" width="287.200043" height="102.599831" transform="matrix(1 -1.78789e-17 2.72026e-16 -1 287.2 512.999)" fill="url(#paint_linear_52_31_0)" fill-opacity="0.040000"/>
	<rect id="Icon" width="287.200043" height="102.599831" transform="matrix(1 -5.55112e-17 -5.55112e-17 -1 287.199 205.2)" fill="url(#paint_linear_52_32_0)" fill-opacity="0.040000"/>
	<rect id="Icon" width="287.200043" height="102.599831" transform="matrix(1 -5.55112e-17 -5.55112e-17 -1 287.2 410.399)" fill="url(#paint_linear_52_33_0)" fill-opacity="0.040000"/>
	<rect id="Icon" x="861.600098" y="0.000977" width="287.200043" height="102.599831" fill="url(#paint_linear_52_34_0)" fill-opacity="0.040000"/>
	<rect id="Icon" x="861.600098" y="205.201172" width="287.200043" height="102.599831" fill="url(#paint_linear_52_35_0)" fill-opacity="0.040000"/>
	<rect id="Grid Item" x="861.600098" y="410.400146" width="287.200043" height="102.599831" fill="url(#paint_linear_52_36_0)" fill-opacity="0.040000"/>
	<rect id="Icon" width="287.200043" height="102.599831" transform="matrix(1 -5.55112e-17 -5.55112e-17 -1 861.6 205.201)" fill="url(#paint_linear_52_37_0)" fill-opacity="0.040000"/>
	<rect id="Grid Item" width="287.200043" height="102.599831" transform="matrix(1 -5.55112e-17 -5.55112e-17 -1 861.6 410.4)" fill="url(#paint_linear_52_38_0)" fill-opacity="0.040000"/>
	<rect id="Grid Item" width="287.200043" height="102.599831" transform="matrix(1 -5.55112e-17 -5.55112e-17 -1 574.401 102.601)" fill="url(#paint_linear_52_39_0)" fill-opacity="0.040000"/>
	<rect id="Grid Item" width="287.200043" height="102.599831" transform="matrix(1 -5.55112e-17 -5.55112e-17 -1 1148.8 102.6)" fill="url(#paint_linear_52_40_0)" fill-opacity="0.040000"/>
	<rect id="Grid Item" width="287.200043" height="102.599831" transform="matrix(1 -5.55112e-17 -5.55112e-17 -1 0 102.6)" fill="url(#paint_linear_52_41_0)" fill-opacity="0.040000"/>
	<rect id="Grid Item" width="287.200043" height="102.599831" transform="matrix(1 -5.55112e-17 -5.55112e-17 -1 574.401 307.802)" fill="url(#paint_linear_52_42_0)" fill-opacity="0.040000"/>
	<rect id="Grid Item" width="287.200043" height="102.599831" transform="matrix(1 -5.55112e-17 -5.55112e-17 -1 574.399 513)" fill="url(#paint_linear_52_43_0)" fill-opacity="0.040000"/>
	<rect id="Grid Item" width="287.200043" height="102.599831" transform="matrix(1 -5.55112e-17 -5.55112e-17 -1 1148.8 307.801)" fill="url(#paint_linear_52_44_0)" fill-opacity="0.040000"/>
	<rect id="Grid Item" width="287.200043" height="102.599831" transform="matrix(1 -5.55112e-17 -5.55112e-17 -1 1148.8 513)" fill="url(#paint_linear_52_45_0)" fill-opacity="0.040000"/>
	<rect id="Grid Item" y="205.201172" width="287.200043" height="102.599831" fill="url(#paint_linear_52_46_0)" fill-opacity="0.040000"/>
	<rect id="Grid Item" x="0.000977" y="410.400146" width="287.200043" height="102.599831" fill="url(#paint_linear_52_47_0)" fill-opacity="0.040000"/>
	<rect id="Grid Item" x="574.400879" y="102.600830" width="287.200043" height="102.599831" fill="url(#paint_linear_52_48_0)" fill-opacity="0.040000"/>
	<rect id="Grid Item" x="1148.799072" y="102.599854" width="287.200043" height="102.599831" fill="url(#paint_linear_52_49_0)" fill-opacity="0.040000"/>
	<rect id="Grid Item" y="102.599854" width="287.200043" height="102.599831" fill="url(#paint_linear_52_50_0)" fill-opacity="0.040000"/>
	<rect id="Grid Item" x="574.400879" y="307.802246" width="287.200043" height="102.599831" fill="url(#paint_linear_52_51_0)" fill-opacity="0.040000"/>
	<rect id="Grid Item" x="1148.799072" y="307.801025" width="287.200043" height="102.599831" fill="url(#paint_linear_52_52_0)" fill-opacity="0.040000"/>
	<rect id="Grid Item" y="307.801025" width="287.200043" height="102.599831" fill="url(#paint_linear_52_53_0)" fill-opacity="0.040000"/>
</svg>
