<svg width="61.234070" height="61.357910" viewBox="0 0 61.2341 61.3579" fill="none" xmlns="http://www.w3.org/2000/svg" xmlns:xlink="http://www.w3.org/1999/xlink">
	<desc>
			Created with Pixso.
	</desc>
	<defs>
		<filter id="filter_52_346_dd" x="0.000000" y="0.000000" width="61.234070" height="61.357910" filterUnits="userSpaceOnUse" color-interpolation-filters="sRGB">
			<feFlood flood-opacity="0" result="BackgroundImageFix"/>
			<feGaussianBlur in="BackgroundImage" stdDeviation="8"/>
			<feComposite in2="SourceAlpha" operator="in" result="effect_backgroundBlur_1"/>
			<feBlend mode="normal" in="SourceGraphic" in2="effect_backgroundBlur_1" result="shape"/>
			<feColorMatrix in="SourceAlpha" type="matrix" values="0 0 0 0 0 0 0 0 0 0 0 0 0 0 0 0 0 0 127 0" result="hardAlpha"/>
			<feOffset dx="0" dy="0"/>
			<feGaussianBlur stdDeviation="3.33333"/>
			<feComposite in2="hardAlpha" operator="arithmetic" k2="-1" k3="1"/>
			<feColorMatrix type="matrix" values="0 0 0 0 0.40392 0 0 0 0 0.40392 0 0 0 0 0.40392 0 0 0 0.7 0"/>
			<feBlend mode="normal" in2="shape" result="effect_innerShadow_2"/>
		</filter>
		<clipPath id="clip52_349">
			<rect id="Frame" rx="-0.500000" width="32.000000" height="32.000000" transform="translate(15.000000 14.500000)" fill="white" fill-opacity="0"/>
		</clipPath>
		<clipPath id="clip52_348">
			<rect id="Frame" rx="-0.500000" width="32.000000" height="32.000000" transform="translate(15.000000 14.500000)" fill="white" fill-opacity="0"/>
		</clipPath>
		<radialGradient gradientTransform="translate(30.617 30.6789) rotate(180) scale(30.6789 30.617)" cx="0.000000" cy="0.000000" r="1.000000" id="paint_radial_52_346_0" gradientUnits="userSpaceOnUse">
			<stop stop-color="#37535F"/>
			<stop offset="1.000000" stop-color="#16171B"/>
		</radialGradient>
	</defs>
	<g filter="url(#filter_52_346_dd)">
		<rect id="Frame" rx="18.119318" width="59.472706" height="59.596462" transform="translate(0.880682 0.880682)" fill="url(#paint_radial_52_346_0)" fill-opacity="0.800000"/>
		<rect id="Frame" rx="-0.500000" width="32.000000" height="32.000000" transform="translate(15.000000 14.500000)" fill="#FFFFFF" fill-opacity="0"/>
		<g clip-path="url(#clip52_348)">
			<rect id="Frame" rx="-0.500000" width="32.000000" height="32.000000" transform="translate(15.000000 14.500000)" fill="#FFFFFF" fill-opacity="0"/>
			<g clip-path="url(#clip52_349)">
				<path id="Vector" d="M16.44 37.5C16.99 37.97 17.77 38.19 18.7 38.19C19.47 38.19 20.33 38.04 21.26 37.76C22.01 39.47 23.04 40.6 24.19 40.84L24.19 43.57C24.19 44.19 24.44 44.79 24.88 45.22C25.32 45.66 25.91 45.91 26.53 45.91L39.21 45.91C39.83 45.91 40.43 45.66 40.86 45.22C41.3 44.79 41.55 44.19 41.55 43.57L41.55 40.76L42.14 41.46C42.18 41.5 42.23 41.54 42.29 41.57C42.34 41.6 42.4 41.61 42.46 41.62C42.52 41.62 42.59 41.62 42.64 41.6C42.7 41.58 42.76 41.55 42.8 41.51C42.9 41.43 42.96 41.31 42.97 41.19C42.98 41.07 42.94 40.94 42.86 40.85L41.44 39.18C41.43 39.18 41.43 39.18 41.43 39.18C41.38 39.13 41.33 39.09 41.27 39.06C41.21 39.03 41.15 39.02 41.08 39.02C41.02 39.02 40.95 39.03 40.9 39.06C40.84 39.09 40.78 39.13 40.74 39.17C40.74 39.18 40.73 39.18 40.73 39.18L39.31 40.85C39.24 40.94 39.2 41.06 39.22 41.18C39.23 41.3 39.29 41.41 39.38 41.49C39.47 41.57 39.59 41.61 39.71 41.6C39.83 41.59 39.94 41.54 40.02 41.46L40.62 40.76L40.62 43.57C40.62 43.95 40.47 44.3 40.2 44.56C39.94 44.83 39.59 44.98 39.21 44.98L26.53 44.98C26.16 44.98 25.8 44.83 25.54 44.56C25.28 44.3 25.13 43.95 25.13 43.57L25.13 40.84C26.28 40.6 27.31 39.47 28.06 37.76C28.99 38.04 29.85 38.19 30.62 38.19C31.55 38.19 32.33 37.97 32.88 37.5C33.44 37.03 33.74 36.34 33.74 35.5C33.74 34.1 32.91 32.31 31.48 30.49C32.91 28.68 33.74 26.89 33.74 25.49C33.74 24.65 33.44 23.96 32.88 23.48C31.87 22.64 30.12 22.61 28.06 23.23C27.31 21.52 26.28 20.39 25.13 20.15L25.13 17.42C25.13 17.04 25.28 16.69 25.54 16.43C25.8 16.16 26.16 16.02 26.53 16.01L39.21 16.01C39.59 16.02 39.94 16.16 40.2 16.43C40.47 16.69 40.62 17.04 40.62 17.42L40.62 20.7L40.02 20C39.94 19.91 39.83 19.86 39.71 19.85C39.58 19.84 39.47 19.88 39.37 19.96C39.28 20.04 39.22 20.15 39.21 20.27C39.2 20.39 39.23 20.51 39.31 20.61L40.73 22.27C40.73 22.28 40.74 22.28 40.74 22.28C40.77 22.32 40.81 22.35 40.86 22.37C40.87 22.38 40.88 22.39 40.89 22.39C40.95 22.42 41.02 22.44 41.08 22.44L41.09 22.44C41.15 22.43 41.21 22.42 41.27 22.39C41.29 22.39 41.3 22.37 41.32 22.36C41.36 22.34 41.39 22.31 41.42 22.28C41.43 22.28 41.43 22.28 41.44 22.27L42.86 20.61C42.93 20.51 42.96 20.39 42.95 20.27C42.93 20.16 42.88 20.05 42.79 19.97C42.69 19.89 42.58 19.85 42.46 19.86C42.34 19.86 42.23 19.92 42.14 20L41.55 20.7L41.55 17.42C41.55 16.8 41.3 16.2 40.86 15.77C40.43 15.33 39.83 15.08 39.21 15.08L26.53 15.08C25.91 15.08 25.32 15.33 24.88 15.77C24.44 16.2 24.19 16.8 24.19 17.42L24.19 20.15C23.03 20.39 22.01 21.52 21.26 23.23C19.2 22.61 17.45 22.64 16.44 23.48C15.88 23.96 15.58 24.65 15.58 25.49C15.58 26.89 16.41 28.68 17.84 30.49C16.41 32.31 15.58 34.1 15.58 35.5C15.58 36.34 15.88 37.03 16.44 37.5L16.44 37.5ZM24.66 39.95C23.77 39.95 22.85 39.04 22.14 37.46C23.01 37.12 23.85 36.72 24.66 36.26C25.52 36.75 26.37 37.15 27.18 37.46C26.47 39.04 25.55 39.95 24.66 39.95ZM19.97 31.5C19.65 31.17 19.35 30.84 19.05 30.5C19.35 30.15 19.65 29.82 19.97 29.49C19.94 30.16 19.94 30.83 19.97 31.5L19.97 31.5ZM20.88 30.5C20.88 29.81 20.91 29.16 20.97 28.54C22.11 27.51 23.34 26.59 24.66 25.8C25.98 26.59 27.21 27.51 28.35 28.54C28.46 29.84 28.46 31.15 28.35 32.45C27.21 33.48 25.98 34.39 24.66 35.19C23.34 34.39 22.11 33.48 20.97 32.45C20.91 31.8 20.88 31.15 20.88 30.5ZM21.8 24.4C22.46 24.65 23.11 24.95 23.73 25.28C22.83 25.85 21.96 26.48 21.13 27.17C21.29 26.13 21.52 25.2 21.8 24.4L21.8 24.4ZM28.19 27.17C27.36 26.48 26.49 25.85 25.59 25.28C26.21 24.95 26.86 24.65 27.52 24.4C27.8 25.2 28.03 26.13 28.19 27.17ZM29.35 29.49C29.67 29.82 29.97 30.15 30.27 30.5C29.98 30.83 29.68 31.16 29.35 31.5C29.38 30.83 29.38 30.16 29.35 29.49ZM27.52 36.59C26.86 36.34 26.21 36.04 25.59 35.71C26.49 35.14 27.36 34.51 28.19 33.83C28.03 34.86 27.8 35.79 27.52 36.59ZM21.13 33.83C21.96 34.51 22.83 35.14 23.73 35.71C23.11 36.04 22.46 36.34 21.8 36.59C21.52 35.79 21.29 34.86 21.13 33.83ZM32.81 35.5C32.81 36.06 32.63 36.5 32.28 36.79C31.58 37.38 30.17 37.41 28.4 36.89C28.8 35.73 29.1 34.38 29.25 32.9C29.82 32.37 30.36 31.81 30.87 31.23C32.08 32.82 32.81 34.35 32.81 35.5ZM30.61 23.73C31.33 23.73 31.9 23.89 32.28 24.2C32.63 24.49 32.81 24.93 32.81 25.49C32.81 26.64 32.08 28.17 30.87 29.76C30.36 29.18 29.82 28.62 29.25 28.1C29.1 26.61 28.8 25.26 28.4 24.1C29.23 23.86 29.98 23.73 30.61 23.73ZM24.66 21.04C25.55 21.04 26.47 21.95 27.18 23.53C26.31 23.87 25.47 24.27 24.66 24.73C23.85 24.27 23.01 23.87 22.14 23.53C22.85 21.95 23.77 21.04 24.66 21.04ZM16.52 25.49C16.52 24.93 16.69 24.49 17.04 24.2C17.42 23.89 17.99 23.73 18.71 23.73C19.34 23.73 20.09 23.85 20.92 24.1C20.52 25.26 20.23 26.61 20.07 28.1C19.5 28.62 18.96 29.18 18.45 29.76C17.24 28.17 16.52 26.64 16.52 25.49ZM18.45 31.23C18.96 31.81 19.5 32.37 20.07 32.89C20.23 34.38 20.52 35.73 20.92 36.89C19.15 37.41 17.75 37.38 17.04 36.79C16.69 36.5 16.52 36.06 16.52 35.5C16.52 34.35 17.24 32.82 18.45 31.23Z" fill="#D6D6D6" fill-opacity="1.000000" fill-rule="nonzero"/>
				<path id="Vector" d="M45.01 24.67L37.16 24.67C36.79 24.67 36.43 24.82 36.17 25.08C35.9 25.34 35.76 25.7 35.76 26.07L35.76 35.35C35.76 35.72 35.9 36.08 36.17 36.34C36.43 36.6 36.79 36.75 37.16 36.75L45.01 36.75C45.38 36.75 45.74 36.6 46 36.34C46.26 36.08 46.41 35.72 46.41 35.35L46.41 26.07C46.41 25.7 46.26 25.34 46 25.08C45.74 24.82 45.38 24.67 45.01 24.67ZM36.69 29.32L45.48 29.32L45.48 32.1L36.69 32.1L36.69 29.32ZM36.69 26.07C36.69 25.81 36.9 25.6 37.16 25.6L45.01 25.6C45.27 25.6 45.48 25.81 45.48 26.07L45.48 28.38L36.69 28.38L36.69 26.07ZM45.48 35.35C45.48 35.48 45.43 35.59 45.34 35.68C45.25 35.77 45.13 35.82 45.01 35.82L37.16 35.82C37.03 35.82 36.91 35.77 36.83 35.68C36.74 35.59 36.69 35.48 36.69 35.35L36.69 33.04L45.48 33.04L45.48 35.35Z" fill="#D6D6D6" fill-opacity="1.000000" fill-rule="nonzero"/>
				<path id="Vector" d="M38.52 26.53L38.16 26.53C38.1 26.53 38.04 26.54 37.98 26.56C37.93 26.59 37.88 26.62 37.83 26.66C37.79 26.71 37.75 26.76 37.73 26.81C37.71 26.87 37.7 26.93 37.7 26.99C37.7 27.05 37.71 27.12 37.73 27.17C37.75 27.23 37.79 27.28 37.83 27.32C37.88 27.37 37.93 27.4 37.98 27.42C38.04 27.45 38.1 27.46 38.16 27.46L38.52 27.46C38.58 27.46 38.64 27.45 38.7 27.42C38.75 27.4 38.8 27.37 38.85 27.32C38.89 27.28 38.93 27.23 38.95 27.17C38.97 27.12 38.98 27.05 38.98 26.99C38.98 26.93 38.97 26.87 38.95 26.81C38.93 26.76 38.89 26.71 38.85 26.66C38.8 26.62 38.75 26.59 38.7 26.56C38.64 26.54 38.58 26.53 38.52 26.53ZM40.79 26.53L40.44 26.53C40.38 26.53 40.31 26.54 40.26 26.56C40.2 26.59 40.15 26.62 40.11 26.66C40.06 26.71 40.03 26.76 40.01 26.81C39.98 26.87 39.97 26.93 39.97 26.99C39.97 27.05 39.98 27.12 40.01 27.17C40.03 27.23 40.06 27.28 40.11 27.32C40.15 27.37 40.2 27.4 40.26 27.42C40.31 27.45 40.38 27.46 40.44 27.46L40.79 27.46C40.85 27.46 40.91 27.45 40.97 27.42C41.03 27.4 41.08 27.37 41.12 27.32C41.16 27.28 41.2 27.23 41.22 27.17C41.25 27.12 41.26 27.05 41.26 26.99C41.26 26.93 41.25 26.87 41.22 26.81C41.2 26.76 41.16 26.71 41.12 26.66C41.08 26.62 41.03 26.59 40.97 26.56C40.91 26.54 40.85 26.53 40.79 26.53ZM38.52 30.24L38.16 30.24C38.04 30.24 37.92 30.29 37.83 30.38C37.74 30.47 37.69 30.59 37.69 30.71C37.69 30.83 37.74 30.95 37.83 31.04C37.92 31.13 38.04 31.18 38.16 31.18L38.52 31.18C38.64 31.18 38.76 31.13 38.85 31.04C38.94 30.95 38.98 30.83 38.98 30.71C38.98 30.59 38.94 30.47 38.85 30.38C38.76 30.29 38.64 30.24 38.52 30.24ZM40.79 30.24L40.44 30.24C40.31 30.24 40.19 30.29 40.11 30.38C40.02 30.47 39.97 30.59 39.97 30.71C39.97 30.83 40.02 30.95 40.11 31.04C40.19 31.13 40.31 31.18 40.44 31.18L40.79 31.18C40.91 31.18 41.03 31.13 41.12 31.04C41.21 30.95 41.26 30.83 41.26 30.71C41.26 30.59 41.21 30.47 41.12 30.38C41.03 30.29 40.91 30.24 40.79 30.24ZM38.16 34.9L38.52 34.9C38.64 34.9 38.76 34.85 38.85 34.76C38.94 34.67 38.98 34.55 38.98 34.43C38.98 34.3 38.94 34.19 38.85 34.1C38.76 34.01 38.64 33.96 38.52 33.96L38.16 33.96C38.04 33.96 37.92 34.01 37.83 34.1C37.74 34.18 37.7 34.3 37.7 34.43C37.7 34.55 37.74 34.67 37.83 34.76C37.92 34.85 38.04 34.9 38.16 34.9ZM40.44 34.9L40.79 34.9C40.91 34.9 41.03 34.85 41.12 34.76C41.21 34.67 41.26 34.55 41.26 34.43C41.26 34.3 41.21 34.19 41.12 34.1C41.03 34.01 40.91 33.96 40.79 33.96L40.44 33.96C40.31 33.96 40.19 34.01 40.11 34.1C40.02 34.18 39.97 34.3 39.97 34.43C39.97 34.55 40.02 34.67 40.11 34.76C40.19 34.85 40.31 34.9 40.44 34.9ZM24.66 32.64C25.84 32.64 26.81 31.68 26.81 30.49C26.81 29.31 25.84 28.35 24.66 28.35C23.48 28.35 22.51 29.31 22.51 30.49C22.51 31.68 23.48 32.64 24.66 32.64ZM24.66 29.28C24.98 29.28 25.29 29.41 25.52 29.64C25.74 29.87 25.87 30.17 25.87 30.5C25.87 30.82 25.74 31.12 25.52 31.35C25.29 31.58 24.98 31.71 24.66 31.71C24.34 31.71 24.03 31.58 23.8 31.35C23.58 31.13 23.45 30.82 23.45 30.5C23.45 30.17 23.58 29.87 23.8 29.64C24.03 29.41 24.34 29.28 24.66 29.28L24.66 29.28Z" fill="#D6D6D6" fill-opacity="1.000000" fill-rule="nonzero"/>
			</g>
		</g>
	</g>
	<rect id="Frame" rx="18.119318" width="59.472706" height="59.596462" transform="translate(0.880682 0.880682)" stroke="#494949" stroke-opacity="1.000000" stroke-width="1.761364"/>
</svg>
