<svg width="72.000000" height="72.000000" viewBox="0 0 72 72" fill="none" xmlns="http://www.w3.org/2000/svg" xmlns:xlink="http://www.w3.org/1999/xlink">
	<desc>
			Created with Pixso.
	</desc>
	<defs>
		<filter id="filter_52_360_dd" x="5.499939" y="5.000000" width="61.234070" height="61.357910" filterUnits="userSpaceOnUse" color-interpolation-filters="sRGB">
			<feFlood flood-opacity="0" result="BackgroundImageFix"/>
			<feGaussianBlur in="BackgroundImage" stdDeviation="8"/>
			<feComposite in2="SourceAlpha" operator="in" result="effect_backgroundBlur_1"/>
			<feBlend mode="normal" in="SourceGraphic" in2="effect_backgroundBlur_1" result="shape"/>
			<feColorMatrix in="SourceAlpha" type="matrix" values="0 0 0 0 0 0 0 0 0 0 0 0 0 0 0 0 0 0 127 0" result="hardAlpha"/>
			<feOffset dx="0" dy="0"/>
			<feGaussianBlur stdDeviation="3.33333"/>
			<feComposite in2="hardAlpha" operator="arithmetic" k2="-1" k3="1"/>
			<feColorMatrix type="matrix" values="0 0 0 0 0.94902 0 0 0 0 0.94902 0 0 0 0 0.94902 0 0 0 0.7 0"/>
			<feBlend mode="normal" in2="shape" result="effect_innerShadow_2"/>
		</filter>
		<clipPath id="clip52_362">
			<rect id="Frame" rx="-0.500000" width="32.000000" height="32.000000" transform="translate(20.499939 19.500000)" fill="white" fill-opacity="0"/>
		</clipPath>
		<clipPath id="clip52_359">
			<rect id="Frame" rx="-0.500000" width="71.000000" height="71.000000" transform="translate(0.500000 0.500000)" fill="white" fill-opacity="0"/>
		</clipPath>
		<radialGradient gradientTransform="translate(36.117 35.6789) rotate(180) scale(30.6789 30.617)" cx="0.000000" cy="0.000000" r="1.000000" id="paint_radial_52_360_0" gradientUnits="userSpaceOnUse">
			<stop stop-color="#E3E3E3"/>
			<stop offset="1.000000" stop-color="#FFFFFF"/>
		</radialGradient>
	</defs>
	<rect id="Frame" rx="-0.500000" width="71.000000" height="71.000000" transform="translate(0.500000 0.500000)" fill="#FFFFFF" fill-opacity="0"/>
	<g clip-path="url(#clip52_359)">
		<g filter="url(#filter_52_360_dd)">
			<rect id="Frame" rx="18.119318" width="59.472706" height="59.596462" transform="translate(6.380621 5.880682)" fill="url(#paint_radial_52_360_0)" fill-opacity="0.800000"/>
			<rect id="Frame" rx="-0.500000" width="32.000000" height="32.000000" transform="translate(20.499939 19.500000)" fill="#FFFFFF" fill-opacity="0"/>
			<g clip-path="url(#clip52_362)">
				<path id="Vector" d="M40.08 33.19L40.08 31.48C40.08 29.62 38.48 28.1 36.51 28.1C34.54 28.1 32.94 29.62 32.94 31.48L32.94 33.19C32.32 33.38 31.87 33.95 31.87 34.62L31.87 39.4C31.87 40.22 32.54 40.89 33.37 40.89L39.64 40.89C40.47 40.89 41.14 40.22 41.14 39.4L41.14 34.62C41.14 33.95 40.69 33.38 40.08 33.19ZM36.51 28.9C38.04 28.9 39.29 30.05 39.29 31.48L39.29 33.13L33.73 33.13L33.73 31.48C33.73 30.05 34.97 28.9 36.51 28.9ZM40.35 39.4C40.35 39.79 40.03 40.1 39.64 40.1L33.37 40.1C32.98 40.1 32.66 39.79 32.66 39.4L32.66 34.62C32.66 34.23 32.98 33.92 33.37 33.92L39.64 33.92C40.03 33.92 40.35 34.23 40.35 34.62L40.35 39.4Z" fill="#25272D" fill-opacity="1.000000" fill-rule="nonzero"/>
				<path id="Vector" d="M37.5 36.39C37.5 35.85 37.06 35.41 36.51 35.41C35.96 35.41 35.51 35.85 35.51 36.39C35.51 36.72 35.68 37.01 35.92 37.19L35.92 38.65L37.09 38.65L37.09 37.19C37.34 37.01 37.5 36.72 37.5 36.39ZM38 52L35.37 52C35.26 52 35.16 51.95 35.09 51.88C35.01 51.81 34.97 51.7 34.97 51.6L34.97 50.22C34.13 50.07 33.33 49.78 32.59 49.35L31.6 50.35C31.45 50.5 31.19 50.5 31.04 50.35L29.18 48.48C29.1 48.41 29.06 48.31 29.06 48.2C29.06 48.1 29.1 48 29.18 47.92L30.07 47.03C29.58 46.3 29.22 45.5 29 44.65L27.68 44.65C27.57 44.65 27.47 44.61 27.4 44.53C27.32 44.46 27.28 44.36 27.28 44.25L27.28 41.62C27.28 41.51 27.32 41.41 27.4 41.34C27.47 41.27 27.57 41.22 27.68 41.22L29.26 41.22C29.36 41.22 29.46 41.27 29.54 41.34C29.61 41.41 29.65 41.51 29.65 41.62C29.65 41.72 29.61 41.83 29.54 41.9C29.46 41.97 29.36 42.02 29.26 42.02L28.07 42.02L28.07 43.86L29.32 43.86C29.41 43.86 29.5 43.89 29.57 43.95C29.64 44 29.69 44.08 29.7 44.17C29.91 45.14 30.31 46.04 30.91 46.83C30.96 46.91 30.99 47 30.98 47.1C30.98 47.19 30.94 47.28 30.87 47.35L30.02 48.2L31.32 49.51L32.25 48.58C32.31 48.51 32.39 48.47 32.48 48.46C32.57 48.45 32.66 48.47 32.74 48.52C33.56 49.04 34.46 49.36 35.42 49.49C35.52 49.51 35.6 49.55 35.67 49.62C35.73 49.7 35.76 49.79 35.76 49.88L35.76 51.2L37.6 51.2L37.6 49.75C37.6 49.66 37.63 49.58 37.69 49.51C37.74 49.44 37.82 49.39 37.91 49.37C38.82 49.15 39.66 48.76 40.4 48.19C40.48 48.13 40.57 48.11 40.67 48.11C40.76 48.12 40.85 48.16 40.92 48.23L41.95 49.26L43.25 47.95L42.14 46.84C42.07 46.78 42.03 46.7 42.02 46.61C42.01 46.52 42.03 46.43 42.08 46.35C42.56 45.58 42.88 44.73 43.02 43.84C43.03 43.74 43.08 43.66 43.15 43.6C43.22 43.54 43.32 43.5 43.41 43.5L44.94 43.5L44.94 41.66L43.34 41.66C43.23 41.66 43.13 41.62 43.06 41.55C42.98 41.47 42.94 41.37 42.94 41.27C42.94 41.16 42.98 41.06 43.06 40.99C43.13 40.91 43.23 40.87 43.34 40.87L45.34 40.87C45.44 40.87 45.54 40.91 45.62 40.99C45.69 41.06 45.73 41.16 45.73 41.27L45.73 43.9C45.73 44 45.69 44.1 45.62 44.18C45.54 44.25 45.44 44.29 45.34 44.29L43.74 44.29C43.58 45.07 43.3 45.81 42.91 46.5L44.09 47.67C44.16 47.75 44.2 47.85 44.2 47.95C44.2 48.06 44.16 48.16 44.09 48.23L42.23 50.1C42.07 50.25 41.82 50.25 41.67 50.1L40.6 49.03C39.93 49.49 39.18 49.84 38.4 50.06L38.4 51.6C38.4 51.65 38.38 51.7 38.36 51.75C38.34 51.8 38.32 51.84 38.28 51.88C38.24 51.92 38.2 51.95 38.15 51.97C38.1 51.98 38.05 52 38 52Z" fill="#25272D" fill-opacity="1.000000" fill-rule="nonzero"/>
				<path id="Vector" d="M42.85 39.86C42.85 40.11 42.65 40.31 42.4 40.31C42.16 40.31 41.96 40.11 41.96 39.86C41.96 39.61 42.16 39.41 42.4 39.41C42.65 39.41 42.85 39.61 42.85 39.86Z" fill="#25272D" fill-opacity="1.000000" fill-rule="evenodd"/>
				<path id="Vector" d="M30.92 40.31C30.92 40.55 30.72 40.75 30.47 40.75C30.23 40.75 30.03 40.55 30.03 40.31C30.03 40.06 30.23 39.86 30.47 39.86C30.72 39.86 30.92 40.06 30.92 40.31Z" fill="#25272D" fill-opacity="1.000000" fill-rule="evenodd"/>
				<path id="Vector" d="M37.65 48.24C37.21 48.24 37.11 47.56 37.57 47.45C38.26 47.3 38.92 46.98 39.48 46.54C39.52 46.51 39.57 46.49 39.62 46.47C39.67 46.46 39.72 46.46 39.77 46.46C39.82 46.47 39.87 46.48 39.92 46.51C39.96 46.54 40 46.57 40.04 46.61C40.07 46.65 40.09 46.7 40.11 46.75C40.12 46.8 40.12 46.85 40.12 46.9C40.11 46.95 40.1 47 40.07 47.05C40.05 47.09 40.01 47.13 39.97 47.17C39.32 47.68 38.55 48.05 37.74 48.23C37.71 48.23 37.68 48.24 37.65 48.24ZM35.36 48.24C35.33 48.24 35.3 48.23 35.27 48.23C34.46 48.04 33.69 47.68 33.04 47.16C33 47.13 32.96 47.09 32.94 47.04C32.91 47 32.9 46.95 32.89 46.9C32.89 46.85 32.89 46.79 32.9 46.74C32.92 46.69 32.94 46.65 32.97 46.61C33.01 46.56 33.05 46.53 33.09 46.51C33.14 46.48 33.19 46.46 33.24 46.46C33.29 46.45 33.34 46.46 33.39 46.47C33.44 46.48 33.49 46.51 33.53 46.54C34.09 46.98 34.75 47.3 35.44 47.45C35.88 47.55 35.82 48.24 35.36 48.24ZM41.17 45.47C40.89 45.47 40.69 45.16 40.82 44.9C41.14 44.25 41.31 43.56 41.32 42.84C41.32 42.73 41.37 42.63 41.44 42.56C41.52 42.49 41.62 42.45 41.72 42.45C41.83 42.45 41.93 42.5 42 42.57C42.07 42.64 42.11 42.75 42.11 42.85C42.1 43.69 41.9 44.5 41.53 45.25C41.5 45.32 41.45 45.37 41.38 45.41C41.32 45.45 41.25 45.47 41.17 45.47ZM31.84 45.46C31.76 45.46 31.69 45.44 31.63 45.41C31.57 45.37 31.52 45.31 31.48 45.24C31.11 44.49 30.92 43.69 30.9 42.84C30.9 42.74 30.94 42.64 31.01 42.56C31.09 42.49 31.19 42.44 31.29 42.44C31.51 42.44 31.69 42.61 31.69 42.83C31.71 43.56 31.87 44.25 32.19 44.89C32.32 45.15 32.13 45.46 31.84 45.46ZM36.51 46.15C34.63 46.15 33.11 44.63 33.11 42.76C33.11 42.65 33.15 42.55 33.23 42.48C33.3 42.4 33.4 42.36 33.51 42.36C33.61 42.36 33.71 42.4 33.79 42.48C33.86 42.55 33.9 42.65 33.9 42.76C33.9 44.19 35.07 45.36 36.51 45.36C37.94 45.36 39.11 44.19 39.11 42.76C39.11 42.65 39.15 42.55 39.23 42.48C39.3 42.4 39.4 42.36 39.51 42.36C39.61 42.36 39.71 42.4 39.79 42.48C39.86 42.55 39.9 42.65 39.9 42.76C39.9 44.63 38.38 46.15 36.51 46.15ZM36.55 21.15C36.45 21.15 36.34 21.11 36.27 21.04C36.2 20.96 36.15 20.86 36.15 20.76L36.15 19.39C36.15 19.17 36.33 19 36.55 19C36.77 19 36.95 19.17 36.95 19.39L36.95 20.76C36.95 20.98 36.77 21.15 36.55 21.15ZM36.55 27.41C36.45 27.41 36.34 27.37 36.27 27.3C36.2 27.22 36.15 27.12 36.15 27.02L36.15 25.65C36.15 25.43 36.33 25.26 36.55 25.26C36.77 25.26 36.95 25.43 36.95 25.65L36.95 27.02C36.95 27.24 36.77 27.41 36.55 27.41ZM50.34 28.33C50.01 28.33 49.82 27.93 50.03 27.68L50.91 26.63C50.94 26.59 50.98 26.56 51.03 26.53C51.08 26.51 51.13 26.5 51.18 26.49C51.23 26.49 51.28 26.49 51.33 26.51C51.38 26.52 51.43 26.55 51.47 26.58C51.55 26.65 51.6 26.75 51.61 26.85C51.62 26.96 51.58 27.06 51.52 27.14L50.64 28.19C50.6 28.23 50.56 28.27 50.5 28.29C50.45 28.31 50.39 28.33 50.34 28.33ZM46.28 33.04C45.95 33.04 45.76 32.65 45.97 32.39L46.85 31.35C46.88 31.31 46.92 31.27 46.97 31.25C47.02 31.23 47.07 31.21 47.12 31.21C47.17 31.2 47.22 31.21 47.27 31.22C47.32 31.24 47.37 31.27 47.41 31.3C47.49 31.37 47.54 31.46 47.55 31.57C47.56 31.67 47.52 31.78 47.46 31.86L46.58 32.9C46.54 32.95 46.5 32.98 46.44 33.01C46.39 33.03 46.33 33.04 46.28 33.04ZM22.65 28.33C22.6 28.33 22.54 28.31 22.49 28.29C22.43 28.27 22.39 28.23 22.35 28.19L21.47 27.14C21.41 27.06 21.37 26.96 21.38 26.85C21.39 26.75 21.44 26.65 21.52 26.58C21.56 26.55 21.61 26.52 21.66 26.51C21.71 26.49 21.76 26.49 21.81 26.49C21.86 26.5 21.91 26.51 21.96 26.53C22.01 26.56 22.05 26.59 22.08 26.63L22.96 27.68C23.17 27.93 22.98 28.33 22.65 28.33ZM26.71 33.04C26.66 33.04 26.6 33.03 26.55 33.01C26.49 32.98 26.45 32.95 26.41 32.9L25.53 31.86C25.47 31.78 25.43 31.67 25.44 31.57C25.45 31.46 25.5 31.37 25.58 31.3C25.62 31.27 25.67 31.24 25.72 31.22C25.77 31.21 25.82 31.2 25.87 31.21C25.92 31.21 25.97 31.23 26.02 31.25C26.07 31.27 26.11 31.31 26.14 31.35L27.02 32.39C27.23 32.65 27.04 33.04 26.71 33.04ZM44.84 24.69C44.53 24.69 44.34 24.33 44.52 24.07L45.3 22.95C45.33 22.91 45.37 22.87 45.41 22.84C45.46 22.82 45.51 22.8 45.56 22.79C45.61 22.78 45.66 22.78 45.71 22.79C45.76 22.8 45.81 22.82 45.85 22.85C45.94 22.91 46 23.01 46.02 23.11C46.04 23.21 46.01 23.32 45.95 23.41L45.17 24.52C45.13 24.58 45.08 24.62 45.03 24.65C44.97 24.68 44.91 24.69 44.84 24.69ZM41.22 29.63C40.9 29.63 40.71 29.26 40.89 29L41.68 27.88C41.7 27.84 41.74 27.81 41.79 27.78C41.83 27.75 41.88 27.73 41.93 27.72C41.98 27.71 42.03 27.71 42.08 27.72C42.14 27.74 42.18 27.76 42.23 27.79C42.31 27.85 42.37 27.94 42.39 28.04C42.41 28.15 42.38 28.25 42.32 28.34L41.54 29.46C41.5 29.51 41.46 29.55 41.4 29.58C41.34 29.61 41.28 29.63 41.22 29.63ZM28.58 24.69C28.51 24.69 28.45 24.68 28.39 24.65C28.34 24.62 28.29 24.58 28.25 24.52L27.47 23.41C27.41 23.32 27.38 23.21 27.4 23.11C27.42 23.01 27.48 22.91 27.57 22.85C27.61 22.82 27.66 22.8 27.71 22.79C27.76 22.78 27.81 22.78 27.86 22.79C27.91 22.8 27.96 22.82 28.01 22.84C28.05 22.87 28.09 22.91 28.12 22.95L28.9 24.07C29.08 24.33 28.89 24.69 28.58 24.69ZM32.2 29.63C32.14 29.63 32.08 29.61 32.02 29.58C31.96 29.55 31.92 29.51 31.88 29.46L31.1 28.34C31.04 28.25 31.01 28.15 31.03 28.04C31.05 27.94 31.11 27.85 31.19 27.79C31.28 27.73 31.39 27.7 31.49 27.72C31.59 27.74 31.68 27.8 31.74 27.88L32.53 29C32.71 29.26 32.52 29.63 32.2 29.63ZM36.55 24.44C35.79 24.44 35.17 23.82 35.17 23.05C35.17 22.29 35.79 21.67 36.55 21.67C37.31 21.67 37.94 22.29 37.94 23.05C37.94 23.82 37.31 24.44 36.55 24.44ZM36.55 22.46C36.22 22.46 35.96 22.73 35.96 23.05C35.96 23.38 36.22 23.65 36.55 23.65C36.88 23.65 37.14 23.38 37.14 23.05C37.14 22.73 36.88 22.46 36.55 22.46ZM30.03 27.61C29.27 27.61 28.65 26.99 28.65 26.22C28.65 25.46 29.27 24.84 30.03 24.84C30.79 24.84 31.42 25.46 31.42 26.22C31.42 26.99 30.79 27.61 30.03 27.61ZM30.03 25.63C29.7 25.63 29.44 25.89 29.44 26.22C29.44 26.55 29.7 26.82 30.03 26.82C30.36 26.82 30.62 26.55 30.62 26.22C30.62 25.89 30.36 25.63 30.03 25.63ZM26.32 22.61C25.56 22.61 24.94 21.98 24.94 21.22C24.94 20.46 25.56 19.83 26.32 19.83C27.09 19.83 27.71 20.46 27.71 21.22C27.71 21.98 27.09 22.61 26.32 22.61ZM26.32 20.63C26 20.63 25.73 20.89 25.73 21.22C25.73 21.55 26 21.81 26.32 21.81C26.65 21.81 26.92 21.55 26.92 21.22C26.92 20.89 26.65 20.63 26.32 20.63ZM24.25 31.15C23.48 31.15 22.86 30.53 22.86 29.77C22.86 29 23.48 28.38 24.25 28.38C25.01 28.38 25.63 29 25.63 29.77C25.63 30.53 25.01 31.15 24.25 31.15ZM24.25 29.17C23.92 29.17 23.65 29.44 23.65 29.77C23.65 30.09 23.92 30.36 24.25 30.36C24.57 30.36 24.84 30.09 24.84 29.77C24.84 29.44 24.57 29.17 24.25 29.17ZM28.29 35.87C27.53 35.87 26.91 35.25 26.91 34.48C26.91 33.72 27.53 33.1 28.29 33.1C29.05 33.1 29.68 33.72 29.68 34.48C29.68 35.25 29.05 35.87 28.29 35.87ZM28.29 33.89C27.96 33.89 27.7 34.16 27.7 34.48C27.7 34.81 27.96 35.08 28.29 35.08C28.62 35.08 28.88 34.81 28.88 34.48C28.88 34.16 28.62 33.89 28.29 33.89ZM43.39 27.61C42.63 27.61 42 26.99 42 26.22C42 25.46 42.63 24.84 43.39 24.84C44.15 24.84 44.77 25.46 44.77 26.22C44.77 26.99 44.15 27.61 43.39 27.61ZM43.39 25.63C43.06 25.63 42.8 25.89 42.8 26.22C42.8 26.55 43.06 26.82 43.39 26.82C43.72 26.82 43.98 26.55 43.98 26.22C43.98 25.89 43.72 25.63 43.39 25.63ZM47.08 22.61C46.32 22.61 45.7 21.98 45.7 21.22C45.7 20.46 46.32 19.83 47.08 19.83C47.85 19.83 48.47 20.46 48.47 21.22C48.47 21.98 47.85 22.61 47.08 22.61ZM47.08 20.63C46.75 20.63 46.49 20.89 46.49 21.22C46.49 21.55 46.75 21.81 47.08 21.81C47.41 21.81 47.68 21.55 47.68 21.22C47.68 20.89 47.41 20.63 47.08 20.63ZM44.68 35.85C43.92 35.85 43.3 35.23 43.3 34.47C43.3 33.7 43.92 33.08 44.68 33.08C45.45 33.08 46.07 33.7 46.07 34.47C46.07 35.23 45.45 35.85 44.68 35.85ZM44.68 33.87C44.36 33.87 44.09 34.14 44.09 34.47C44.09 34.8 44.36 35.06 44.68 35.06C45.01 35.06 45.28 34.8 45.28 34.47C45.28 34.14 45.01 33.87 44.68 33.87ZM48.76 31.15C48 31.15 47.37 30.53 47.37 29.77C47.37 29 48 28.38 48.76 28.38C49.52 28.38 50.14 29 50.14 29.77C50.14 30.53 49.52 31.15 48.76 31.15ZM48.76 29.17C48.43 29.17 48.17 29.44 48.17 29.77C48.17 30.09 48.43 30.36 48.76 30.36C49.09 30.36 49.35 30.09 49.35 29.77C49.35 29.44 49.09 29.17 48.76 29.17Z" fill="#25272D" fill-opacity="1.000000" fill-rule="nonzero"/>
			</g>
		</g>
		<rect id="Frame" rx="18.119318" width="59.472706" height="59.596462" transform="translate(6.380621 5.880682)" stroke="#CCCCCC" stroke-opacity="1.000000" stroke-width="1.761364"/>
	</g>
</svg>
