<svg width="72.000000" height="72.000000" viewBox="0 0 72 72" fill="none" xmlns="http://www.w3.org/2000/svg" xmlns:xlink="http://www.w3.org/1999/xlink">
	<desc>
			Created with Pixso.
	</desc>
	<defs>
		<filter id="filter_52_376_dd" x="5.499939" y="5.000000" width="61.234070" height="61.357910" filterUnits="userSpaceOnUse" color-interpolation-filters="sRGB">
			<feFlood flood-opacity="0" result="BackgroundImageFix"/>
			<feGaussianBlur in="BackgroundImage" stdDeviation="8"/>
			<feComposite in2="SourceAlpha" operator="in" result="effect_backgroundBlur_1"/>
			<feBlend mode="normal" in="SourceGraphic" in2="effect_backgroundBlur_1" result="shape"/>
			<feColorMatrix in="SourceAlpha" type="matrix" values="0 0 0 0 0 0 0 0 0 0 0 0 0 0 0 0 0 0 127 0" result="hardAlpha"/>
			<feOffset dx="0" dy="0"/>
			<feGaussianBlur stdDeviation="3.33333"/>
			<feComposite in2="hardAlpha" operator="arithmetic" k2="-1" k3="1"/>
			<feColorMatrix type="matrix" values="0 0 0 0 0.40392 0 0 0 0 0.40392 0 0 0 0 0.40392 0 0 0 0.7 0"/>
			<feBlend mode="normal" in2="shape" result="effect_innerShadow_2"/>
		</filter>
		<clipPath id="clip52_378">
			<rect id="Frame" rx="-0.500000" width="32.000000" height="32.000000" transform="translate(20.499939 19.500000)" fill="white" fill-opacity="0"/>
		</clipPath>
		<clipPath id="clip52_375">
			<rect id="Frame" rx="-0.500000" width="71.000000" height="71.000000" transform="translate(0.500000 0.500000)" fill="white" fill-opacity="0"/>
		</clipPath>
		<radialGradient gradientTransform="translate(36.117 35.6789) rotate(180) scale(30.6789 30.617)" cx="0.000000" cy="0.000000" r="1.000000" id="paint_radial_52_376_0" gradientUnits="userSpaceOnUse">
			<stop stop-color="#37535F"/>
			<stop offset="1.000000" stop-color="#16171B"/>
		</radialGradient>
	</defs>
	<rect id="Frame" rx="-0.500000" width="71.000000" height="71.000000" transform="translate(0.500000 0.500000)" fill="#FFFFFF" fill-opacity="0"/>
	<g clip-path="url(#clip52_375)">
		<g filter="url(#filter_52_376_dd)">
			<rect id="Frame" rx="18.119318" width="59.472706" height="59.596462" transform="translate(6.380621 5.880682)" fill="url(#paint_radial_52_376_0)" fill-opacity="0.800000"/>
			<rect id="Frame" rx="-0.500000" width="32.000000" height="32.000000" transform="translate(20.499939 19.500000)" fill="#FFFFFF" fill-opacity="0"/>
			<g clip-path="url(#clip52_378)">
				<path id="Vector" d="M45.16 29.64L37.19 25.02C36.98 24.89 36.74 24.83 36.5 24.83C36.25 24.83 36.01 24.89 35.8 25.02L27.83 29.64C27.62 29.77 27.45 29.94 27.33 30.15C27.21 30.36 27.15 30.6 27.15 30.84L27.15 40.15C27.15 40.39 27.21 40.63 27.33 40.84C27.45 41.05 27.62 41.22 27.83 41.35L35.8 45.97C36.01 46.09 36.25 46.16 36.5 46.16C36.74 46.16 36.98 46.09 37.19 45.97L45.16 41.35C45.37 41.22 45.54 41.05 45.66 40.84C45.78 40.63 45.84 40.39 45.85 40.15L45.85 30.84C45.84 30.6 45.78 30.36 45.66 30.15C45.54 29.94 45.37 29.77 45.16 29.64ZM37.05 33.29C37.05 33.4 37.01 33.51 36.95 33.6C36.89 33.69 36.81 33.76 36.71 33.8C36.6 33.84 36.49 33.86 36.39 33.83C36.28 33.81 36.18 33.76 36.11 33.68C36.03 33.61 35.98 33.51 35.96 33.4C35.93 33.3 35.95 33.18 35.99 33.08C36.03 32.98 36.1 32.9 36.19 32.84C36.28 32.78 36.39 32.75 36.5 32.75C36.64 32.75 36.78 32.8 36.88 32.91C36.99 33.01 37.05 33.15 37.05 33.29ZM35.95 37.69C35.95 37.59 35.98 37.48 36.04 37.39C36.1 37.3 36.18 37.23 36.28 37.19C36.39 37.14 36.5 37.13 36.6 37.16C36.71 37.18 36.81 37.23 36.88 37.31C36.96 37.38 37.01 37.48 37.03 37.59C37.06 37.69 37.04 37.81 37 37.91C36.96 38.01 36.89 38.09 36.8 38.15C36.71 38.21 36.6 38.25 36.5 38.25C36.35 38.25 36.21 38.19 36.11 38.08C36 37.98 35.95 37.84 35.95 37.69ZM44.6 40.39L37.05 44.79L37.05 39.24C37.41 39.11 37.72 38.86 37.92 38.52C38.12 38.19 38.19 37.79 38.12 37.41C38.06 37.03 37.86 36.68 37.56 36.43C37.26 36.18 36.88 36.04 36.5 36.04C36.11 36.04 35.73 36.18 35.43 36.43C35.13 36.68 34.93 37.03 34.87 37.41C34.8 37.79 34.87 38.19 35.07 38.52C35.27 38.86 35.58 39.11 35.95 39.24L35.95 44.79L28.39 40.39C28.34 40.37 28.31 40.33 28.28 40.29C28.26 40.25 28.25 40.2 28.25 40.15L28.25 37.69L31.55 37.69C31.69 37.69 31.83 37.75 31.93 37.86C32.04 37.96 32.09 38.1 32.09 38.25L32.09 38.35C31.73 38.48 31.42 38.73 31.22 39.07C31.02 39.4 30.95 39.8 31.02 40.18C31.08 40.56 31.28 40.91 31.58 41.16C31.88 41.41 32.26 41.55 32.65 41.55C33.03 41.55 33.41 41.41 33.71 41.16C34.01 40.91 34.21 40.56 34.27 40.18C34.34 39.8 34.27 39.4 34.07 39.07C33.87 38.73 33.56 38.48 33.2 38.35L33.2 38.25C33.2 37.81 33.02 37.39 32.71 37.08C32.4 36.77 31.98 36.59 31.55 36.59L28.25 36.59L28.25 34.39L31.55 34.39C31.98 34.39 32.4 34.22 32.71 33.91C33.02 33.6 33.2 33.18 33.2 32.75L33.2 32.64C33.56 32.51 33.87 32.26 34.07 31.92C34.27 31.59 34.34 31.19 34.27 30.81C34.21 30.43 34.01 30.08 33.71 29.83C33.41 29.58 33.03 29.44 32.65 29.44C32.26 29.44 31.88 29.58 31.58 29.83C31.28 30.08 31.08 30.43 31.02 30.81C30.95 31.19 31.02 31.59 31.22 31.92C31.42 32.26 31.73 32.51 32.09 32.64L32.09 32.75C32.09 32.89 32.04 33.03 31.93 33.13C31.83 33.24 31.69 33.29 31.55 33.29L28.25 33.29L28.25 30.84C28.25 30.79 28.26 30.74 28.28 30.7C28.31 30.66 28.34 30.62 28.39 30.6L35.95 26.2L35.95 31.75C35.58 31.88 35.27 32.13 35.07 32.47C34.87 32.8 34.8 33.2 34.87 33.58C34.93 33.96 35.13 34.31 35.43 34.56C35.73 34.81 36.11 34.95 36.5 34.95C36.88 34.95 37.26 34.81 37.56 34.56C37.86 34.31 38.06 33.96 38.12 33.58C38.19 33.2 38.12 32.8 37.92 32.47C37.72 32.13 37.41 31.88 37.05 31.75L37.05 26.2L44.6 30.6C44.65 30.62 44.68 30.66 44.71 30.7C44.73 30.74 44.74 30.79 44.75 30.84L44.75 33.29L41.45 33.29C41.3 33.29 41.16 33.24 41.06 33.13C40.95 33.03 40.9 32.89 40.9 32.75L40.9 32.64C41.26 32.51 41.57 32.26 41.77 31.92C41.97 31.59 42.04 31.19 41.97 30.81C41.91 30.43 41.71 30.08 41.41 29.83C41.11 29.58 40.73 29.44 40.34 29.44C39.96 29.44 39.58 29.58 39.28 29.83C38.98 30.08 38.78 30.43 38.72 30.81C38.65 31.19 38.72 31.59 38.92 31.92C39.12 32.26 39.43 32.51 39.8 32.64L39.8 32.75C39.8 33.18 39.97 33.6 40.28 33.91C40.59 34.22 41.01 34.39 41.45 34.39L44.75 34.39L44.75 36.59L41.45 36.59C41.01 36.59 40.59 36.77 40.28 37.08C39.97 37.39 39.8 37.81 39.8 38.25L39.8 38.35C39.43 38.48 39.12 38.73 38.92 39.07C38.72 39.4 38.65 39.8 38.72 40.18C38.78 40.56 38.98 40.91 39.28 41.16C39.58 41.41 39.96 41.55 40.34 41.55C40.73 41.55 41.11 41.41 41.41 41.16C41.71 40.91 41.91 40.56 41.97 40.18C42.04 39.8 41.97 39.4 41.77 39.07C41.57 38.73 41.26 38.48 40.9 38.35L40.9 38.25C40.9 38.1 40.95 37.96 41.06 37.86C41.16 37.75 41.3 37.69 41.45 37.69L44.75 37.69L44.75 40.15C44.74 40.2 44.73 40.25 44.71 40.29C44.68 40.33 44.65 40.37 44.6 40.39ZM33.2 39.89C33.2 40 33.16 40.11 33.1 40.2C33.04 40.29 32.96 40.36 32.86 40.4C32.75 40.44 32.64 40.46 32.54 40.43C32.43 40.41 32.33 40.36 32.26 40.28C32.18 40.21 32.13 40.11 32.11 40C32.08 39.9 32.1 39.79 32.14 39.68C32.18 39.58 32.25 39.5 32.34 39.44C32.43 39.38 32.54 39.34 32.65 39.34C32.79 39.34 32.93 39.4 33.03 39.51C33.14 39.61 33.2 39.75 33.2 39.89ZM32.09 31.09C32.09 30.99 32.13 30.88 32.19 30.79C32.25 30.7 32.33 30.63 32.43 30.59C32.54 30.55 32.65 30.53 32.75 30.56C32.86 30.58 32.96 30.63 33.03 30.71C33.11 30.78 33.16 30.88 33.18 30.99C33.21 31.09 33.19 31.21 33.15 31.31C33.11 31.41 33.04 31.49 32.95 31.55C32.86 31.61 32.75 31.64 32.65 31.64C32.5 31.64 32.36 31.59 32.26 31.48C32.15 31.38 32.09 31.24 32.09 31.09ZM39.8 31.09C39.8 30.99 39.83 30.88 39.89 30.79C39.95 30.7 40.03 30.63 40.13 30.59C40.24 30.55 40.35 30.53 40.45 30.56C40.56 30.58 40.66 30.63 40.73 30.71C40.81 30.78 40.86 30.88 40.88 30.99C40.91 31.09 40.89 31.21 40.85 31.31C40.81 31.41 40.74 31.49 40.65 31.55C40.56 31.61 40.45 31.64 40.34 31.64C40.2 31.64 40.06 31.59 39.96 31.48C39.85 31.38 39.8 31.24 39.8 31.09ZM40.9 39.89C40.9 40 40.86 40.11 40.8 40.2C40.74 40.29 40.66 40.36 40.56 40.4C40.45 40.44 40.34 40.46 40.24 40.43C40.13 40.41 40.03 40.36 39.96 40.28C39.88 40.21 39.83 40.11 39.81 40C39.78 39.9 39.8 39.79 39.84 39.68C39.88 39.58 39.95 39.5 40.04 39.44C40.13 39.38 40.24 39.34 40.34 39.34C40.49 39.34 40.63 39.4 40.73 39.51C40.84 39.61 40.9 39.75 40.9 39.89Z" fill="#D6D6D6" fill-opacity="1.000000" fill-rule="nonzero"/>
				<path id="Vector" d="M37.19 25.02C36.98 24.89 36.74 24.83 36.5 24.83C36.25 24.83 36.01 24.89 35.8 25.02L27.83 29.64C27.62 29.77 27.45 29.94 27.33 30.15C27.21 30.36 27.15 30.6 27.15 30.84L27.15 40.15C27.15 40.39 27.21 40.63 27.33 40.84C27.45 41.05 27.62 41.22 27.83 41.35L35.8 45.97C36.01 46.09 36.25 46.16 36.5 46.16C36.74 46.16 36.98 46.09 37.19 45.97L45.16 41.35C45.37 41.22 45.54 41.05 45.66 40.84C45.78 40.63 45.84 40.39 45.85 40.15L45.85 30.84C45.84 30.6 45.78 30.36 45.66 30.15C45.54 29.94 45.37 29.77 45.16 29.64L37.19 25.02ZM36.95 33.6C36.89 33.69 36.81 33.76 36.71 33.8C36.6 33.84 36.49 33.86 36.39 33.83C36.28 33.81 36.18 33.76 36.11 33.68C36.03 33.61 35.98 33.51 35.96 33.4C35.93 33.3 35.95 33.18 35.99 33.08C36.03 32.98 36.1 32.9 36.19 32.84C36.28 32.78 36.39 32.75 36.5 32.75C36.64 32.75 36.78 32.8 36.88 32.91C36.99 33.01 37.05 33.15 37.05 33.29C37.05 33.4 37.01 33.51 36.95 33.6ZM36.04 37.39C36.1 37.3 36.18 37.23 36.28 37.19C36.39 37.14 36.5 37.13 36.6 37.16C36.71 37.18 36.81 37.23 36.88 37.31C36.96 37.38 37.01 37.48 37.03 37.59C37.06 37.69 37.04 37.81 37 37.91C36.96 38.01 36.89 38.09 36.8 38.15C36.71 38.21 36.6 38.25 36.5 38.25C36.35 38.25 36.21 38.19 36.11 38.08C36 37.98 35.95 37.84 35.95 37.69C35.95 37.59 35.98 37.48 36.04 37.39ZM37.05 44.79L37.05 39.24C37.41 39.11 37.72 38.86 37.92 38.52C38.12 38.19 38.19 37.79 38.12 37.41C38.06 37.03 37.86 36.68 37.56 36.43C37.26 36.18 36.88 36.04 36.5 36.04C36.11 36.04 35.73 36.18 35.43 36.43C35.13 36.68 34.93 37.03 34.87 37.41C34.8 37.79 34.87 38.19 35.07 38.52C35.27 38.86 35.58 39.11 35.95 39.24L35.95 44.79L28.39 40.39C28.34 40.37 28.31 40.33 28.28 40.29C28.26 40.25 28.25 40.2 28.25 40.15L28.25 37.69L31.55 37.69C31.69 37.69 31.83 37.75 31.93 37.86C32.04 37.96 32.09 38.1 32.09 38.25L32.09 38.35C31.73 38.48 31.42 38.73 31.22 39.07C31.02 39.4 30.95 39.8 31.02 40.18C31.08 40.56 31.28 40.91 31.58 41.16C31.88 41.41 32.26 41.55 32.65 41.55C33.03 41.55 33.41 41.41 33.71 41.16C34.01 40.91 34.21 40.56 34.27 40.18C34.34 39.8 34.27 39.4 34.07 39.07C33.87 38.73 33.56 38.48 33.2 38.35L33.2 38.25C33.2 37.81 33.02 37.39 32.71 37.08C32.4 36.77 31.98 36.59 31.55 36.59L28.25 36.59L28.25 34.39L31.55 34.39C31.98 34.39 32.4 34.22 32.71 33.91C33.02 33.6 33.2 33.18 33.2 32.75L33.2 32.64C33.56 32.51 33.87 32.26 34.07 31.92C34.27 31.59 34.34 31.19 34.27 30.81C34.21 30.43 34.01 30.08 33.71 29.83C33.41 29.58 33.03 29.44 32.65 29.44C32.26 29.44 31.88 29.58 31.58 29.83C31.28 30.08 31.08 30.43 31.02 30.81C30.95 31.19 31.02 31.59 31.22 31.92C31.42 32.26 31.73 32.51 32.09 32.64L32.09 32.75C32.09 32.89 32.04 33.03 31.93 33.13C31.83 33.24 31.69 33.29 31.55 33.29L28.25 33.29L28.25 30.84C28.25 30.79 28.26 30.74 28.28 30.7C28.31 30.66 28.34 30.62 28.39 30.6L35.95 26.2L35.95 31.75C35.58 31.88 35.27 32.13 35.07 32.47C34.87 32.8 34.8 33.2 34.87 33.58C34.93 33.96 35.13 34.31 35.43 34.56C35.73 34.81 36.11 34.95 36.5 34.95C36.88 34.95 37.26 34.81 37.56 34.56C37.86 34.31 38.06 33.96 38.12 33.58C38.19 33.2 38.12 32.8 37.92 32.47C37.72 32.13 37.41 31.88 37.05 31.75L37.05 26.2L44.6 30.6C44.65 30.62 44.68 30.66 44.71 30.7C44.73 30.74 44.74 30.79 44.75 30.84L44.75 33.29L41.45 33.29C41.3 33.29 41.16 33.24 41.06 33.13C40.95 33.03 40.9 32.89 40.9 32.75L40.9 32.64C41.26 32.51 41.57 32.26 41.77 31.92C41.97 31.59 42.04 31.19 41.97 30.81C41.91 30.43 41.71 30.08 41.41 29.83C41.11 29.58 40.73 29.44 40.34 29.44C39.96 29.44 39.58 29.58 39.28 29.83C38.98 30.08 38.78 30.43 38.72 30.81C38.65 31.19 38.72 31.59 38.92 31.92C39.12 32.26 39.43 32.51 39.8 32.64L39.8 32.75C39.8 33.18 39.97 33.6 40.28 33.91C40.59 34.22 41.01 34.39 41.45 34.39L44.75 34.39L44.75 36.59L41.45 36.59C41.01 36.59 40.59 36.77 40.28 37.08C39.97 37.39 39.8 37.81 39.8 38.25L39.8 38.35C39.43 38.48 39.12 38.73 38.92 39.07C38.72 39.4 38.65 39.8 38.72 40.18C38.78 40.56 38.98 40.91 39.28 41.16C39.58 41.41 39.96 41.55 40.34 41.55C40.73 41.55 41.11 41.41 41.41 41.16C41.71 40.91 41.91 40.56 41.97 40.18C42.04 39.8 41.97 39.4 41.77 39.07C41.57 38.73 41.26 38.48 40.9 38.35L40.9 38.25C40.9 38.1 40.95 37.96 41.06 37.86C41.16 37.75 41.3 37.69 41.45 37.69L44.75 37.69L44.75 40.15C44.74 40.2 44.73 40.25 44.71 40.29C44.68 40.33 44.65 40.37 44.6 40.39L37.05 44.79ZM33.1 40.2C33.04 40.29 32.96 40.36 32.86 40.4C32.75 40.44 32.64 40.46 32.54 40.43C32.43 40.41 32.33 40.36 32.26 40.28C32.18 40.21 32.13 40.11 32.11 40C32.08 39.9 32.1 39.79 32.14 39.68C32.18 39.58 32.25 39.5 32.34 39.44C32.43 39.38 32.54 39.34 32.65 39.34C32.79 39.34 32.93 39.4 33.03 39.51C33.14 39.61 33.2 39.75 33.2 39.89C33.2 40 33.16 40.11 33.1 40.2ZM32.19 30.79C32.25 30.7 32.33 30.63 32.43 30.59C32.54 30.55 32.65 30.53 32.75 30.56C32.86 30.58 32.96 30.63 33.03 30.71C33.11 30.78 33.16 30.88 33.18 30.99C33.21 31.09 33.19 31.21 33.15 31.31C33.11 31.41 33.04 31.49 32.95 31.55C32.86 31.61 32.75 31.64 32.65 31.64C32.5 31.64 32.36 31.59 32.26 31.48C32.15 31.38 32.09 31.24 32.09 31.09C32.09 30.99 32.13 30.88 32.19 30.79ZM39.89 30.79C39.95 30.7 40.03 30.63 40.13 30.59C40.24 30.55 40.35 30.53 40.45 30.56C40.56 30.58 40.66 30.63 40.73 30.71C40.81 30.78 40.86 30.88 40.88 30.99C40.91 31.09 40.89 31.21 40.85 31.31C40.81 31.41 40.74 31.49 40.65 31.55C40.56 31.61 40.45 31.64 40.34 31.64C40.2 31.64 40.06 31.59 39.96 31.48C39.85 31.38 39.8 31.24 39.8 31.09C39.8 30.99 39.83 30.88 39.89 30.79ZM40.8 40.2C40.74 40.29 40.66 40.36 40.56 40.4C40.45 40.44 40.34 40.46 40.24 40.43C40.13 40.41 40.03 40.36 39.96 40.28C39.88 40.21 39.83 40.11 39.81 40C39.78 39.9 39.8 39.79 39.84 39.68C39.88 39.58 39.95 39.5 40.04 39.44C40.13 39.38 40.24 39.34 40.34 39.34C40.49 39.34 40.63 39.4 40.73 39.51C40.84 39.61 40.9 39.75 40.9 39.89C40.9 40 40.86 40.11 40.8 40.2Z" stroke="#2C3941" stroke-opacity="1.000000" stroke-width="0.400000"/>
				<path id="Vector" d="M49.7 33.29C50.13 33.29 50.55 33.12 50.86 32.81C51.17 32.5 51.34 32.08 51.34 31.64L51.34 28.82C51.86 28.68 52.32 28.36 52.62 27.92C52.92 27.48 53.04 26.94 52.98 26.41C52.91 25.88 52.65 25.39 52.25 25.04C51.85 24.68 51.33 24.49 50.79 24.49C50.26 24.49 49.74 24.68 49.34 25.04C48.94 25.39 48.68 25.88 48.61 26.41C48.55 26.94 48.67 27.48 48.97 27.92C49.27 28.36 49.73 28.68 50.24 28.82L50.24 31.64C50.24 31.79 50.19 31.93 50.08 32.03C49.98 32.14 49.84 32.2 49.7 32.2L48.04 32.2L48.04 29.6C48.04 29.35 47.98 29.11 47.86 28.9C47.74 28.68 47.56 28.51 47.35 28.38L39.79 23.99L39.79 22.29C39.79 22.15 39.85 22.01 39.96 21.91C40.06 21.8 40.2 21.75 40.34 21.75L43.17 21.75C43.31 22.26 43.63 22.72 44.07 23.02C44.51 23.32 45.05 23.44 45.58 23.38C46.11 23.31 46.6 23.05 46.95 22.65C47.31 22.25 47.5 21.73 47.5 21.2C47.5 20.66 47.31 20.14 46.95 19.74C46.6 19.34 46.11 19.08 45.58 19.01C45.05 18.95 44.51 19.07 44.07 19.37C43.63 19.67 43.31 20.13 43.17 20.64L40.34 20.64C39.91 20.64 39.49 20.82 39.18 21.13C38.87 21.44 38.69 21.86 38.69 22.29L38.69 23.35L37.19 22.48C36.98 22.36 36.74 22.3 36.49 22.3C36.25 22.3 36.01 22.36 35.8 22.48L34.29 23.36L34.29 22.29C34.29 21.86 34.12 21.44 33.81 21.13C33.5 20.82 33.08 20.64 32.64 20.64L29.82 20.64C29.68 20.13 29.36 19.67 28.92 19.37C28.48 19.07 27.94 18.95 27.41 19.01C26.88 19.08 26.39 19.34 26.04 19.74C25.68 20.14 25.49 20.66 25.49 21.2C25.49 21.73 25.68 22.25 26.04 22.65C26.39 23.05 26.88 23.31 27.41 23.38C27.94 23.44 28.48 23.32 28.92 23.02C29.36 22.72 29.68 22.26 29.82 21.75L32.64 21.75C32.79 21.75 32.93 21.8 33.03 21.91C33.14 22.01 33.19 22.15 33.19 22.29L33.19 23.99L25.64 28.38C25.43 28.51 25.25 28.68 25.13 28.9C25.01 29.11 24.95 29.35 24.94 29.6L24.94 32.2L23.29 32.2C23.15 32.2 23.01 32.14 22.91 32.03C22.8 31.93 22.74 31.79 22.74 31.64L22.74 28.82C23.26 28.68 23.72 28.36 24.02 27.92C24.32 27.48 24.44 26.94 24.38 26.41C24.31 25.88 24.05 25.39 23.65 25.04C23.25 24.68 22.73 24.49 22.19 24.49C21.66 24.49 21.14 24.68 20.74 25.04C20.34 25.39 20.08 25.88 20.01 26.41C19.95 26.94 20.07 27.48 20.37 27.92C20.67 28.36 21.13 28.68 21.64 28.82L21.64 31.64C21.64 32.08 21.82 32.5 22.13 32.81C22.44 33.12 22.86 33.29 23.29 33.29L24.94 33.29L24.94 37.7L23.29 37.7C22.86 37.7 22.44 37.87 22.13 38.18C21.82 38.49 21.64 38.91 21.64 39.35L21.64 42.17C21.13 42.31 20.67 42.63 20.37 43.07C20.07 43.51 19.95 44.05 20.01 44.58C20.08 45.11 20.34 45.6 20.74 45.95C21.14 46.31 21.66 46.5 22.19 46.5C22.73 46.5 23.25 46.31 23.65 45.95C24.05 45.6 24.31 45.11 24.38 44.58C24.44 44.05 24.32 43.51 24.02 43.07C23.72 42.63 23.26 42.31 22.74 42.17L22.74 39.35C22.74 39.2 22.8 39.06 22.91 38.96C23.01 38.85 23.15 38.79 23.29 38.79L24.94 38.79L24.94 41.39C24.95 41.64 25.01 41.88 25.13 42.09C25.25 42.3 25.43 42.48 25.64 42.6L33.19 47L33.19 48.7C33.19 48.84 33.14 48.98 33.03 49.08C32.93 49.19 32.79 49.25 32.64 49.25L29.82 49.25C29.68 48.73 29.36 48.27 28.92 47.97C28.48 47.67 27.94 47.55 27.41 47.61C26.88 47.68 26.39 47.94 26.04 48.34C25.68 48.74 25.49 49.26 25.49 49.79C25.49 50.33 25.68 50.85 26.04 51.25C26.39 51.65 26.88 51.91 27.41 51.98C27.94 52.04 28.48 51.92 28.92 51.62C29.36 51.32 29.68 50.86 29.82 50.35L32.64 50.35C33.08 50.35 33.5 50.17 33.81 49.86C34.12 49.55 34.29 49.13 34.29 48.7L34.29 47.64L35.8 48.51C36.01 48.63 36.25 48.69 36.49 48.69C36.74 48.69 36.98 48.63 37.19 48.51L38.69 47.63L38.69 48.7C38.69 49.13 38.87 49.55 39.18 49.86C39.49 50.17 39.91 50.35 40.34 50.35L43.17 50.35C43.31 50.86 43.63 51.32 44.07 51.62C44.51 51.92 45.05 52.04 45.58 51.98C46.11 51.91 46.6 51.65 46.95 51.25C47.31 50.85 47.5 50.33 47.5 49.79C47.5 49.26 47.31 48.74 46.95 48.34C46.6 47.94 46.11 47.68 45.58 47.61C45.05 47.55 44.51 47.67 44.07 47.97C43.63 48.27 43.31 48.73 43.17 49.25L40.34 49.25C40.2 49.25 40.06 49.19 39.96 49.08C39.85 48.98 39.79 48.84 39.79 48.7L39.79 47L47.35 42.61C47.56 42.48 47.74 42.31 47.86 42.09C47.98 41.88 48.04 41.64 48.04 41.39L48.04 38.79L49.7 38.79C49.84 38.79 49.98 38.85 50.08 38.96C50.19 39.06 50.24 39.2 50.24 39.35L50.24 42.17C49.73 42.31 49.27 42.63 48.97 43.07C48.67 43.51 48.55 44.05 48.61 44.58C48.68 45.11 48.94 45.6 49.34 45.95C49.74 46.31 50.26 46.5 50.79 46.5C51.33 46.5 51.85 46.31 52.25 45.95C52.65 45.6 52.91 45.11 52.98 44.58C53.04 44.05 52.92 43.51 52.62 43.07C52.32 42.63 51.86 42.31 51.34 42.17L51.34 39.35C51.34 38.91 51.17 38.49 50.86 38.18C50.55 37.87 50.13 37.7 49.7 37.7L48.04 37.7L48.04 33.29L49.7 33.29ZM49.7 26.7C49.7 26.48 49.76 26.26 49.88 26.08C50 25.9 50.17 25.76 50.37 25.68C50.58 25.6 50.8 25.57 51.01 25.62C51.22 25.66 51.42 25.76 51.57 25.92C51.73 26.07 51.83 26.27 51.87 26.48C51.92 26.69 51.89 26.91 51.81 27.12C51.73 27.32 51.59 27.49 51.41 27.61C51.23 27.73 51.01 27.79 50.79 27.79C50.5 27.79 50.22 27.68 50.02 27.47C49.81 27.27 49.7 26.99 49.7 26.7ZM45.29 20.1C45.51 20.1 45.73 20.16 45.91 20.28C46.09 20.4 46.23 20.57 46.31 20.77C46.39 20.98 46.42 21.2 46.37 21.41C46.33 21.62 46.23 21.82 46.07 21.97C45.92 22.13 45.72 22.23 45.51 22.27C45.3 22.32 45.08 22.29 44.87 22.21C44.67 22.13 44.5 21.99 44.38 21.81C44.26 21.63 44.2 21.41 44.2 21.2C44.2 20.9 44.31 20.62 44.52 20.42C44.72 20.21 45 20.1 45.29 20.1ZM27.69 22.29C27.48 22.29 27.26 22.23 27.08 22.11C26.9 21.99 26.76 21.82 26.68 21.62C26.6 21.41 26.57 21.19 26.62 20.98C26.66 20.77 26.76 20.57 26.92 20.42C27.07 20.26 27.27 20.16 27.48 20.12C27.69 20.07 27.91 20.1 28.12 20.18C28.32 20.26 28.49 20.4 28.61 20.58C28.73 20.76 28.79 20.98 28.79 21.2C28.79 21.49 28.68 21.77 28.47 21.97C28.27 22.18 27.99 22.29 27.69 22.29ZM21.09 26.7C21.09 26.48 21.16 26.26 21.28 26.08C21.4 25.9 21.57 25.76 21.77 25.68C21.98 25.6 22.2 25.57 22.41 25.62C22.62 25.66 22.82 25.76 22.97 25.92C23.13 26.07 23.23 26.27 23.27 26.48C23.32 26.69 23.29 26.91 23.21 27.12C23.13 27.32 22.99 27.49 22.81 27.61C22.63 27.73 22.41 27.79 22.19 27.79C21.9 27.79 21.62 27.68 21.42 27.47C21.21 27.27 21.09 26.99 21.09 26.7ZM23.29 44.29C23.29 44.51 23.23 44.73 23.11 44.91C22.99 45.09 22.82 45.23 22.62 45.31C22.41 45.39 22.19 45.42 21.98 45.37C21.77 45.33 21.57 45.23 21.42 45.07C21.26 44.92 21.16 44.72 21.12 44.51C21.07 44.3 21.1 44.08 21.18 43.87C21.26 43.67 21.4 43.5 21.58 43.38C21.76 43.26 21.98 43.2 22.19 43.2C22.49 43.2 22.77 43.31 22.97 43.52C23.18 43.72 23.29 44 23.29 44.29ZM27.69 50.89C27.48 50.89 27.26 50.83 27.08 50.71C26.9 50.59 26.76 50.42 26.68 50.22C26.6 50.02 26.57 49.79 26.62 49.58C26.66 49.37 26.76 49.17 26.92 49.02C27.07 48.86 27.27 48.76 27.48 48.72C27.69 48.67 27.91 48.7 28.12 48.78C28.32 48.86 28.49 49 28.61 49.18C28.73 49.36 28.79 49.58 28.79 49.79C28.79 50.09 28.68 50.37 28.47 50.57C28.27 50.78 27.99 50.89 27.69 50.89ZM45.29 48.7C45.51 48.7 45.73 48.76 45.91 48.88C46.09 49 46.23 49.17 46.31 49.37C46.39 49.58 46.42 49.8 46.37 50.01C46.33 50.22 46.23 50.42 46.07 50.57C45.92 50.73 45.72 50.83 45.51 50.87C45.3 50.92 45.08 50.89 44.87 50.81C44.67 50.73 44.5 50.59 44.38 50.41C44.26 50.23 44.2 50.01 44.2 49.79C44.2 49.5 44.31 49.22 44.52 49.02C44.72 48.81 45 48.7 45.29 48.7ZM46.95 41.39C46.95 41.45 46.93 41.5 46.91 41.54C46.88 41.59 46.84 41.63 46.8 41.66L36.64 47.56C36.6 47.58 36.55 47.59 36.49 47.59C36.44 47.59 36.39 47.58 36.35 47.56L26.19 41.66C26.15 41.63 26.11 41.59 26.08 41.54C26.06 41.5 26.04 41.45 26.04 41.39L26.04 29.6C26.04 29.54 26.06 29.49 26.08 29.45C26.11 29.4 26.15 29.36 26.19 29.33L36.35 23.43C36.39 23.41 36.44 23.39 36.49 23.39C36.55 23.39 36.6 23.41 36.64 23.43L46.8 29.33C46.84 29.36 46.88 29.4 46.91 29.45C46.93 29.49 46.95 29.54 46.95 29.6L46.95 41.39ZM51.89 44.29C51.89 44.51 51.83 44.73 51.71 44.91C51.59 45.09 51.42 45.23 51.22 45.31C51.01 45.39 50.79 45.42 50.58 45.37C50.37 45.33 50.17 45.23 50.02 45.07C49.86 44.92 49.76 44.72 49.72 44.51C49.67 44.3 49.7 44.08 49.78 43.87C49.86 43.67 50 43.5 50.18 43.38C50.36 43.26 50.58 43.2 50.79 43.2C51.09 43.2 51.37 43.31 51.57 43.52C51.78 43.72 51.89 44 51.89 44.29Z" fill="#D6D6D6" fill-opacity="1.000000" fill-rule="nonzero"/>
				<path id="Vector" d="M50.86 32.81C51.17 32.5 51.34 32.08 51.34 31.64L51.34 28.82C51.86 28.68 52.32 28.36 52.62 27.92C52.92 27.48 53.04 26.94 52.98 26.41C52.91 25.88 52.65 25.39 52.25 25.04C51.85 24.68 51.33 24.49 50.79 24.49C50.26 24.49 49.74 24.68 49.34 25.04C48.94 25.39 48.68 25.88 48.61 26.41C48.55 26.94 48.67 27.48 48.97 27.92C49.27 28.36 49.73 28.68 50.24 28.82L50.24 31.64C50.24 31.79 50.19 31.93 50.08 32.03C49.98 32.14 49.84 32.2 49.69 32.2L48.04 32.2L48.04 29.6C48.04 29.35 47.98 29.11 47.86 28.9C47.74 28.68 47.56 28.51 47.35 28.38L39.79 23.99L39.79 22.29C39.79 22.15 39.85 22.01 39.96 21.91C40.06 21.8 40.2 21.75 40.34 21.75L43.17 21.75C43.31 22.26 43.63 22.72 44.07 23.02C44.51 23.32 45.05 23.44 45.58 23.38C46.11 23.31 46.6 23.05 46.95 22.65C47.31 22.25 47.5 21.73 47.5 21.2C47.5 20.66 47.31 20.14 46.95 19.74C46.6 19.34 46.11 19.08 45.58 19.01C45.05 18.95 44.51 19.07 44.07 19.37C43.63 19.67 43.31 20.13 43.17 20.64L40.34 20.64C39.91 20.64 39.49 20.82 39.18 21.13C38.87 21.44 38.69 21.86 38.69 22.29L38.69 23.35L37.19 22.48C36.98 22.36 36.74 22.3 36.49 22.3C36.25 22.3 36.01 22.36 35.8 22.48L34.29 23.36L34.29 22.29C34.29 21.86 34.12 21.44 33.81 21.13C33.5 20.82 33.08 20.64 32.64 20.64L29.82 20.64C29.68 20.13 29.36 19.67 28.92 19.37C28.48 19.07 27.94 18.95 27.41 19.01C26.88 19.08 26.39 19.34 26.04 19.74C25.68 20.14 25.49 20.66 25.49 21.2C25.49 21.73 25.68 22.25 26.04 22.65C26.39 23.05 26.88 23.31 27.41 23.38C27.94 23.44 28.48 23.32 28.92 23.02C29.36 22.72 29.68 22.26 29.82 21.75L32.64 21.75C32.79 21.75 32.93 21.8 33.03 21.91C33.14 22.01 33.19 22.15 33.19 22.29L33.19 23.99L25.64 28.38C25.43 28.51 25.25 28.68 25.13 28.9C25.01 29.11 24.95 29.35 24.94 29.6L24.94 32.2L23.29 32.2C23.15 32.2 23.01 32.14 22.91 32.03C22.8 31.93 22.74 31.79 22.74 31.64L22.74 28.82C23.26 28.68 23.72 28.36 24.02 27.92C24.32 27.48 24.44 26.94 24.38 26.41C24.31 25.88 24.05 25.39 23.65 25.04C23.25 24.68 22.73 24.49 22.19 24.49C21.66 24.49 21.14 24.68 20.74 25.04C20.34 25.39 20.08 25.88 20.01 26.41C19.95 26.94 20.07 27.48 20.37 27.92C20.67 28.36 21.13 28.68 21.64 28.82L21.64 31.64C21.64 32.08 21.82 32.5 22.13 32.81C22.44 33.12 22.86 33.29 23.29 33.29L24.94 33.29L24.94 37.7L23.29 37.7C22.86 37.7 22.44 37.87 22.13 38.18C21.82 38.49 21.64 38.91 21.64 39.35L21.64 42.17C21.13 42.31 20.67 42.63 20.37 43.07C20.07 43.51 19.95 44.05 20.01 44.58C20.08 45.11 20.34 45.6 20.74 45.95C21.14 46.31 21.66 46.5 22.19 46.5C22.73 46.5 23.25 46.31 23.65 45.95C24.05 45.6 24.31 45.11 24.38 44.58C24.44 44.05 24.32 43.51 24.02 43.07C23.72 42.63 23.26 42.31 22.74 42.17L22.74 39.35C22.74 39.2 22.8 39.06 22.91 38.96C23.01 38.85 23.15 38.79 23.29 38.79L24.94 38.79L24.94 41.39C24.95 41.64 25.01 41.88 25.13 42.09C25.25 42.3 25.43 42.48 25.64 42.6L33.19 47L33.19 48.7C33.19 48.84 33.14 48.98 33.03 49.08C32.93 49.19 32.79 49.25 32.64 49.25L29.82 49.25C29.68 48.73 29.36 48.27 28.92 47.97C28.48 47.67 27.94 47.55 27.41 47.61C26.88 47.68 26.39 47.94 26.04 48.34C25.68 48.74 25.49 49.26 25.49 49.79C25.49 50.33 25.68 50.85 26.04 51.25C26.39 51.65 26.88 51.91 27.41 51.98C27.94 52.04 28.48 51.92 28.92 51.62C29.36 51.32 29.68 50.86 29.82 50.35L32.64 50.35C33.08 50.35 33.5 50.17 33.81 49.86C34.12 49.55 34.29 49.13 34.29 48.7L34.29 47.64L35.8 48.51C36.01 48.63 36.25 48.69 36.49 48.69C36.74 48.69 36.98 48.63 37.19 48.51L38.69 47.63L38.69 48.7C38.69 49.13 38.87 49.55 39.18 49.86C39.49 50.17 39.91 50.35 40.34 50.35L43.17 50.35C43.31 50.86 43.63 51.32 44.07 51.62C44.51 51.92 45.05 52.04 45.58 51.98C46.11 51.91 46.6 51.65 46.95 51.25C47.31 50.85 47.5 50.33 47.5 49.79C47.5 49.26 47.31 48.74 46.95 48.34C46.6 47.94 46.11 47.68 45.58 47.61C45.05 47.55 44.51 47.67 44.07 47.97C43.63 48.27 43.31 48.73 43.17 49.25L40.34 49.25C40.2 49.25 40.06 49.19 39.96 49.08C39.85 48.98 39.79 48.84 39.79 48.7L39.79 47L47.35 42.61C47.56 42.48 47.74 42.31 47.86 42.09C47.98 41.88 48.04 41.64 48.04 41.39L48.04 38.79L49.69 38.79C49.84 38.79 49.98 38.85 50.08 38.96C50.19 39.06 50.24 39.2 50.24 39.35L50.24 42.17C49.73 42.31 49.27 42.63 48.97 43.07C48.67 43.51 48.55 44.05 48.61 44.58C48.68 45.11 48.94 45.6 49.34 45.95C49.74 46.31 50.26 46.5 50.79 46.5C51.33 46.5 51.85 46.31 52.25 45.95C52.65 45.6 52.91 45.11 52.98 44.58C53.04 44.05 52.92 43.51 52.62 43.07C52.32 42.63 51.86 42.31 51.34 42.17L51.34 39.35C51.34 38.91 51.17 38.49 50.86 38.18C50.55 37.87 50.13 37.7 49.69 37.7L48.04 37.7L48.04 33.29L49.69 33.29C50.13 33.29 50.55 33.12 50.86 32.81ZM49.88 26.08C50 25.9 50.17 25.76 50.37 25.68C50.58 25.6 50.8 25.57 51.01 25.62C51.22 25.66 51.42 25.76 51.57 25.92C51.73 26.07 51.83 26.27 51.87 26.48C51.92 26.69 51.89 26.91 51.81 27.12C51.73 27.32 51.59 27.49 51.41 27.61C51.23 27.73 51.01 27.79 50.79 27.79C50.5 27.79 50.22 27.68 50.02 27.47C49.81 27.27 49.69 26.99 49.69 26.7C49.69 26.48 49.76 26.26 49.88 26.08ZM45.91 20.28C46.09 20.4 46.23 20.57 46.31 20.77C46.39 20.98 46.42 21.2 46.37 21.41C46.33 21.62 46.23 21.82 46.07 21.97C45.92 22.13 45.72 22.23 45.51 22.27C45.3 22.32 45.08 22.29 44.87 22.21C44.67 22.13 44.5 21.99 44.38 21.81C44.26 21.63 44.19 21.41 44.19 21.2C44.19 20.9 44.31 20.62 44.52 20.42C44.72 20.21 45 20.1 45.29 20.1C45.51 20.1 45.73 20.16 45.91 20.28ZM27.08 22.11C26.9 21.99 26.76 21.82 26.68 21.62C26.6 21.41 26.57 21.19 26.62 20.98C26.66 20.77 26.76 20.57 26.92 20.42C27.07 20.26 27.27 20.16 27.48 20.12C27.69 20.07 27.91 20.1 28.12 20.18C28.32 20.26 28.49 20.4 28.61 20.58C28.73 20.76 28.79 20.98 28.79 21.2C28.79 21.49 28.68 21.77 28.47 21.97C28.27 22.18 27.99 22.29 27.69 22.29C27.48 22.29 27.26 22.23 27.08 22.11ZM21.28 26.08C21.4 25.9 21.57 25.76 21.77 25.68C21.98 25.6 22.2 25.57 22.41 25.62C22.62 25.66 22.82 25.76 22.97 25.92C23.13 26.07 23.23 26.27 23.27 26.48C23.32 26.69 23.29 26.91 23.21 27.12C23.13 27.32 22.99 27.49 22.81 27.61C22.63 27.73 22.41 27.79 22.19 27.79C21.9 27.79 21.62 27.68 21.42 27.47C21.21 27.27 21.09 26.99 21.09 26.7C21.09 26.48 21.16 26.26 21.28 26.08ZM23.11 44.91C22.99 45.09 22.82 45.23 22.62 45.31C22.41 45.39 22.19 45.42 21.98 45.37C21.77 45.33 21.57 45.23 21.42 45.07C21.26 44.92 21.16 44.72 21.12 44.51C21.07 44.3 21.1 44.08 21.18 43.87C21.26 43.67 21.4 43.5 21.58 43.38C21.76 43.26 21.98 43.2 22.19 43.2C22.49 43.2 22.77 43.31 22.97 43.52C23.18 43.72 23.29 44 23.29 44.29C23.29 44.51 23.23 44.73 23.11 44.91ZM27.08 50.71C26.9 50.59 26.76 50.42 26.68 50.22C26.6 50.02 26.57 49.79 26.62 49.58C26.66 49.37 26.76 49.17 26.92 49.02C27.07 48.86 27.27 48.76 27.48 48.72C27.69 48.67 27.91 48.7 28.12 48.78C28.32 48.86 28.49 49 28.61 49.18C28.73 49.36 28.79 49.58 28.79 49.79C28.79 50.09 28.68 50.37 28.47 50.57C28.27 50.78 27.99 50.89 27.69 50.89C27.48 50.89 27.26 50.83 27.08 50.71ZM45.91 48.88C46.09 49 46.23 49.17 46.31 49.37C46.39 49.58 46.42 49.8 46.37 50.01C46.33 50.22 46.23 50.42 46.07 50.57C45.92 50.73 45.72 50.83 45.51 50.87C45.3 50.92 45.08 50.89 44.87 50.81C44.67 50.73 44.5 50.59 44.38 50.41C44.26 50.23 44.19 50.01 44.19 49.79C44.19 49.5 44.31 49.22 44.52 49.02C44.72 48.81 45 48.7 45.29 48.7C45.51 48.7 45.73 48.76 45.91 48.88ZM46.91 41.54C46.88 41.59 46.84 41.63 46.8 41.66L36.64 47.56C36.6 47.58 36.55 47.59 36.49 47.59C36.44 47.59 36.39 47.58 36.35 47.56L26.19 41.66C26.15 41.63 26.11 41.59 26.08 41.54C26.06 41.5 26.04 41.45 26.04 41.39L26.04 29.6C26.04 29.54 26.06 29.49 26.08 29.45C26.11 29.4 26.15 29.36 26.19 29.33L36.35 23.43C36.39 23.41 36.44 23.39 36.49 23.39C36.55 23.39 36.6 23.41 36.64 23.43L46.8 29.33C46.84 29.36 46.88 29.4 46.91 29.45C46.93 29.49 46.95 29.54 46.94 29.6L46.94 41.39C46.95 41.45 46.93 41.5 46.91 41.54ZM51.71 44.91C51.59 45.09 51.42 45.23 51.22 45.31C51.01 45.39 50.79 45.42 50.58 45.37C50.37 45.33 50.17 45.23 50.02 45.07C49.86 44.92 49.76 44.72 49.72 44.51C49.67 44.3 49.7 44.08 49.78 43.87C49.86 43.67 50 43.5 50.18 43.38C50.36 43.26 50.58 43.2 50.79 43.2C51.09 43.2 51.37 43.31 51.57 43.52C51.78 43.72 51.89 44 51.89 44.29C51.89 44.51 51.83 44.73 51.71 44.91Z" stroke="#2C3941" stroke-opacity="1.000000" stroke-width="0.400000"/>
			</g>
		</g>
		<rect id="Frame" rx="18.119318" width="59.472706" height="59.596462" transform="translate(6.380621 5.880682)" stroke="#494949" stroke-opacity="1.000000" stroke-width="1.761364"/>
	</g>
</svg>
