<svg width="61.234070" height="61.357910" viewBox="0 0 61.2341 61.3579" fill="none" xmlns="http://www.w3.org/2000/svg" xmlns:xlink="http://www.w3.org/1999/xlink">
	<desc>
			Created with Pixso.
	</desc>
	<defs>
		<filter id="filter_52_296_dd" x="0.000000" y="0.000000" width="61.234070" height="61.357910" filterUnits="userSpaceOnUse" color-interpolation-filters="sRGB">
			<feFlood flood-opacity="0" result="BackgroundImageFix"/>
			<feGaussianBlur in="BackgroundImage" stdDeviation="8"/>
			<feComposite in2="SourceAlpha" operator="in" result="effect_backgroundBlur_1"/>
			<feBlend mode="normal" in="SourceGraphic" in2="effect_backgroundBlur_1" result="shape"/>
			<feColorMatrix in="SourceAlpha" type="matrix" values="0 0 0 0 0 0 0 0 0 0 0 0 0 0 0 0 0 0 127 0" result="hardAlpha"/>
			<feOffset dx="0" dy="0"/>
			<feGaussianBlur stdDeviation="3.33333"/>
			<feComposite in2="hardAlpha" operator="arithmetic" k2="-1" k3="1"/>
			<feColorMatrix type="matrix" values="0 0 0 0 0.40392 0 0 0 0 0.40392 0 0 0 0 0.40392 0 0 0 0.7 0"/>
			<feBlend mode="normal" in2="shape" result="effect_innerShadow_2"/>
		</filter>
		<clipPath id="clip52_298">
			<rect id="Frame" rx="-0.500000" width="32.000000" height="32.000000" transform="translate(15.000000 14.500000)" fill="white" fill-opacity="0"/>
		</clipPath>
		<radialGradient gradientTransform="translate(30.617 30.6789) rotate(180) scale(30.6789 30.617)" cx="0.000000" cy="0.000000" r="1.000000" id="paint_radial_52_296_0" gradientUnits="userSpaceOnUse">
			<stop stop-color="#5C2829"/>
			<stop offset="1.000000" stop-color="#16171B"/>
		</radialGradient>
	</defs>
	<g filter="url(#filter_52_296_dd)">
		<rect id="Frame" rx="18.119318" width="59.472706" height="59.596462" transform="translate(0.880682 0.880682)" fill="url(#paint_radial_52_296_0)" fill-opacity="0.800000"/>
		<rect id="Frame" rx="-0.500000" width="32.000000" height="32.000000" transform="translate(15.000000 14.500000)" fill="#FFFFFF" fill-opacity="0"/>
		<g clip-path="url(#clip52_298)">
			<path id="Vector" d="M44.85 22.55C44.53 22.86 44.2 23.12 43.86 23.32L38.23 17.7C38.43 17.35 38.69 17.02 39.01 16.71C39.61 16.1 39.61 15.12 39.01 14.51C38.4 13.91 37.42 13.91 36.81 14.51C34.3 17.03 34.26 20.07 34.7 22.82C31.5 22.16 27.96 21.88 25.14 24.7C23.87 25.98 23.13 27.48 22.9 29.29C22.88 29.41 22.92 29.54 23 29.64C23.07 29.75 23.19 29.81 23.32 29.83C23.58 29.86 23.82 29.68 23.86 29.41C24.06 27.82 24.71 26.51 25.83 25.39C28.43 22.79 31.71 23.16 34.89 23.85C34.98 24.33 35.06 24.7 35.16 25.11C32 24.39 28.95 23.88 26.65 26.22C21.5 31.37 30.25 40.17 24.49 45.92C24.27 46.15 23.9 46.15 23.67 45.92C23.44 45.69 23.44 45.32 23.67 45.09C27.32 41.45 24.06 36.2 23.8 31.19C23.79 30.92 23.56 30.71 23.29 30.73C23.16 30.73 23.04 30.79 22.96 30.89C22.87 30.98 22.83 31.11 22.83 31.24C22.89 32.28 23.06 33.32 23.26 34.26C20.51 33.82 17.47 33.86 14.95 36.38C14.34 36.98 14.34 37.96 14.95 38.57C15.56 39.18 16.54 39.18 17.14 38.57C17.46 38.25 17.79 38 18.14 37.79L23.76 43.42C23.56 43.77 23.3 44.09 22.98 44.41C22.38 45.01 22.38 46 22.98 46.6C23.59 47.21 24.57 47.21 25.18 46.6C27.7 44.09 27.73 41.04 27.29 38.3C30.94 39.05 34.21 39.06 36.85 36.41C39.67 33.59 39.39 30.05 38.73 26.85C39.65 27 40.57 27.09 41.5 27.06C41.63 27.06 41.75 27 41.84 26.91C41.93 26.81 41.97 26.69 41.97 26.56C41.96 26.29 41.74 26.08 41.47 26.09C40.6 26.12 39.66 26.04 38.51 25.84C38.42 25.43 38.33 25.04 38.22 24.6C40.91 25.14 43.46 25.3 45.53 23.23C45.76 23 46.13 23 46.36 23.23C46.41 23.29 46.45 23.35 46.48 23.42C46.51 23.49 46.53 23.57 46.53 23.64C46.53 23.72 46.51 23.8 46.48 23.87C46.45 23.94 46.41 24 46.36 24.06C45.45 24.96 44.43 25.55 43.23 25.85C43.11 25.89 43 25.97 42.93 26.08C42.87 26.19 42.85 26.32 42.88 26.44C42.91 26.57 42.99 26.67 43.1 26.74C43.21 26.8 43.34 26.82 43.47 26.79C44.84 26.44 46.01 25.77 47.04 24.74C47.33 24.45 47.5 24.06 47.5 23.64C47.5 22.27 45.82 21.58 44.85 22.55L44.85 22.55ZM16.46 37.89C16.41 37.94 16.34 37.98 16.27 38.01C16.2 38.04 16.12 38.06 16.05 38.06C15.97 38.06 15.89 38.04 15.82 38.01C15.75 37.98 15.69 37.94 15.63 37.89C15.58 37.83 15.54 37.77 15.51 37.7C15.48 37.63 15.46 37.55 15.46 37.47C15.46 37.4 15.48 37.32 15.51 37.25C15.54 37.18 15.58 37.12 15.63 37.06C17.2 35.49 19.04 35.02 20.87 35.02C21.75 35.02 22.63 35.13 23.48 35.28C23.57 35.69 23.67 36.09 23.77 36.52C21.08 35.98 18.53 35.82 16.46 37.89ZM19.09 37.38C20.4 36.97 21.97 37.13 24 37.56C24.43 39.58 24.58 41.15 24.18 42.47L19.09 37.38ZM26.59 34.96C26.22 33.37 25.9 31.88 25.91 30.54L31.02 35.64C29.67 35.66 28.19 35.33 26.59 34.96ZM32.26 35.52L26.04 29.3C26.19 28.56 26.5 27.88 27.01 27.26L34.3 34.54C33.67 35.06 32.99 35.36 32.26 35.52ZM34.98 33.86L27.69 26.57C28.32 26.06 29 25.75 29.73 25.6L35.95 31.82C35.8 32.56 35.5 33.24 34.98 33.86L34.98 33.86ZM35.4 26.15C35.77 27.75 36.09 29.24 36.08 30.58L30.97 25.47C32.32 25.46 33.81 25.79 35.4 26.15ZM36.16 35.73C33.56 38.33 30.28 37.95 27.11 37.27C27.04 36.93 26.96 36.58 26.83 36.01C30.03 36.74 33.02 37.22 35.34 34.9C40.45 29.79 31.78 20.92 37.5 15.2C37.73 14.97 38.09 14.97 38.32 15.2C38.55 15.42 38.55 15.8 38.32 16.02C33.18 21.16 41.92 29.98 36.16 35.73ZM37.99 23.56C37.56 21.53 37.41 19.96 37.81 18.65L42.9 23.74C41.59 24.15 40.02 23.99 37.99 23.56Z" fill="#D6D6D6" fill-opacity="1.000000" fill-rule="nonzero"/>
		</g>
	</g>
	<rect id="Frame" rx="18.119318" width="59.472706" height="59.596462" transform="translate(0.880682 0.880682)" stroke="#494949" stroke-opacity="1.000000" stroke-width="1.761364"/>
</svg>
