<svg width="61.234070" height="61.357910" viewBox="0 0 61.2341 61.3579" fill="none" xmlns="http://www.w3.org/2000/svg" xmlns:xlink="http://www.w3.org/1999/xlink">
	<desc>
			Created with Pixso.
	</desc>
	<defs>
		<filter id="filter_52_321_dd" x="0.000000" y="0.000000" width="61.234070" height="61.357910" filterUnits="userSpaceOnUse" color-interpolation-filters="sRGB">
			<feFlood flood-opacity="0" result="BackgroundImageFix"/>
			<feGaussianBlur in="BackgroundImage" stdDeviation="8"/>
			<feComposite in2="SourceAlpha" operator="in" result="effect_backgroundBlur_1"/>
			<feBlend mode="normal" in="SourceGraphic" in2="effect_backgroundBlur_1" result="shape"/>
			<feColorMatrix in="SourceAlpha" type="matrix" values="0 0 0 0 0 0 0 0 0 0 0 0 0 0 0 0 0 0 127 0" result="hardAlpha"/>
			<feOffset dx="0" dy="0"/>
			<feGaussianBlur stdDeviation="3.33333"/>
			<feComposite in2="hardAlpha" operator="arithmetic" k2="-1" k3="1"/>
			<feColorMatrix type="matrix" values="0 0 0 0 0.40392 0 0 0 0 0.40392 0 0 0 0 0.40392 0 0 0 0.7 0"/>
			<feBlend mode="normal" in2="shape" result="effect_innerShadow_2"/>
		</filter>
		<clipPath id="clip52_323">
			<rect id="Frame" rx="-0.500000" width="32.000000" height="32.000000" transform="translate(15.000000 14.500000)" fill="white" fill-opacity="0"/>
		</clipPath>
		<radialGradient gradientTransform="translate(30.617 30.6789) rotate(180) scale(30.6789 30.617)" cx="0.000000" cy="0.000000" r="1.000000" id="paint_radial_52_321_0" gradientUnits="userSpaceOnUse">
			<stop stop-color="#5C2829"/>
			<stop offset="1.000000" stop-color="#16171B"/>
		</radialGradient>
	</defs>
	<g filter="url(#filter_52_321_dd)">
		<rect id="Frame" rx="18.119318" width="59.472706" height="59.596462" transform="translate(0.880682 0.880682)" fill="url(#paint_radial_52_321_0)" fill-opacity="0.800000"/>
		<rect id="Frame" rx="-0.500000" width="32.000000" height="32.000000" transform="translate(15.000000 14.500000)" fill="#FFFFFF" fill-opacity="0"/>
		<g clip-path="url(#clip52_323)">
			<path id="Vector" d="M42.95 31.01C43.16 31.61 43.73 32.04 44.4 32.04C45.25 32.04 45.95 31.35 45.95 30.5C45.95 29.64 45.25 28.95 44.4 28.95C43.73 28.95 43.16 29.38 42.95 29.98L40.79 29.98L40.79 26.37L44.4 26.37C44.68 26.37 44.92 26.14 44.92 25.85L44.92 22.15C45.52 21.94 45.95 21.37 45.95 20.7C45.95 19.85 45.25 19.15 44.4 19.15C43.55 19.15 42.85 19.85 42.85 20.7C42.85 21.37 43.29 21.94 43.89 22.15L43.89 25.34L40.79 25.34L40.79 23.28C40.79 21.85 39.64 20.7 38.21 20.7L36.15 20.7L36.15 17.6L39.34 17.6C39.55 18.2 40.12 18.64 40.79 18.64C41.64 18.64 42.34 17.94 42.34 17.09C42.34 16.24 41.64 15.54 40.79 15.54C40.12 15.54 39.55 15.98 39.34 16.57L35.64 16.57C35.35 16.57 35.12 16.81 35.12 17.09L35.12 20.7L31.51 20.7L31.51 18.54C32.11 18.33 32.54 17.76 32.54 17.09C32.54 16.24 31.85 15.54 31 15.54C30.14 15.54 29.45 16.24 29.45 17.09C29.45 17.76 29.88 18.33 30.48 18.54L30.48 20.7L26.87 20.7L26.87 17.09C26.87 16.81 26.64 16.57 26.35 16.57L22.65 16.57C22.55 16.27 22.35 16.01 22.09 15.83C21.83 15.64 21.52 15.54 21.2 15.54C20.35 15.54 19.65 16.24 19.65 17.09C19.65 17.94 20.35 18.64 21.2 18.64C21.87 18.64 22.44 18.2 22.65 17.6L25.84 17.6L25.84 20.7L23.78 20.7C22.35 20.7 21.2 21.85 21.2 23.28L21.2 25.34L18.1 25.34L18.1 22.15C18.7 21.94 19.14 21.37 19.14 20.7C19.14 19.85 18.44 19.15 17.59 19.15C16.74 19.15 16.04 19.85 16.04 20.7C16.04 21.37 16.48 21.94 17.07 22.15L17.07 25.85C17.07 26.14 17.31 26.37 17.59 26.37L21.2 26.37L21.2 29.98L19.04 29.98C18.94 29.68 18.74 29.42 18.48 29.23C18.22 29.05 17.91 28.95 17.59 28.95C16.74 28.95 16.04 29.64 16.04 30.5C16.04 31.35 16.74 32.04 17.59 32.04C18.26 32.04 18.83 31.61 19.04 31.01L21.2 31.01L21.2 34.62L17.59 34.62C17.31 34.62 17.07 34.85 17.07 35.14L17.07 38.84C16.48 39.05 16.04 39.62 16.04 40.29C16.04 41.14 16.74 41.84 17.59 41.84C18.44 41.84 19.14 41.14 19.14 40.29C19.14 39.62 18.7 39.05 18.1 38.84L18.1 35.65L21.2 35.65L21.2 37.71C21.2 39.14 22.35 40.29 23.78 40.29L25.84 40.29L25.84 43.39L22.65 43.39C22.55 43.08 22.35 42.82 22.09 42.64C21.83 42.45 21.52 42.35 21.2 42.35C20.35 42.35 19.65 43.05 19.65 43.9C19.65 44.75 20.35 45.45 21.2 45.45C21.87 45.45 22.44 45.02 22.65 44.42L26.35 44.42C26.64 44.42 26.87 44.18 26.87 43.9L26.87 40.29L30.48 40.29L30.48 42.45C29.88 42.66 29.45 43.23 29.45 43.9C29.45 44.75 30.14 45.45 31 45.45C31.85 45.45 32.54 44.75 32.54 43.9C32.54 43.23 32.11 42.66 31.51 42.45L31.51 40.29L35.12 40.29L35.12 43.9C35.12 44.18 35.35 44.42 35.64 44.42L39.34 44.42C39.55 45.02 40.12 45.45 40.79 45.45C41.64 45.45 42.34 44.75 42.34 43.9C42.34 43.05 41.64 42.35 40.79 42.35C40.12 42.35 39.55 42.79 39.34 43.39L36.15 43.39L36.15 40.29L38.21 40.29C39.64 40.29 40.79 39.14 40.79 37.71L40.79 35.65L43.89 35.65L43.89 38.84C43.29 39.05 42.85 39.62 42.85 40.29C42.85 41.14 43.55 41.84 44.4 41.84C45.25 41.84 45.95 41.14 45.95 40.29C45.95 39.62 45.52 39.05 44.92 38.84L44.92 35.14C44.92 34.85 44.68 34.62 44.4 34.62L40.79 34.62L40.79 31.01L42.95 31.01ZM44.4 29.98C44.68 29.98 44.92 30.21 44.92 30.5C44.92 30.78 44.68 31.01 44.4 31.01C44.12 31.01 43.89 30.78 43.89 30.5C43.89 30.21 44.12 29.98 44.4 29.98ZM44.4 20.18C44.68 20.18 44.92 20.41 44.92 20.7C44.92 20.98 44.68 21.21 44.4 21.21C44.12 21.21 43.89 20.98 43.89 20.7C43.89 20.41 44.12 20.18 44.4 20.18ZM40.79 16.57C41.08 16.57 41.31 16.81 41.31 17.09C41.31 17.37 41.08 17.6 40.79 17.6C40.51 17.6 40.28 17.37 40.28 17.09C40.28 16.81 40.51 16.57 40.79 16.57ZM31 16.57C31.28 16.57 31.51 16.81 31.51 17.09C31.51 17.37 31.28 17.6 31 17.6C30.71 17.6 30.48 17.37 30.48 17.09C30.48 16.81 30.71 16.57 31 16.57ZM21.2 17.6C20.91 17.6 20.68 17.37 20.68 17.09C20.68 16.81 20.91 16.57 21.2 16.57C21.48 16.57 21.71 16.81 21.71 17.09C21.71 17.37 21.48 17.6 21.2 17.6ZM17.59 20.18C17.87 20.18 18.1 20.41 18.1 20.7C18.1 20.98 17.87 21.21 17.59 21.21C17.31 21.21 17.07 20.98 17.07 20.7C17.07 20.41 17.31 20.18 17.59 20.18ZM17.59 31.01C17.31 31.01 17.07 30.78 17.07 30.5C17.07 30.21 17.31 29.98 17.59 29.98C17.87 29.98 18.1 30.21 18.1 30.5C18.1 30.78 17.87 31.01 17.59 31.01ZM17.59 40.81C17.31 40.81 17.07 40.58 17.07 40.29C17.07 40.01 17.31 39.78 17.59 39.78C17.87 39.78 18.1 40.01 18.1 40.29C18.1 40.58 17.87 40.81 17.59 40.81ZM21.2 44.42C20.91 44.42 20.68 44.18 20.68 43.9C20.68 43.62 20.91 43.39 21.2 43.39C21.48 43.39 21.71 43.62 21.71 43.9C21.71 44.18 21.48 44.42 21.2 44.42ZM31 44.42C30.71 44.42 30.48 44.18 30.48 43.9C30.48 43.62 30.71 43.39 31 43.39C31.28 43.39 31.51 43.62 31.51 43.9C31.51 44.18 31.28 44.42 31 44.42ZM40.79 43.39C41.08 43.39 41.31 43.62 41.31 43.9C41.31 44.18 41.08 44.42 40.79 44.42C40.51 44.42 40.28 44.18 40.28 43.9C40.28 43.62 40.51 43.39 40.79 43.39ZM44.4 40.81C44.12 40.81 43.89 40.58 43.89 40.29C43.89 40.01 44.12 39.78 44.4 39.78C44.68 39.78 44.92 40.01 44.92 40.29C44.92 40.58 44.68 40.81 44.4 40.81ZM39.76 37.71C39.76 38.56 39.06 39.26 38.21 39.26L23.78 39.26C22.93 39.26 22.23 38.56 22.23 37.71L22.23 23.28C22.23 22.43 22.93 21.73 23.78 21.73L38.21 21.73C39.06 21.73 39.76 22.43 39.76 23.28L39.76 37.71Z" fill="#D6D6D6" fill-opacity="1.000000" fill-rule="nonzero"/>
			<path id="Vector" d="M34.68 23.83C33.27 23.63 31.93 24.25 30.99 25.51C30.06 24.25 28.72 23.63 27.31 23.83C25.61 24.09 24.24 25.47 23.87 27.29C23.57 28.84 23.63 32.89 30.73 37.13C30.81 37.17 30.9 37.2 30.99 37.2C31.09 37.2 31.18 37.17 31.26 37.13C38.37 32.89 38.43 28.84 38.12 27.29C37.75 25.47 36.38 24.08 34.68 23.83ZM30.99 36.08C26.63 33.41 24.34 30.22 24.88 27.49C25.16 26.1 26.19 25.04 27.46 24.85C27.59 24.83 27.72 24.82 27.84 24.82C28.92 24.82 29.89 25.5 30.54 26.72C30.72 27.06 31.27 27.06 31.45 26.72C32.18 25.35 33.3 24.67 34.53 24.85C35.8 25.03 36.83 26.1 37.11 27.49C37.64 30.21 35.36 33.4 30.99 36.08L30.99 36.08Z" fill="#D6D6D6" fill-opacity="1.000000" fill-rule="nonzero"/>
			<path id="Vector" d="M35.12 29.98L34.37 29.98L33.49 28.66C33.44 28.59 33.38 28.53 33.3 28.49C33.22 28.45 33.13 28.43 33.04 28.44C32.86 28.44 32.7 28.54 32.61 28.7L31.03 31.47L29.4 28.21C29.36 28.12 29.29 28.05 29.21 28C29.13 27.95 29.04 27.92 28.94 27.92C28.75 27.95 28.57 28.03 28.48 28.2L27.57 29.98L26.88 29.98C26.59 29.98 26.36 30.22 26.36 30.5C26.36 30.78 26.59 31.02 26.88 31.02L27.89 31.02C28.08 31.02 28.26 30.91 28.34 30.74L28.93 29.58L30.54 32.79C30.63 32.97 30.8 33.07 30.99 33.08L31.01 33.08C31.19 33.08 31.36 32.98 31.45 32.82L33.1 29.93L33.67 30.78C33.77 30.93 33.93 31.02 34.1 31.02L35.13 31.02C35.41 31.02 35.65 30.78 35.65 30.5C35.65 30.22 35.41 29.98 35.13 29.98L35.12 29.98Z" fill="#D6D6D6" fill-opacity="1.000000" fill-rule="nonzero"/>
		</g>
	</g>
	<rect id="Frame" rx="18.119318" width="59.472706" height="59.596462" transform="translate(0.880682 0.880682)" stroke="#494949" stroke-opacity="1.000000" stroke-width="1.761364"/>
</svg>
