<svg width="61.234070" height="61.357910" viewBox="0 0 61.2341 61.3579" fill="none" xmlns="http://www.w3.org/2000/svg" xmlns:xlink="http://www.w3.org/1999/xlink">
	<desc>
			Created with Pixso.
	</desc>
	<defs>
		<filter id="filter_52_306_dd" x="0.000000" y="0.000000" width="61.234070" height="61.357910" filterUnits="userSpaceOnUse" color-interpolation-filters="sRGB">
			<feFlood flood-opacity="0" result="BackgroundImageFix"/>
			<feGaussianBlur in="BackgroundImage" stdDeviation="8"/>
			<feComposite in2="SourceAlpha" operator="in" result="effect_backgroundBlur_1"/>
			<feBlend mode="normal" in="SourceGraphic" in2="effect_backgroundBlur_1" result="shape"/>
			<feColorMatrix in="SourceAlpha" type="matrix" values="0 0 0 0 0 0 0 0 0 0 0 0 0 0 0 0 0 0 127 0" result="hardAlpha"/>
			<feOffset dx="0" dy="0"/>
			<feGaussianBlur stdDeviation="3.33333"/>
			<feComposite in2="hardAlpha" operator="arithmetic" k2="-1" k3="1"/>
			<feColorMatrix type="matrix" values="0 0 0 0 0.40392 0 0 0 0 0.40392 0 0 0 0 0.40392 0 0 0 0.7 0"/>
			<feBlend mode="normal" in2="shape" result="effect_innerShadow_2"/>
		</filter>
		<clipPath id="clip52_308">
			<rect id="Frame" rx="-0.500000" width="32.000000" height="32.000000" transform="translate(15.000000 14.500000)" fill="white" fill-opacity="0"/>
		</clipPath>
		<radialGradient gradientTransform="translate(30.617 30.6789) rotate(180) scale(30.6789 30.617)" cx="0.000000" cy="0.000000" r="1.000000" id="paint_radial_52_306_0" gradientUnits="userSpaceOnUse">
			<stop stop-color="#5C2829"/>
			<stop offset="1.000000" stop-color="#16171B"/>
		</radialGradient>
	</defs>
	<g filter="url(#filter_52_306_dd)">
		<rect id="Frame" rx="18.119318" width="59.472706" height="59.596462" transform="translate(0.880682 0.880682)" fill="url(#paint_radial_52_306_0)" fill-opacity="0.800000"/>
		<rect id="Frame" rx="-0.500000" width="32.000000" height="32.000000" transform="translate(15.000000 14.500000)" fill="#FFFFFF" fill-opacity="0"/>
		<g clip-path="url(#clip52_308)">
			<path id="Vector" d="M31 20.18C28.96 20.18 26.96 20.79 25.27 21.92C23.57 23.05 22.25 24.66 21.47 26.55C20.69 28.43 20.48 30.51 20.88 32.51C21.28 34.51 22.26 36.34 23.7 37.79C25.15 39.23 26.98 40.21 28.98 40.61C30.98 41.01 33.06 40.8 34.94 40.02C36.83 39.24 38.44 37.92 39.57 36.22C40.7 34.53 41.31 32.53 41.31 30.5C41.31 27.76 40.22 25.14 38.29 23.2C36.35 21.27 33.73 20.18 31 20.18ZM31 39.78C29.16 39.78 27.36 39.23 25.84 38.21C24.31 37.19 23.12 35.74 22.42 34.05C21.72 32.35 21.53 30.48 21.89 28.68C22.25 26.88 23.13 25.23 24.43 23.93C25.73 22.63 27.38 21.75 29.18 21.39C30.98 21.03 32.85 21.22 34.55 21.92C36.24 22.62 37.69 23.81 38.71 25.34C39.73 26.86 40.28 28.66 40.28 30.5C40.28 32.96 39.3 35.32 37.56 37.06C35.82 38.8 33.46 39.78 31 39.78Z" fill="#D6D6D6" fill-opacity="1.000000" fill-rule="nonzero"/>
			<path id="Vector" d="M36.42 26.4L31.78 23.66C31.55 23.52 31.27 23.44 31 23.44C30.72 23.44 30.44 23.52 30.21 23.66L25.57 26.4C25.33 26.54 25.14 26.73 25.01 26.97C24.88 27.2 24.81 27.46 24.81 27.73L24.81 33.26C24.81 33.53 24.88 33.79 25.01 34.02C25.14 34.26 25.33 34.45 25.57 34.59L30.21 37.33C30.44 37.47 30.72 37.55 31 37.55C31.27 37.55 31.55 37.47 31.78 37.33L36.42 34.59C36.66 34.45 36.85 34.26 36.98 34.02C37.11 33.79 37.18 33.53 37.18 33.26L37.18 27.73C37.18 27.46 37.11 27.2 36.98 26.97C36.85 26.73 36.66 26.54 36.42 26.4ZM36.15 33.26C36.15 33.35 36.13 33.44 36.08 33.51C36.04 33.59 35.98 33.66 35.9 33.7L31.26 36.45C31.18 36.49 31.09 36.51 31 36.51C30.91 36.51 30.82 36.49 30.74 36.45L26.1 33.7C26.02 33.66 25.96 33.59 25.92 33.51C25.87 33.44 25.85 33.35 25.85 33.26L25.85 27.73C25.85 27.64 25.87 27.55 25.92 27.48C25.96 27.4 26.02 27.33 26.1 27.29L30.74 24.54C30.82 24.5 30.91 24.48 31 24.48C31.09 24.48 31.18 24.5 31.26 24.54L35.9 27.29C35.98 27.33 36.04 27.4 36.08 27.48C36.13 27.55 36.15 27.64 36.15 27.73L36.15 33.26Z" fill="#D6D6D6" fill-opacity="1.000000" fill-rule="nonzero"/>
			<path id="Vector" d="M31 26.89C30.28 26.89 29.58 27.1 28.99 27.49C28.4 27.89 27.93 28.45 27.66 29.11C27.39 29.77 27.32 30.5 27.46 31.2C27.59 31.9 27.94 32.54 28.44 33.05C28.95 33.55 29.59 33.9 30.29 34.04C30.99 34.17 31.72 34.1 32.38 33.83C33.04 33.56 33.6 33.09 34 32.5C34.39 31.91 34.6 31.21 34.6 30.5C34.6 29.54 34.22 28.62 33.55 27.94C32.87 27.27 31.95 26.89 31 26.89ZM31 33.07C30.49 33.07 29.99 32.92 29.56 32.64C29.14 32.36 28.81 31.95 28.61 31.48C28.42 31.01 28.37 30.49 28.47 29.99C28.57 29.49 28.81 29.03 29.17 28.67C29.53 28.31 29.99 28.07 30.49 27.97C30.99 27.87 31.51 27.92 31.98 28.11C32.45 28.31 32.86 28.64 33.14 29.06C33.42 29.49 33.57 29.99 33.57 30.5C33.57 31.18 33.3 31.83 32.82 32.32C32.33 32.8 31.68 33.07 31 33.07Z" fill="#D6D6D6" fill-opacity="1.000000" fill-rule="nonzero"/>
			<path id="Vector" d="M31 28.95C30.86 28.95 30.73 29 30.63 29.1C30.53 29.2 30.48 29.33 30.48 29.46L30.48 31.53C30.48 31.66 30.53 31.79 30.63 31.89C30.73 31.99 30.86 32.04 31 32.04C31.13 32.04 31.26 31.99 31.36 31.89C31.46 31.79 31.51 31.66 31.51 31.53L31.51 29.46C31.51 29.33 31.46 29.2 31.36 29.1C31.26 29 31.13 28.95 31 28.95Z" fill="#D6D6D6" fill-opacity="1.000000" fill-rule="nonzero"/>
			<path id="Vector" d="M44.4 41.84C43.91 41.84 43.44 42.02 43.07 42.33C42.69 42.65 42.45 43.09 42.37 43.58L39.68 43.58L38.11 40.61C40.55 38.89 42.29 36.34 43 33.44C43.71 30.54 43.35 27.48 41.98 24.82C41.95 24.76 41.9 24.71 41.85 24.67C41.8 24.62 41.74 24.59 41.68 24.57C41.61 24.55 41.54 24.54 41.48 24.55C41.41 24.55 41.34 24.57 41.28 24.6C41.22 24.63 41.17 24.68 41.12 24.73C41.08 24.78 41.05 24.84 41.03 24.9C41.01 24.97 41 25.04 41 25.1C41.01 25.17 41.03 25.24 41.06 25.3C42.31 27.74 42.63 30.55 41.96 33.21C41.29 35.87 39.68 38.19 37.42 39.75C35.16 41.3 32.41 41.98 29.69 41.66C26.97 41.34 24.46 40.04 22.62 38.01C20.79 35.97 19.75 33.33 19.72 30.59C19.69 27.85 20.65 25.19 22.43 23.11C24.22 21.02 26.7 19.66 29.41 19.27C32.12 18.88 34.89 19.49 37.18 20.99C38.23 21.69 39.16 22.56 39.93 23.57C40.01 23.69 40.13 23.76 40.27 23.78C40.42 23.81 40.56 23.77 40.67 23.69C40.79 23.61 40.87 23.48 40.89 23.34C40.91 23.2 40.88 23.06 40.79 22.94C40.04 21.95 39.15 21.08 38.14 20.36L39.69 17.45L42.39 17.45C42.48 17.94 42.75 18.39 43.14 18.7C43.53 19.01 44.03 19.16 44.53 19.13C45.03 19.1 45.5 18.89 45.86 18.54C46.22 18.19 46.44 17.72 46.47 17.22C46.51 16.72 46.36 16.22 46.05 15.82C45.75 15.42 45.31 15.15 44.82 15.05C44.32 14.95 43.81 15.04 43.38 15.29C42.94 15.54 42.62 15.94 42.46 16.42L39.36 16.42C39.27 16.42 39.18 16.44 39.1 16.49C39.02 16.54 38.95 16.61 38.91 16.69L37.26 19.79C35.36 18.68 33.21 18.09 31.01 18.09C28.81 18.09 26.66 18.68 24.76 19.79L23.2 16.85C23.16 16.76 23.09 16.7 23.01 16.65C22.93 16.6 22.84 16.57 22.75 16.57L19.58 16.57C19.45 16.09 19.16 15.66 18.74 15.38C18.32 15.1 17.82 14.98 17.32 15.04C16.82 15.11 16.37 15.35 16.03 15.73C15.7 16.1 15.52 16.59 15.52 17.09C15.52 17.59 15.7 18.08 16.03 18.45C16.37 18.83 16.82 19.07 17.32 19.13C17.82 19.2 18.32 19.08 18.74 18.8C19.16 18.51 19.45 18.09 19.58 17.6L22.44 17.6L23.9 20.37C22.27 21.51 20.94 23.03 20.03 24.8C19.11 26.56 18.63 28.52 18.64 30.51C18.64 32.5 19.12 34.46 20.04 36.22C20.96 37.99 22.29 39.5 23.93 40.64L22.44 43.45L19.6 43.45C19.49 42.96 19.21 42.53 18.81 42.23C18.4 41.93 17.91 41.79 17.41 41.83C16.91 41.88 16.44 42.1 16.09 42.46C15.75 42.83 15.54 43.3 15.52 43.81C15.5 44.31 15.67 44.8 15.98 45.19C16.3 45.58 16.75 45.84 17.24 45.92C17.74 46.01 18.25 45.91 18.67 45.64C19.1 45.38 19.41 44.96 19.56 44.48L22.75 44.48C22.84 44.48 22.93 44.46 23.01 44.41C23.09 44.36 23.16 44.29 23.2 44.21L24.81 41.2C26.7 42.3 28.84 42.88 31.03 42.88C33.21 42.88 35.36 42.3 37.25 41.2L38.93 44.36C38.97 44.44 39.04 44.51 39.12 44.56C39.2 44.61 39.29 44.63 39.38 44.63L42.48 44.63C42.61 44.99 42.84 45.29 43.14 45.53C43.43 45.76 43.79 45.9 44.16 45.95C44.53 45.99 44.91 45.94 45.25 45.78C45.6 45.63 45.89 45.38 46.11 45.07C46.32 44.76 46.44 44.4 46.47 44.02C46.49 43.65 46.41 43.27 46.23 42.94C46.06 42.61 45.79 42.33 45.47 42.13C45.15 41.94 44.78 41.84 44.4 41.84ZM44.4 16.06C44.61 16.06 44.8 16.12 44.97 16.23C45.14 16.34 45.28 16.51 45.35 16.69C45.43 16.88 45.45 17.09 45.41 17.29C45.37 17.49 45.27 17.67 45.13 17.82C44.99 17.96 44.8 18.06 44.6 18.1C44.4 18.14 44.2 18.12 44.01 18.04C43.82 17.96 43.66 17.83 43.54 17.66C43.43 17.49 43.37 17.29 43.37 17.09C43.37 16.82 43.48 16.55 43.67 16.36C43.87 16.17 44.13 16.06 44.4 16.06ZM17.59 18.12C17.38 18.12 17.19 18.06 17.02 17.95C16.85 17.83 16.71 17.67 16.64 17.48C16.56 17.29 16.54 17.09 16.58 16.89C16.62 16.69 16.72 16.5 16.86 16.36C17 16.22 17.19 16.12 17.39 16.08C17.59 16.04 17.79 16.06 17.98 16.14C18.17 16.21 18.33 16.35 18.45 16.52C18.56 16.69 18.62 16.88 18.62 17.09C18.62 17.36 18.51 17.62 18.32 17.82C18.12 18.01 17.86 18.12 17.59 18.12ZM17.59 44.93C17.38 44.93 17.19 44.87 17.02 44.76C16.85 44.65 16.71 44.48 16.64 44.3C16.56 44.11 16.54 43.9 16.58 43.7C16.62 43.5 16.72 43.32 16.86 43.17C17 43.03 17.19 42.93 17.39 42.89C17.59 42.85 17.79 42.87 17.98 42.95C18.17 43.03 18.33 43.16 18.45 43.33C18.56 43.5 18.62 43.7 18.62 43.9C18.62 43.93 18.62 43.95 18.62 43.97L18.62 44C18.59 44.26 18.47 44.5 18.28 44.67C18.09 44.84 17.85 44.93 17.59 44.93ZM44.4 44.93C44.16 44.94 43.93 44.86 43.74 44.71C43.55 44.57 43.42 44.36 43.37 44.12C43.37 44.12 43.37 44.12 43.37 44.09C43.37 44.05 43.37 44.02 43.37 43.98C43.37 43.95 43.37 43.93 43.37 43.9C43.37 43.7 43.43 43.5 43.54 43.33C43.66 43.16 43.82 43.03 44.01 42.95C44.2 42.87 44.4 42.85 44.6 42.89C44.8 42.93 44.99 43.03 45.13 43.17C45.27 43.32 45.37 43.5 45.41 43.7C45.45 43.9 45.43 44.11 45.35 44.3C45.28 44.48 45.14 44.65 44.97 44.76C44.8 44.87 44.61 44.93 44.4 44.93Z" fill="#D6D6D6" fill-opacity="1.000000" fill-rule="nonzero"/>
			<path id="Vector" d="M16.56 21.21L18.62 21.21L18.62 23.28L16.56 23.28L16.56 21.21ZM43.37 37.71L45.43 37.71L45.43 39.78L43.37 39.78L43.37 37.71Z" fill="#D6D6D6" fill-opacity="1.000000" fill-rule="nonzero"/>
		</g>
	</g>
	<rect id="Frame" rx="18.119318" width="59.472706" height="59.596462" transform="translate(0.880682 0.880682)" stroke="#494949" stroke-opacity="1.000000" stroke-width="1.761364"/>
</svg>
