<svg width="61.234070" height="61.357910" viewBox="0 0 61.2341 61.3579" fill="none" xmlns="http://www.w3.org/2000/svg" xmlns:xlink="http://www.w3.org/1999/xlink">
	<desc>
			Created with Pixso.
	</desc>
	<defs>
		<filter id="filter_52_485_dd" x="0.000000" y="0.000000" width="61.234070" height="61.357910" filterUnits="userSpaceOnUse" color-interpolation-filters="sRGB">
			<feFlood flood-opacity="0" result="BackgroundImageFix"/>
			<feGaussianBlur in="BackgroundImage" stdDeviation="8"/>
			<feComposite in2="SourceAlpha" operator="in" result="effect_backgroundBlur_1"/>
			<feBlend mode="normal" in="SourceGraphic" in2="effect_backgroundBlur_1" result="shape"/>
			<feColorMatrix in="SourceAlpha" type="matrix" values="0 0 0 0 0 0 0 0 0 0 0 0 0 0 0 0 0 0 127 0" result="hardAlpha"/>
			<feOffset dx="0" dy="0"/>
			<feGaussianBlur stdDeviation="3.33333"/>
			<feComposite in2="hardAlpha" operator="arithmetic" k2="-1" k3="1"/>
			<feColorMatrix type="matrix" values="0 0 0 0 0.94902 0 0 0 0 0.94902 0 0 0 0 0.94902 0 0 0 0.7 0"/>
			<feBlend mode="normal" in2="shape" result="effect_innerShadow_2"/>
		</filter>
		<clipPath id="clip52_487">
			<rect id="Frame" rx="-0.500000" width="32.000000" height="32.000000" transform="translate(15.000000 14.500000)" fill="white" fill-opacity="0"/>
		</clipPath>
		<radialGradient gradientTransform="translate(30.617 30.6789) rotate(180) scale(30.6789 30.617)" cx="0.000000" cy="0.000000" r="1.000000" id="paint_radial_52_485_0" gradientUnits="userSpaceOnUse">
			<stop stop-color="#E3E3E3"/>
			<stop offset="1.000000" stop-color="#FFFFFF"/>
		</radialGradient>
	</defs>
	<g filter="url(#filter_52_485_dd)">
		<rect id="Frame" rx="18.119318" width="59.472706" height="59.596462" transform="translate(0.880682 0.880682)" fill="url(#paint_radial_52_485_0)" fill-opacity="0.800000"/>
		<rect id="Frame" rx="-0.500000" width="32.000000" height="32.000000" transform="translate(15.000000 14.500000)" fill="#FFFFFF" fill-opacity="0"/>
		<g clip-path="url(#clip52_487)">
			<path id="Vector" d="M17.77 19.35L19.68 19.35C19.8 19.35 19.93 19.29 20.02 19.2C20.11 19.11 20.16 18.99 20.16 18.86L20.16 16.45L17.77 19.35ZM20.16 41.71C20.05 41.71 19.95 41.67 19.87 41.59C19.79 41.51 19.75 41.41 19.75 41.3C19.75 41.19 19.79 41.08 19.87 41.01C19.95 40.93 20.05 40.89 20.16 40.89L37.44 40.89C37.55 40.89 37.66 40.93 37.74 41.01C37.81 41.08 37.86 41.19 37.86 41.3C37.86 41.41 37.81 41.51 37.74 41.59C37.66 41.67 37.55 41.71 37.44 41.71L20.16 41.71ZM31.03 22.83C30.59 22.39 30.03 22.09 29.42 21.97C28.81 21.85 28.17 21.91 27.6 22.15C27.03 22.39 26.54 22.79 26.19 23.31C25.85 23.83 25.66 24.43 25.66 25.05C25.66 25.68 25.85 26.28 26.19 26.8C26.54 27.32 27.03 27.72 27.6 27.96C28.17 28.2 28.81 28.26 29.42 28.14C30.03 28.02 30.59 27.72 31.03 27.28C31.61 26.69 31.95 25.89 31.95 25.05C31.95 24.22 31.61 23.42 31.03 22.83ZM28.8 21.09C29.59 21.09 30.35 21.32 31.01 21.76C31.66 22.19 32.17 22.81 32.47 23.54C32.77 24.26 32.85 25.06 32.69 25.83C32.54 26.6 32.16 27.3 31.61 27.86C31.05 28.41 30.35 28.79 29.58 28.94C28.81 29.1 28.01 29.02 27.29 28.72C26.56 28.42 25.94 27.91 25.51 27.26C25.07 26.61 24.84 25.84 24.84 25.05C24.84 24 25.26 22.99 26 22.25C26.74 21.51 27.75 21.09 28.8 21.09ZM25.25 29.8L23.98 32.04L24.98 31.82L24.98 31.82C25.08 31.8 25.19 31.82 25.27 31.87C25.36 31.92 25.43 32 25.46 32.09L25.79 33.07L27.09 30.79C26.73 30.83 26.38 30.89 26.03 30.72C25.61 30.52 25.48 30.12 25.25 29.8L25.25 29.8ZM33.08 29.41L34.79 32.41C34.83 32.48 34.85 32.56 34.85 32.64C34.85 32.72 34.82 32.8 34.78 32.86C34.73 32.93 34.67 32.98 34.59 33.01C34.51 33.04 34.43 33.05 34.35 33.03L32.81 32.7L32.31 34.19C32.28 34.27 32.24 34.33 32.17 34.38C32.11 34.43 32.04 34.47 31.96 34.47C31.88 34.48 31.8 34.47 31.73 34.43C31.66 34.39 31.6 34.34 31.56 34.27L29.71 31.02C28.99 31.48 28.62 31.48 27.9 31.02L26.05 34.27C26.01 34.34 25.95 34.39 25.88 34.43C25.81 34.47 25.73 34.48 25.65 34.47C25.57 34.47 25.49 34.43 25.43 34.38C25.37 34.33 25.32 34.27 25.3 34.19L24.8 32.7L23.25 33.03C23.17 33.05 23.09 33.04 23.02 33.01C22.94 32.98 22.88 32.93 22.83 32.86C22.78 32.8 22.76 32.72 22.76 32.64C22.76 32.56 22.78 32.48 22.82 32.41L24.53 29.41C24.29 29.33 24.06 29.22 23.88 29C23.52 28.55 23.66 27.92 23.52 27.64C23.39 27.36 22.8 27.07 22.66 26.5C22.53 25.93 22.92 25.41 22.92 25.05C22.92 24.7 22.53 24.18 22.66 23.61C22.8 23.04 23.39 22.75 23.52 22.47C23.66 22.19 23.52 21.56 23.88 21.11C24.24 20.66 24.89 20.66 25.13 20.47C25.37 20.27 25.51 19.64 26.03 19.39C26.55 19.13 27.14 19.4 27.46 19.33C27.77 19.25 28.2 18.75 28.8 18.75C29.4 18.75 29.83 19.25 30.15 19.33C30.47 19.4 31.05 19.13 31.58 19.39C32.1 19.64 32.24 20.27 32.48 20.47C32.72 20.66 33.37 20.66 33.72 21.11C34.08 21.56 33.95 22.19 34.09 22.47C34.22 22.75 34.81 23.04 34.94 23.61C35.08 24.18 34.68 24.7 34.68 25.05C34.68 25.41 35.08 25.93 34.94 26.5C34.81 27.07 34.22 27.36 34.09 27.64C33.95 27.92 34.08 28.55 33.72 29C33.55 29.22 33.32 29.33 33.08 29.41L33.08 29.41ZM32.31 28.81C32.19 28.85 32.07 28.92 31.97 29C31.59 29.31 31.43 29.88 31.22 29.98C31.01 30.08 30.44 29.87 29.96 29.98C29.48 30.09 29.08 30.54 28.8 30.54C28.53 30.54 28.13 30.09 27.64 29.98C27.16 29.87 26.6 30.08 26.39 29.98C26.18 29.88 26.02 29.31 25.64 29C25.26 28.7 24.67 28.67 24.52 28.48C24.38 28.31 24.47 27.72 24.26 27.28C24.04 26.83 23.52 26.55 23.46 26.31C23.41 26.07 23.75 25.56 23.75 25.05C23.75 24.55 23.41 24.04 23.46 23.8C23.52 23.56 24.04 23.27 24.26 22.83C24.47 22.39 24.38 21.8 24.52 21.62C24.67 21.44 25.26 21.41 25.64 21.11C26.02 20.8 26.18 20.23 26.39 20.13C26.6 20.03 27.16 20.24 27.64 20.13C28.13 20.02 28.53 19.57 28.8 19.57C29.08 19.57 29.48 20.02 29.96 20.13C30.44 20.24 31.01 20.03 31.22 20.13C31.43 20.23 31.59 20.8 31.97 21.11C32.35 21.41 32.94 21.44 33.08 21.62C33.23 21.8 33.13 22.39 33.35 22.83C33.57 23.27 34.09 23.56 34.14 23.8C34.2 24.04 33.86 24.55 33.86 25.05C33.86 25.56 34.2 26.07 34.14 26.31C34.09 26.55 33.57 26.83 33.35 27.28C33.13 27.72 33.23 28.31 33.08 28.48C32.98 28.62 32.53 28.71 32.31 28.81L32.31 28.81ZM30.52 30.78L31.82 33.07L32.15 32.09C32.18 32 32.25 31.92 32.33 31.87C32.42 31.82 32.52 31.8 32.62 31.82L32.62 31.82L33.63 32.04L32.35 29.8C32.13 30.12 31.99 30.51 31.58 30.72C31.22 30.89 30.87 30.83 30.52 30.78L30.52 30.78ZM27.07 25.44C27.03 25.41 26.99 25.36 26.96 25.32C26.93 25.27 26.92 25.22 26.91 25.16C26.9 25.11 26.91 25.06 26.92 25C26.94 24.95 26.96 24.9 27 24.86C27.03 24.82 27.07 24.78 27.12 24.75C27.17 24.73 27.22 24.71 27.27 24.7C27.33 24.7 27.38 24.7 27.43 24.72C27.49 24.73 27.53 24.76 27.58 24.79L28.48 25.5L29.97 23.77C30.01 23.73 30.05 23.7 30.1 23.67C30.15 23.65 30.2 23.64 30.25 23.63C30.31 23.63 30.36 23.64 30.41 23.65C30.46 23.67 30.51 23.7 30.55 23.73C30.59 23.77 30.63 23.81 30.65 23.86C30.68 23.91 30.69 23.96 30.69 24.01C30.7 24.07 30.69 24.12 30.67 24.17C30.66 24.22 30.63 24.27 30.59 24.31L28.86 26.32C28.82 26.36 28.78 26.4 28.74 26.42C28.69 26.45 28.64 26.47 28.58 26.47C28.53 26.48 28.47 26.48 28.42 26.46C28.37 26.45 28.32 26.42 28.28 26.39L27.07 25.44L27.07 25.44ZM41.12 31.12C42.31 31.22 43.43 31.77 44.24 32.65C45.05 33.54 45.5 34.69 45.5 35.9C45.5 37.1 45.05 38.25 44.24 39.14C43.43 40.02 42.31 40.57 41.12 40.67L41.12 44.65C41.12 45 40.98 45.33 40.73 45.58C40.49 45.82 40.15 45.96 39.81 45.96L17.8 45.96C17.45 45.96 17.12 45.82 16.87 45.58C16.63 45.33 16.49 45 16.49 44.65L16.49 19.76C16.49 19.65 16.53 19.55 16.61 19.47L20.15 15.18C20.19 15.13 20.24 15.09 20.29 15.07C20.35 15.04 20.41 15.03 20.47 15.03L20.47 15.03L39.81 15.03C40.15 15.03 40.49 15.17 40.73 15.41C40.98 15.66 41.12 15.99 41.12 16.34L41.12 31.12L41.12 31.12ZM37.31 32.51C36.46 33.36 35.96 34.5 35.91 35.71L20.16 35.71C20.05 35.71 19.95 35.75 19.87 35.83C19.79 35.91 19.75 36.01 19.75 36.12C19.75 36.23 19.79 36.33 19.87 36.41C19.95 36.49 20.05 36.53 20.16 36.53L35.95 36.53C36.04 37.15 36.24 37.75 36.55 38.3L20.16 38.3C20.05 38.3 19.95 38.34 19.87 38.42C19.79 38.5 19.75 38.6 19.75 38.71C19.75 38.82 19.79 38.92 19.87 39C19.95 39.08 20.05 39.12 20.16 39.12L37.16 39.12C37.97 40.02 39.09 40.57 40.29 40.67L40.29 44.65C40.29 44.78 40.24 44.91 40.15 45C40.06 45.09 39.94 45.14 39.81 45.14L17.8 45.14C17.67 45.14 17.55 45.09 17.46 45C17.37 44.91 17.31 44.78 17.31 44.65L17.31 20.17L19.68 20.17C20.02 20.17 20.36 20.03 20.6 19.79C20.85 19.54 20.99 19.21 20.99 18.86L20.99 15.85L39.81 15.85C39.94 15.85 40.06 15.9 40.15 15.99C40.24 16.08 40.29 16.21 40.29 16.34L40.29 31.12C39.17 31.21 38.11 31.71 37.31 32.51L37.31 32.51ZM37.9 33.09C37.34 33.64 36.96 34.35 36.81 35.12C36.66 35.89 36.74 36.69 37.04 37.42C37.34 38.14 37.85 38.76 38.5 39.2C39.15 39.63 39.92 39.87 40.71 39.87C41.49 39.87 42.26 39.63 42.91 39.2C43.57 38.76 44.07 38.14 44.38 37.42C44.68 36.69 44.75 35.89 44.6 35.12C44.45 34.35 44.07 33.64 43.51 33.09C42.77 32.34 41.76 31.92 40.71 31.92C39.65 31.92 38.64 32.34 37.9 33.09ZM38.14 36.32L40.03 37.8C40.07 37.83 40.12 37.86 40.17 37.87C40.22 37.89 40.28 37.89 40.33 37.89C40.39 37.88 40.44 37.86 40.48 37.83C40.53 37.81 40.57 37.77 40.61 37.73L43.33 34.58C43.4 34.5 43.44 34.39 43.43 34.28C43.42 34.18 43.37 34.07 43.29 34C43.21 33.93 43.1 33.9 42.99 33.9C42.88 33.91 42.78 33.96 42.71 34.05L40.23 36.91L38.65 35.67C38.6 35.64 38.55 35.61 38.5 35.59C38.45 35.58 38.4 35.57 38.34 35.58C38.29 35.59 38.23 35.6 38.19 35.63C38.14 35.66 38.1 35.69 38.06 35.74C38.03 35.78 38.01 35.83 37.99 35.88C37.98 35.93 37.97 35.99 37.98 36.04C37.99 36.09 38 36.15 38.03 36.19C38.06 36.24 38.09 36.28 38.14 36.32L38.14 36.32Z" fill="#0A272E" fill-opacity="1.000000" fill-rule="evenodd"/>
		</g>
	</g>
	<rect id="Frame" rx="18.119318" width="59.472706" height="59.596462" transform="translate(0.880682 0.880682)" stroke="#CCCCCC" stroke-opacity="1.000000" stroke-width="1.761364"/>
</svg>
