<svg width="61.234070" height="61.357910" viewBox="0 0 61.2341 61.3579" fill="none" xmlns="http://www.w3.org/2000/svg" xmlns:xlink="http://www.w3.org/1999/xlink">
	<desc>
			Created with Pixso.
	</desc>
	<defs>
		<filter id="filter_52_462_dd" x="0.000000" y="0.000000" width="61.234070" height="61.357910" filterUnits="userSpaceOnUse" color-interpolation-filters="sRGB">
			<feFlood flood-opacity="0" result="BackgroundImageFix"/>
			<feGaussianBlur in="BackgroundImage" stdDeviation="8"/>
			<feComposite in2="SourceAlpha" operator="in" result="effect_backgroundBlur_1"/>
			<feBlend mode="normal" in="SourceGraphic" in2="effect_backgroundBlur_1" result="shape"/>
			<feColorMatrix in="SourceAlpha" type="matrix" values="0 0 0 0 0 0 0 0 0 0 0 0 0 0 0 0 0 0 127 0" result="hardAlpha"/>
			<feOffset dx="0" dy="0"/>
			<feGaussianBlur stdDeviation="3.33333"/>
			<feComposite in2="hardAlpha" operator="arithmetic" k2="-1" k3="1"/>
			<feColorMatrix type="matrix" values="0 0 0 0 0.94902 0 0 0 0 0.94902 0 0 0 0 0.94902 0 0 0 0.7 0"/>
			<feBlend mode="normal" in2="shape" result="effect_innerShadow_2"/>
		</filter>
		<clipPath id="clip52_465">
			<rect id="Frame" rx="-0.500000" width="32.000000" height="32.000000" transform="translate(15.000000 14.500000)" fill="white" fill-opacity="0"/>
		</clipPath>
		<clipPath id="clip52_464">
			<rect id="Frame" rx="-0.500000" width="32.000000" height="32.000000" transform="translate(15.000000 14.500000)" fill="white" fill-opacity="0"/>
		</clipPath>
		<radialGradient gradientTransform="translate(30.617 30.6789) rotate(180) scale(30.6789 30.617)" cx="0.000000" cy="0.000000" r="1.000000" id="paint_radial_52_462_0" gradientUnits="userSpaceOnUse">
			<stop stop-color="#E3E3E3"/>
			<stop offset="1.000000" stop-color="#FFFFFF"/>
		</radialGradient>
	</defs>
	<g filter="url(#filter_52_462_dd)">
		<rect id="Frame" rx="18.119318" width="59.472706" height="59.596462" transform="translate(0.880682 0.880682)" fill="url(#paint_radial_52_462_0)" fill-opacity="0.800000"/>
		<rect id="Frame" rx="-0.500000" width="32.000000" height="32.000000" transform="translate(15.000000 14.500000)" fill="#FFFFFF" fill-opacity="0"/>
		<g clip-path="url(#clip52_464)">
			<rect id="Frame" rx="-0.500000" width="32.000000" height="32.000000" transform="translate(15.000000 14.500000)" fill="#FFFFFF" fill-opacity="0"/>
			<g clip-path="url(#clip52_465)">
				<path id="Vector" d="M41.87 28.38C43.47 28.38 44.28 30.32 43.14 31.46C42.01 32.59 40.06 31.78 40.06 30.18C40.06 29.18 40.87 28.38 41.87 28.38ZM42.51 29.54C41.94 28.97 40.96 29.38 40.96 30.18C40.96 30.98 41.94 31.39 42.51 30.82C42.86 30.47 42.86 29.9 42.51 29.54ZM28.48 34.56L28.48 32.71C28.48 32.46 28.68 32.26 28.93 32.26C29.18 32.26 29.38 32.46 29.38 32.71L29.38 34.56L32.01 34.56L32.01 32.71C32.01 32.46 32.21 32.26 32.46 32.26C32.71 32.26 32.91 32.46 32.91 32.71L32.91 34.56L33.89 34.56L33.89 32.44C33.89 31.27 32.93 30.31 31.76 30.31L29.62 30.31C28.46 30.31 27.5 31.27 27.5 32.44L27.5 34.56L28.48 34.56ZM29.62 29.41L30.38 29.41C28.54 29.15 27.76 26.89 29.09 25.56C29.98 24.68 31.41 24.68 32.3 25.56C33.62 26.89 32.85 29.15 31.01 29.41L31.76 29.41C33.43 29.41 34.79 30.77 34.79 32.44L34.79 35.01C34.79 35.26 34.59 35.46 34.34 35.46L27.05 35.46C26.8 35.46 26.6 35.26 26.6 35.01L26.6 32.44C26.6 30.77 27.96 29.41 29.62 29.41ZM31.66 26.2C30.8 25.34 29.33 25.95 29.33 27.17C29.33 28.38 30.8 28.99 31.66 28.13C32.19 27.6 32.19 26.73 31.66 26.2ZM30.67 16.72C32.27 16.72 33.08 18.67 31.95 19.8C30.81 20.94 28.86 20.13 28.86 18.53C28.86 17.53 29.67 16.72 30.67 16.72ZM31.31 17.89C30.74 17.32 29.77 17.72 29.77 18.53C29.77 19.33 30.74 19.73 31.31 19.16C31.66 18.81 31.66 18.24 31.31 17.89ZM18.4 20.29C20 20.29 20.81 22.24 19.68 23.37C18.54 24.51 16.59 23.7 16.59 22.1C16.59 21.1 17.4 20.29 18.4 20.29ZM19.04 21.46C18.47 20.89 17.5 21.29 17.5 22.1C17.5 22.9 18.47 23.3 19.04 22.73C19.39 22.38 19.39 21.81 19.04 21.46ZM19.9 28.42C21.5 28.42 22.31 30.36 21.17 31.5C20.04 32.63 18.09 31.82 18.09 30.22C18.09 29.23 18.9 28.42 19.9 28.42ZM20.53 29.58C19.97 29.02 18.99 29.42 18.99 30.22C18.99 31.02 19.97 31.43 20.53 30.86C20.89 30.51 20.89 29.94 20.53 29.58ZM17.69 33.85C19.29 33.85 20.1 35.79 18.96 36.93C17.83 38.06 15.88 37.25 15.88 35.65C15.88 34.65 16.69 33.85 17.69 33.85ZM18.32 35.01C17.76 34.45 16.78 34.85 16.78 35.65C16.78 36.45 17.76 36.86 18.32 36.29C18.68 35.94 18.68 35.37 18.32 35.01ZM22.4 41.03C24 41.03 24.81 42.98 23.68 44.11C22.54 45.25 20.59 44.44 20.59 42.84C20.59 41.84 21.4 41.03 22.4 41.03ZM23.04 42.2C22.47 41.63 21.5 42.03 21.5 42.84C21.5 43.64 22.47 44.04 23.04 43.48C23.39 43.12 23.39 42.55 23.04 42.2ZM30.72 39.7C32.32 39.7 33.13 41.65 32 42.78C30.86 43.91 28.92 43.11 28.92 41.5C28.92 40.51 29.72 39.7 30.72 39.7ZM31.36 40.87C30.79 40.3 29.82 40.7 29.82 41.5C29.82 42.31 30.79 42.71 31.36 42.14C31.71 41.79 31.71 41.22 31.36 40.87ZM36.28 41.65C37.88 41.65 38.69 43.6 37.56 44.73C36.42 45.87 34.47 45.06 34.47 43.45C34.47 42.46 35.28 41.65 36.28 41.65ZM36.92 42.82C36.35 42.25 35.38 42.65 35.38 43.45C35.38 44.26 36.35 44.66 36.92 44.09C37.27 43.74 37.27 43.17 36.92 42.82ZM43.09 36.67C44.69 36.67 45.5 38.61 44.37 39.75C43.23 40.88 41.29 40.08 41.29 38.47C41.29 37.48 42.09 36.67 43.09 36.67ZM43.73 37.83C43.16 37.27 42.19 37.67 42.19 38.47C42.19 39.27 43.16 39.68 43.73 39.11C44.08 38.76 44.08 38.19 43.73 37.83ZM43.87 23.08C45.47 23.08 46.28 25.03 45.15 26.16C44.01 27.3 42.07 26.49 42.07 24.88C42.06 23.89 42.87 23.08 43.87 23.08ZM44.51 24.25C43.94 23.68 42.97 24.08 42.97 24.88C42.97 25.69 43.94 26.09 44.51 25.52C44.86 25.17 44.86 24.6 44.51 24.25ZM38.47 15.86C40.08 15.86 40.89 17.81 39.75 18.94C38.62 20.08 36.67 19.27 36.67 17.67C36.67 16.67 37.48 15.86 38.47 15.86ZM39.11 17.03C38.55 16.46 37.57 16.87 37.57 17.67C37.57 18.47 38.55 18.87 39.11 18.31C39.47 17.95 39.47 17.38 39.11 17.03ZM25.27 15.35C26.87 15.35 27.68 17.3 26.55 18.43C25.41 19.57 23.47 18.76 23.47 17.16C23.47 16.16 24.27 15.35 25.27 15.35ZM25.91 16.52C25.34 15.95 24.37 16.36 24.37 17.16C24.37 17.96 25.34 18.37 25.91 17.8C26.26 17.44 26.26 16.87 25.91 16.52ZM27.41 22.76C27.43 23 27.24 23.22 26.99 23.24C26.93 23.24 26.88 23.24 26.82 23.22C26.76 23.2 26.71 23.17 26.67 23.13C26.62 23.1 26.58 23.05 26.56 23C26.53 22.94 26.51 22.89 26.51 22.83L26.44 21.91L25.75 21.96C25.5 21.98 25.29 21.8 25.27 21.55L25.13 19.8C25.11 19.55 25.29 19.33 25.54 19.31C25.79 19.29 26.01 19.48 26.03 19.73L26.13 21.03L26.81 20.97C27.06 20.95 27.28 21.14 27.3 21.39L27.41 22.76ZM23.9 25.21C24.15 25.19 24.36 25.38 24.38 25.62C24.4 25.87 24.22 26.09 23.97 26.11L22.8 26.2C22.55 26.22 22.33 26.04 22.31 25.79L22.21 24.53L20.59 23.76C20.54 23.74 20.49 23.7 20.45 23.66C20.41 23.61 20.38 23.56 20.36 23.51C20.34 23.45 20.33 23.39 20.33 23.33C20.34 23.27 20.35 23.21 20.38 23.16C20.4 23.11 20.44 23.06 20.48 23.02C20.53 22.98 20.58 22.95 20.63 22.93C20.69 22.91 20.75 22.9 20.81 22.9C20.87 22.91 20.92 22.92 20.98 22.95L22.81 23.82C22.96 23.88 23.07 24.02 23.09 24.2L23.17 25.27L23.9 25.21ZM23.27 33.47C23.52 33.45 23.74 33.63 23.76 33.88C23.76 34 23.73 34.12 23.65 34.21C23.57 34.3 23.46 34.36 23.34 34.37L22.42 34.44L22.48 35.12C22.5 35.37 22.31 35.59 22.06 35.61L20.26 35.75C20.02 35.77 19.8 35.59 19.78 35.34C19.76 35.09 19.95 34.87 20.19 34.85L21.54 34.75L21.49 34.06C21.48 33.94 21.52 33.82 21.59 33.73C21.67 33.64 21.78 33.59 21.9 33.58L23.27 33.47ZM25.72 36.98C25.7 36.73 25.89 36.51 26.14 36.49C26.26 36.48 26.37 36.52 26.46 36.6C26.56 36.67 26.61 36.78 26.62 36.9L26.72 38.08C26.73 38.33 26.55 38.55 26.3 38.56L25.04 38.66L24.03 40.79C23.93 41.01 23.66 41.11 23.43 41C23.38 40.98 23.33 40.94 23.29 40.9C23.25 40.86 23.22 40.8 23.2 40.75C23.18 40.69 23.17 40.63 23.17 40.57C23.18 40.52 23.19 40.46 23.22 40.4L24.33 38.07C24.39 37.91 24.54 37.8 24.71 37.79L25.78 37.7L25.72 36.98ZM33.98 37.61C33.96 37.36 34.15 37.14 34.4 37.12C34.64 37.1 34.86 37.29 34.88 37.54L34.95 38.45L35.64 38.4C35.89 38.38 36.1 38.56 36.12 38.81L36.28 40.79C36.3 41.04 36.11 41.25 35.87 41.27C35.62 41.29 35.4 41.11 35.38 40.86L35.26 39.33L34.57 39.39C34.33 39.41 34.11 39.22 34.09 38.97L33.98 37.61ZM37.49 35.15C37.24 35.17 37.02 34.99 37 34.74C37 34.68 37.01 34.62 37.02 34.56C37.04 34.51 37.07 34.46 37.11 34.41C37.15 34.36 37.2 34.33 37.25 34.3C37.3 34.27 37.36 34.26 37.42 34.25L38.59 34.16C38.84 34.14 39.06 34.33 39.08 34.57L39.18 35.83L41.04 36.72C41.27 36.82 41.36 37.09 41.26 37.32C41.15 37.54 40.88 37.64 40.66 37.53L38.58 36.55C38.43 36.48 38.31 36.34 38.3 36.16L38.22 35.1L37.49 35.15ZM38.12 26.89C37.87 26.91 37.66 26.73 37.64 26.48C37.62 26.23 37.8 26.01 38.05 25.99L38.97 25.92L38.91 25.24C38.91 25.18 38.92 25.12 38.93 25.06C38.95 25.01 38.98 24.95 39.02 24.91C39.06 24.86 39.11 24.83 39.16 24.8C39.21 24.77 39.27 24.76 39.33 24.75L41.15 24.61C41.4 24.59 41.62 24.77 41.64 25.02C41.65 25.27 41.47 25.49 41.22 25.5L39.85 25.61L39.9 26.3C39.92 26.55 39.74 26.77 39.49 26.78L38.12 26.89ZM35.67 23.39C35.69 23.63 35.5 23.85 35.25 23.87C35 23.89 34.79 23.71 34.77 23.46L34.67 22.28C34.66 22.16 34.7 22.04 34.78 21.95C34.86 21.86 34.97 21.81 35.09 21.8L36.35 21.7L37.16 19.98C37.19 19.93 37.22 19.88 37.26 19.84C37.31 19.8 37.36 19.77 37.41 19.75C37.47 19.73 37.53 19.72 37.59 19.73C37.65 19.73 37.71 19.74 37.76 19.77C37.98 19.88 38.08 20.14 37.97 20.37L37.06 22.3C37.03 22.37 36.98 22.44 36.91 22.49C36.84 22.54 36.76 22.57 36.68 22.58L35.61 22.66L35.67 23.39ZM22.28 30.63C22.04 30.63 21.83 30.43 21.83 30.18C21.83 29.93 22.04 29.73 22.28 29.73L23.22 29.73C23.44 25.95 26.47 22.93 30.24 22.7L30.24 21.03C30.24 20.78 30.45 20.58 30.69 20.58C30.94 20.58 31.15 20.78 31.15 21.03L31.15 22.7C34.92 22.93 37.95 25.95 38.17 29.73L39.39 29.73C39.64 29.73 39.84 29.93 39.84 30.18C39.84 30.43 39.64 30.63 39.39 30.63L38.17 30.63C37.95 34.41 34.92 37.43 31.15 37.66L31.15 38.88C31.15 39.12 30.94 39.33 30.69 39.33C30.45 39.33 30.24 39.12 30.24 38.88L30.24 37.66C26.47 37.43 23.44 34.41 23.22 30.63L22.28 30.63ZM24.12 29.73L24.94 29.73C25.19 29.73 25.39 29.93 25.39 30.18C25.39 30.43 25.18 30.63 24.94 30.63L24.12 30.63C24.34 33.91 26.96 36.53 30.24 36.75L30.24 35.94C30.24 35.69 30.45 35.49 30.69 35.49C30.94 35.49 31.14 35.69 31.14 35.94L31.14 36.75C34.42 36.53 37.04 33.91 37.27 30.63L36.45 30.63C36.2 30.63 36 30.43 36 30.18C36 29.93 36.2 29.73 36.45 29.73L37.27 29.73C37.04 26.45 34.42 23.83 31.14 23.61L31.14 23.97C31.14 24.22 30.94 24.42 30.69 24.42C30.44 24.42 30.24 24.22 30.24 23.97L30.24 23.61C26.96 23.83 24.34 26.45 24.12 29.73Z" fill="#0A272E" fill-opacity="1.000000" fill-rule="nonzero"/>
			</g>
		</g>
	</g>
	<rect id="Frame" rx="18.119318" width="59.472706" height="59.596462" transform="translate(0.880682 0.880682)" stroke="#CCCCCC" stroke-opacity="1.000000" stroke-width="1.761364"/>
</svg>
