<svg width="61.234070" height="61.357910" viewBox="0 0 61.2341 61.3579" fill="none" xmlns="http://www.w3.org/2000/svg" xmlns:xlink="http://www.w3.org/1999/xlink">
	<desc>
			Created with Pixso.
	</desc>
	<defs>
		<filter id="filter_52_472_dd" x="0.000000" y="0.000000" width="61.234070" height="61.357910" filterUnits="userSpaceOnUse" color-interpolation-filters="sRGB">
			<feFlood flood-opacity="0" result="BackgroundImageFix"/>
			<feGaussianBlur in="BackgroundImage" stdDeviation="8"/>
			<feComposite in2="SourceAlpha" operator="in" result="effect_backgroundBlur_1"/>
			<feBlend mode="normal" in="SourceGraphic" in2="effect_backgroundBlur_1" result="shape"/>
			<feColorMatrix in="SourceAlpha" type="matrix" values="0 0 0 0 0 0 0 0 0 0 0 0 0 0 0 0 0 0 127 0" result="hardAlpha"/>
			<feOffset dx="0" dy="0"/>
			<feGaussianBlur stdDeviation="3.33333"/>
			<feComposite in2="hardAlpha" operator="arithmetic" k2="-1" k3="1"/>
			<feColorMatrix type="matrix" values="0 0 0 0 0.94902 0 0 0 0 0.94902 0 0 0 0 0.94902 0 0 0 0.7 0"/>
			<feBlend mode="normal" in2="shape" result="effect_innerShadow_2"/>
		</filter>
		<clipPath id="clip52_474">
			<rect id="Frame" rx="-0.500000" width="32.000000" height="32.000000" transform="translate(15.000000 14.500000)" fill="white" fill-opacity="0"/>
		</clipPath>
		<radialGradient gradientTransform="translate(30.617 30.6789) rotate(180) scale(30.6789 30.617)" cx="0.000000" cy="0.000000" r="1.000000" id="paint_radial_52_472_0" gradientUnits="userSpaceOnUse">
			<stop stop-color="#E3E3E3"/>
			<stop offset="1.000000" stop-color="#FFFFFF"/>
		</radialGradient>
	</defs>
	<g filter="url(#filter_52_472_dd)">
		<rect id="Frame" rx="18.119318" width="59.472706" height="59.596462" transform="translate(0.880682 0.880682)" fill="url(#paint_radial_52_472_0)" fill-opacity="0.800000"/>
		<rect id="Frame" rx="-0.500000" width="32.000000" height="32.000000" transform="translate(15.000000 14.500000)" fill="#FFFFFF" fill-opacity="0"/>
		<g clip-path="url(#clip52_474)">
			<path id="Vector" d="M18.35 16.2L17.79 16.2C17.49 16.2 17.25 16.44 17.25 16.75C17.25 17.05 17.49 17.3 17.79 17.3L18.35 17.3C18.65 17.3 18.9 17.05 18.9 16.75C18.9 16.44 18.65 16.2 18.35 16.2ZM21.1 16.2L20.55 16.2C20.4 16.2 20.26 16.25 20.16 16.36C20.05 16.46 20 16.6 20 16.75C20 16.89 20.05 17.03 20.16 17.13C20.26 17.24 20.4 17.3 20.55 17.3L21.1 17.3C21.4 17.3 21.65 17.05 21.65 16.75C21.65 16.44 21.4 16.2 21.1 16.2ZM23.85 16.2L23.3 16.2C22.99 16.2 22.75 16.44 22.75 16.75C22.75 17.05 22.99 17.3 23.3 17.3L23.85 17.3C23.99 17.3 24.13 17.24 24.23 17.13C24.34 17.03 24.4 16.89 24.4 16.75C24.4 16.6 24.34 16.46 24.23 16.36C24.13 16.25 23.99 16.2 23.85 16.2ZM40.9 16.2L26.05 16.2C25.74 16.2 25.5 16.44 25.5 16.75C25.5 17.05 25.74 17.3 26.05 17.3L40.9 17.3C41.2 17.3 41.45 17.05 41.45 16.75C41.45 16.44 41.2 16.2 40.9 16.2Z" fill="#0A272E" fill-opacity="1.000000" fill-rule="nonzero"/>
			<path id="Vector" d="M46.4 33.79L45.85 33.79L45.85 31.04C45.84 29.5 45.25 28.02 44.2 26.91L44.2 16.75C44.19 15.23 42.96 14 41.45 14L17.25 14C15.73 14 14.5 15.23 14.5 16.75L14.5 38.75C14.5 40.26 15.73 41.49 17.25 41.5L32.09 41.5L32.09 43.14C32.1 45.27 33.82 46.99 35.95 47L43.65 47C45.77 46.99 47.49 45.27 47.5 43.14L47.5 34.89C47.5 34.29 47 33.79 46.4 33.79ZM44.75 31.04L44.75 33.79L34.84 33.79L34.84 31.04C34.84 28.31 37.06 26.1 39.8 26.1C42.53 26.1 44.75 28.31 44.75 31.04ZM15.6 16.75C15.6 15.83 16.33 15.1 17.25 15.1L41.45 15.1C42.36 15.1 43.1 15.83 43.1 16.75L43.1 18.39L15.6 18.39L15.6 16.75ZM32.09 34.89L32.09 40.39L17.25 40.39C16.33 40.39 15.6 39.66 15.6 38.75L15.6 19.5L43.1 19.5L43.1 25.98C41.24 24.77 38.86 24.67 36.91 25.72C34.96 26.78 33.74 28.82 33.75 31.04L33.75 33.79L33.2 33.79C32.59 33.79 32.09 34.29 32.09 34.89ZM46.4 36L44.75 36C44.44 36 44.2 36.24 44.2 36.54C44.2 36.85 44.44 37.1 44.75 37.1L46.4 37.1L46.4 38.2L44.75 38.2C44.44 38.2 44.2 38.44 44.2 38.75C44.2 39.05 44.44 39.29 44.75 39.29L46.4 39.29L46.4 40.39L44.75 40.39C44.44 40.39 44.2 40.64 44.2 40.95C44.2 41.25 44.44 41.5 44.75 41.5L46.4 41.5L46.4 42.6L44.75 42.6C44.6 42.6 44.46 42.65 44.36 42.76C44.25 42.86 44.2 43 44.2 43.14C44.2 43.29 44.25 43.43 44.36 43.53C44.46 43.64 44.6 43.69 44.75 43.69L46.34 43.69C46.08 44.97 44.95 45.89 43.65 45.89L35.95 45.89C34.64 45.89 33.51 44.97 33.25 43.69L34.84 43.69C34.99 43.69 35.13 43.64 35.23 43.53C35.34 43.43 35.4 43.29 35.4 43.14C35.4 43 35.34 42.86 35.23 42.76C35.13 42.65 34.99 42.6 34.84 42.6L33.2 42.6L33.2 41.5L34.84 41.5C35.15 41.5 35.4 41.25 35.4 40.95C35.4 40.64 35.15 40.39 34.84 40.39L33.2 40.39L33.2 39.29L34.84 39.29C35.15 39.29 35.4 39.05 35.4 38.75C35.4 38.44 35.15 38.2 34.84 38.2L33.2 38.2L33.2 37.1L34.84 37.1C35.15 37.1 35.4 36.85 35.4 36.54C35.4 36.24 35.15 36 34.84 36L33.2 36L33.2 34.89L46.4 34.89L46.4 36Z" fill="#0A272E" fill-opacity="1.000000" fill-rule="nonzero"/>
			<path id="Vector" d="M39.25 40.84L39.25 42.05C39.25 42.19 39.3 42.33 39.41 42.43C39.51 42.54 39.65 42.6 39.8 42.6C39.94 42.6 40.08 42.54 40.18 42.43C40.29 42.33 40.34 42.19 40.34 42.05L40.34 40.84C41.1 40.58 41.56 39.8 41.42 39.01C41.28 38.22 40.6 37.64 39.8 37.65C38.99 37.64 38.31 38.22 38.17 39.01C38.03 39.8 38.49 40.58 39.25 40.84ZM39.8 38.75C39.94 38.75 40.08 38.8 40.18 38.91C40.29 39.01 40.34 39.15 40.34 39.3C40.34 39.44 40.29 39.58 40.18 39.68C40.08 39.79 39.94 39.85 39.8 39.85C39.65 39.85 39.51 39.79 39.41 39.68C39.3 39.58 39.25 39.44 39.25 39.3C39.25 39.15 39.3 39.01 39.41 38.91C39.51 38.8 39.65 38.75 39.8 38.75ZM23.85 25C23.7 25 23.56 25.05 23.46 25.16C23.35 25.26 23.3 25.4 23.3 25.55L23.3 27.2L18.9 27.2L18.9 22.8L21.1 22.8C21.4 22.8 21.65 22.55 21.65 22.25C21.65 21.94 21.4 21.7 21.1 21.7L18.9 21.7C18.29 21.7 17.79 22.19 17.79 22.8L17.79 27.2C17.79 27.8 18.29 28.3 18.9 28.3L23.3 28.3C23.9 28.3 24.4 27.8 24.4 27.2L24.4 25.55C24.4 25.4 24.34 25.26 24.23 25.16C24.13 25.05 23.99 25 23.85 25Z" fill="#0A272E" fill-opacity="1.000000" fill-rule="nonzero"/>
			<path id="Vector" d="M20.38 24.06C20.28 23.96 20.14 23.9 20 23.9C19.85 23.9 19.71 23.96 19.61 24.06C19.51 24.16 19.45 24.3 19.45 24.45C19.45 24.59 19.51 24.73 19.61 24.83L20.71 25.93C20.81 26.04 20.95 26.1 21.1 26.1L21.12 26.1C21.2 26.09 21.27 26.07 21.34 26.04C21.41 26 21.47 25.96 21.52 25.9L24.27 22.6C24.31 22.54 24.35 22.48 24.37 22.41C24.39 22.34 24.4 22.27 24.39 22.2C24.39 22.12 24.37 22.05 24.33 21.99C24.3 21.93 24.25 21.87 24.2 21.82C24.14 21.78 24.08 21.74 24.01 21.72C23.94 21.7 23.87 21.69 23.8 21.7C23.72 21.7 23.65 21.72 23.59 21.76C23.53 21.79 23.47 21.84 23.42 21.89L21.06 24.73L20.38 24.06ZM23.85 34.35C23.7 34.35 23.56 34.4 23.46 34.51C23.35 34.61 23.3 34.75 23.3 34.89L23.3 36.54L18.9 36.54L18.9 32.14L21.1 32.14C21.24 32.14 21.38 32.09 21.48 31.98C21.59 31.88 21.65 31.74 21.65 31.6C21.65 31.45 21.59 31.31 21.48 31.21C21.38 31.1 21.24 31.04 21.1 31.04L18.9 31.04C18.29 31.04 17.79 31.54 17.79 32.14L17.79 36.54C17.79 37.15 18.29 37.64 18.9 37.64L23.3 37.64C23.9 37.64 24.4 37.15 24.4 36.54L24.4 34.89C24.4 34.75 24.34 34.61 24.23 34.51C24.13 34.4 23.99 34.35 23.85 34.35Z" fill="#0A272E" fill-opacity="1.000000" fill-rule="nonzero"/>
			<path id="Vector" d="M20.38 33.41C20.28 33.31 20.14 33.25 20 33.25C19.85 33.25 19.71 33.31 19.61 33.41C19.51 33.52 19.45 33.65 19.45 33.8C19.45 33.94 19.51 34.08 19.61 34.18L20.71 35.28C20.81 35.39 20.95 35.45 21.1 35.45L21.12 35.45C21.2 35.44 21.27 35.42 21.34 35.39C21.41 35.35 21.47 35.31 21.52 35.25L24.27 31.95C24.33 31.87 24.37 31.79 24.39 31.69C24.4 31.59 24.39 31.5 24.36 31.41C24.33 31.32 24.27 31.24 24.2 31.17C24.12 31.11 24.03 31.07 23.94 31.05C23.84 31.04 23.75 31.05 23.66 31.08C23.56 31.11 23.48 31.17 23.42 31.24L21.06 34.08L20.38 33.41ZM26.6 23.35L31 23.35C31.3 23.35 31.55 23.1 31.55 22.79C31.55 22.49 31.3 22.25 31 22.25L26.6 22.25C26.45 22.25 26.31 22.31 26.21 22.41C26.11 22.51 26.05 22.65 26.05 22.79C26.05 22.94 26.11 23.08 26.21 23.18C26.31 23.29 26.45 23.34 26.6 23.35ZM34.3 25.54C34.3 25.4 34.24 25.26 34.13 25.16C34.03 25.05 33.89 25 33.75 25L26.6 25C26.29 25 26.05 25.24 26.05 25.54C26.05 25.85 26.29 26.1 26.6 26.1L33.74 26.1C33.82 26.1 33.89 26.08 33.96 26.05C34.02 26.03 34.08 25.98 34.13 25.93C34.18 25.88 34.23 25.82 34.25 25.76C34.28 25.69 34.3 25.62 34.3 25.54ZM31 31.6L26.6 31.6C26.45 31.6 26.31 31.65 26.21 31.76C26.1 31.86 26.05 32 26.05 32.14C26.05 32.29 26.1 32.43 26.21 32.53C26.31 32.64 26.45 32.7 26.6 32.7L31 32.7C31.3 32.7 31.55 32.45 31.55 32.14C31.55 31.84 31.3 31.6 31 31.6ZM30.45 34.35L26.6 34.35C26.29 34.35 26.05 34.59 26.05 34.89C26.05 35.2 26.29 35.44 26.6 35.44L30.45 35.44C30.75 35.44 31 35.2 31 34.89C31 34.59 30.75 34.35 30.45 34.35Z" fill="#0A272E" fill-opacity="1.000000" fill-rule="nonzero"/>
		</g>
	</g>
	<rect id="Frame" rx="18.119318" width="59.472706" height="59.596462" transform="translate(0.880682 0.880682)" stroke="#CCCCCC" stroke-opacity="1.000000" stroke-width="1.761364"/>
</svg>
