<svg width="72.000000" height="72.000000" viewBox="0 0 72 72" fill="none" xmlns="http://www.w3.org/2000/svg" xmlns:xlink="http://www.w3.org/1999/xlink">
	<desc>
			Created with Pixso.
	</desc>
	<defs>
		<filter id="filter_52_88_dd" x="5.499939" y="5.000000" width="61.234070" height="61.357788" filterUnits="userSpaceOnUse" color-interpolation-filters="sRGB">
			<feFlood flood-opacity="0" result="BackgroundImageFix"/>
			<feGaussianBlur in="BackgroundImage" stdDeviation="8"/>
			<feComposite in2="SourceAlpha" operator="in" result="effect_backgroundBlur_1"/>
			<feBlend mode="normal" in="SourceGraphic" in2="effect_backgroundBlur_1" result="shape"/>
			<feColorMatrix in="SourceAlpha" type="matrix" values="0 0 0 0 0 0 0 0 0 0 0 0 0 0 0 0 0 0 127 0" result="hardAlpha"/>
			<feOffset dx="0" dy="0"/>
			<feGaussianBlur stdDeviation="3.33333"/>
			<feComposite in2="hardAlpha" operator="arithmetic" k2="-1" k3="1"/>
			<feColorMatrix type="matrix" values="0 0 0 0 0.40392 0 0 0 0 0.40392 0 0 0 0 0.40392 0 0 0 0.7 0"/>
			<feBlend mode="normal" in2="shape" result="effect_innerShadow_2"/>
		</filter>
		<clipPath id="clip52_87">
			<rect id="Frame" rx="-0.500000" width="71.000000" height="71.000000" transform="translate(0.500000 0.500000)" fill="white" fill-opacity="0"/>
		</clipPath>
		<radialGradient gradientTransform="translate(36.117 35.6789) rotate(180) scale(30.6789 30.617)" cx="0.000000" cy="0.000000" r="1.000000" id="paint_radial_52_88_0" gradientUnits="userSpaceOnUse">
			<stop stop-color="#37535F"/>
			<stop offset="1.000000" stop-color="#16171B"/>
		</radialGradient>
	</defs>
	<rect id="Frame" rx="-0.500000" width="71.000000" height="71.000000" transform="translate(0.500000 0.500000)" fill="#FFFFFF" fill-opacity="0"/>
	<g clip-path="url(#clip52_87)">
		<g filter="url(#filter_52_88_dd)">
			<rect id="Frame" rx="18.119318" width="59.472706" height="59.596462" transform="translate(6.380621 5.880682)" fill="url(#paint_radial_52_88_0)" fill-opacity="0.800000"/>
			<path id="Vector" d="M38.84 35.24C39.31 35.41 39.75 35.27 40.05 34.98L41.45 33.58C44.04 34.7 46.78 33.86 48.8 31.85C50.25 30.4 51.53 28.15 52.12 26C53.82 19.81 49.54 17.6 43.68 20.19C43.44 20.3 43.33 20.59 43.43 20.83C43.54 21.07 43.83 21.18 44.07 21.07C46.89 19.83 49.47 19.78 50.66 20.96C52.79 23.08 50.66 28.62 48.11 31.17C42.11 37.15 33.44 27.76 42.18 22.1C42.41 21.95 42.47 21.65 42.32 21.43C42.18 21.21 41.88 21.14 41.66 21.29C37.61 23.91 36.82 27.4 38 30.14L36.6 31.54C36.28 31.86 36.15 32.35 36.37 32.83C35.52 33.64 34.2 35.27 33.13 38.25C32.12 41.04 30.41 42.06 27.79 42.08C23.29 42.08 21.04 46.33 20.27 48.16C19.98 48.87 19.74 49.61 19.61 50.23C19.39 51.23 19.45 51.55 20.03 51.89C20.41 52.11 20.76 51.85 21.04 51.5C22.03 50.29 24.57 45.29 28.38 45.44C32.28 45.59 35.03 43.12 36.37 39.41C37.3 36.84 38.36 35.67 38.84 35.24L38.84 35.24ZM38.47 31.03C39.01 31.88 39.69 32.53 40.48 33.05C40.51 33.07 40.53 33.1 40.56 33.11C39.37 34.25 39.39 34.35 39.23 34.35C39.08 34.35 39.14 34.28 37.28 32.48C37.26 32.46 37.25 32.44 37.24 32.42C37.23 32.4 37.23 32.37 37.23 32.35C37.23 32.19 37.33 32.21 38.47 31.03ZM28.42 44.48C24.72 44.34 22.25 48.02 20.92 50C20.79 50.2 20.65 50.41 20.52 50.59C20.72 49.54 21.47 47.23 23.05 45.4C24.31 43.94 25.87 43.04 27.8 43.04C30.95 43.04 32.93 41.62 34.03 38.57C35.03 35.82 36.22 34.31 37 33.56L38.07 34.63C37.44 35.24 36.38 36.55 35.46 39.09C34.16 42.69 31.66 44.6 28.42 44.48L28.42 44.48ZM20.16 36.4C20.57 36.4 20.84 35.92 21.08 35.55C21.69 34.65 22.81 32.97 24.31 33.03C25.23 33.06 26.1 32.82 26.82 32.32C27.04 32.17 27.1 31.87 26.94 31.65C26.79 31.43 26.49 31.38 26.27 31.53C25.71 31.91 25.06 32.1 24.35 32.07C22.93 32.01 21.86 32.95 21.1 33.88C21.71 32.74 22.72 31.75 24.02 31.79C25.73 31.79 26.86 30.99 27.45 29.34C27.89 28.13 28.39 27.41 28.77 27C28.77 27.01 29 27.24 28.99 27.23C28.06 28.26 27.83 29.43 27.41 30.21C27.28 30.44 27.37 30.73 27.61 30.86C27.84 30.99 28.13 30.9 28.26 30.67C28.74 29.78 28.95 28.62 29.81 27.76C29.85 27.77 29.88 27.81 29.92 27.81C30.45 27.81 30.62 27.38 31.12 26.95C32.55 27.48 33.96 27.01 35.01 25.95C36.53 24.44 37.82 21.14 36.33 19.65C34.84 18.17 31.53 19.45 30.01 20.96C28.95 22.02 28.48 23.43 29.01 24.84C28.52 25.41 28.03 25.57 28.18 26.23C26.08 28.34 26.96 30.79 24.01 30.83C21.55 30.83 20.33 33.12 19.92 34.11C19.76 34.49 19.64 34.88 19.57 35.22C19.48 35.64 19.46 35.94 19.67 36.15C19.8 36.28 19.97 36.4 20.16 36.4ZM30.69 21.64C32.02 20.32 34.72 19.42 35.64 20.34C36.82 21.51 35.02 26.17 32.32 26.21C30.39 26.24 28.6 23.74 30.69 21.64L30.69 21.64ZM30.24 26.47L29.92 26.79L29.17 26.05L29.49 25.73C29.7 26.01 29.96 26.26 30.24 26.47ZM51.82 35.25C50.33 33.77 47.03 35.04 45.51 36.56C44.44 37.62 43.98 39.02 44.51 40.44C44.01 41 43.53 41.17 43.68 41.82C41.57 43.93 42.46 46.38 39.51 46.42C37.05 46.42 35.83 48.72 35.42 49.71C35.26 50.09 35.13 50.48 35.06 50.81C34.95 51.34 34.95 51.66 35.39 51.92C35.69 52.1 35.99 51.94 36.21 51.67C36.73 51.03 37.99 48.56 39.81 48.63C40.74 48.66 41.63 48.4 42.36 47.88C42.58 47.73 42.63 47.43 42.47 47.21C42.32 46.99 42.02 46.94 41.8 47.1C41.24 47.5 40.57 47.69 39.84 47.66C38.43 47.61 37.35 48.55 36.59 49.48C37.21 48.34 38.22 47.35 39.52 47.39C41.23 47.39 42.35 46.58 42.95 44.93C43.39 43.73 43.89 43.01 44.26 42.6C44.27 42.6 44.5 42.84 44.49 42.82C43.53 43.89 43.33 45.05 42.86 45.89C42.73 46.12 42.81 46.41 43.04 46.54C43.28 46.67 43.57 46.59 43.7 46.36C44.23 45.43 44.43 44.22 45.31 43.36C45.34 43.36 45.37 43.4 45.41 43.4C45.94 43.4 46.12 42.98 46.62 42.54C50.71 44.07 53.88 37.3 51.82 35.25L51.82 35.25ZM45.73 42.07L45.41 42.38L44.67 41.64L44.99 41.32C45.2 41.6 45.45 41.85 45.73 42.07ZM49.83 40.87C47.15 43.53 43.53 39.89 46.19 37.24C47.53 35.91 50.21 35.01 51.14 35.93C52.06 36.85 51.17 39.53 49.83 40.87Z" fill="#D6D6D6" fill-opacity="1.000000" fill-rule="nonzero"/>
		</g>
		<rect id="Frame" rx="18.119318" width="59.472706" height="59.596462" transform="translate(6.380621 5.880682)" stroke="#494949" stroke-opacity="1.000000" stroke-width="1.761364"/>
	</g>
</svg>
