<svg width="61.234070" height="61.357788" viewBox="0 0 61.2341 61.3578" fill="none" xmlns="http://www.w3.org/2000/svg" xmlns:xlink="http://www.w3.org/1999/xlink">
	<desc>
			Created with Pixso.
	</desc>
	<defs>
		<filter id="filter_52_106_dd" x="0.000000" y="0.000000" width="61.234070" height="61.357788" filterUnits="userSpaceOnUse" color-interpolation-filters="sRGB">
			<feFlood flood-opacity="0" result="BackgroundImageFix"/>
			<feGaussianBlur in="BackgroundImage" stdDeviation="8"/>
			<feComposite in2="SourceAlpha" operator="in" result="effect_backgroundBlur_1"/>
			<feBlend mode="normal" in="SourceGraphic" in2="effect_backgroundBlur_1" result="shape"/>
			<feColorMatrix in="SourceAlpha" type="matrix" values="0 0 0 0 0 0 0 0 0 0 0 0 0 0 0 0 0 0 127 0" result="hardAlpha"/>
			<feOffset dx="0" dy="0"/>
			<feGaussianBlur stdDeviation="3.33333"/>
			<feComposite in2="hardAlpha" operator="arithmetic" k2="-1" k3="1"/>
			<feColorMatrix type="matrix" values="0 0 0 0 0.40392 0 0 0 0 0.40392 0 0 0 0 0.40392 0 0 0 0.7 0"/>
			<feBlend mode="normal" in2="shape" result="effect_innerShadow_2"/>
		</filter>
		<clipPath id="clip52_109">
			<rect id="Frame" rx="-0.500000" width="32.000000" height="32.000000" transform="translate(14.666748 14.500000)" fill="white" fill-opacity="0"/>
		</clipPath>
		<radialGradient gradientTransform="translate(30.617 30.6789) rotate(180) scale(30.6789 30.617)" cx="0.000000" cy="0.000000" r="1.000000" id="paint_radial_52_106_0" gradientUnits="userSpaceOnUse">
			<stop stop-color="#37535F"/>
			<stop offset="1.000000" stop-color="#16171B"/>
		</radialGradient>
	</defs>
	<g filter="url(#filter_52_106_dd)">
		<rect id="Frame" rx="18.119318" width="59.472706" height="59.596462" transform="translate(0.880682 0.880682)" fill="#16171B" fill-opacity="0.800000"/>
		<rect id="Frame" rx="18.119318" width="59.472706" height="59.596462" transform="translate(0.880682 0.880682)" fill="url(#paint_radial_52_106_0)" fill-opacity="0.800000"/>
		<rect id="Frame" rx="-0.500000" width="32.000000" height="32.000000" transform="translate(14.166748 14.500000)" fill="#FFFFFF" fill-opacity="0"/>
		<rect id="Frame" rx="-0.500000" width="32.000000" height="32.000000" transform="translate(14.666748 14.500000)" fill="#FFFFFF" fill-opacity="0"/>
		<g clip-path="url(#clip52_109)">
			<path id="Vector" d="M45.23 33.9L45.23 27.09C46.33 26.85 47.16 25.87 47.16 24.69C47.16 22.76 45.01 21.6 43.4 22.63L38.53 17.76C39.56 16.15 38.4 14 36.46 14C34.07 14 33.09 17.09 35.07 18.46L32.89 23.74L29.18 20.03L33.03 18.43C33.16 18.37 33.26 18.27 33.31 18.15C33.37 18.02 33.37 17.88 33.31 17.75C33.26 17.63 33.16 17.53 33.03 17.47C32.91 17.42 32.76 17.42 32.64 17.48L28.39 19.24L26.92 17.77C27.96 16.16 26.81 14 24.86 14C22.92 14 21.76 16.15 22.8 17.76L17.93 22.63C16.31 21.6 14.16 22.76 14.16 24.69C14.16 26.22 15.55 27.38 17.05 27.1L18.46 30.5L17.05 33.89C15.55 33.61 14.16 34.77 14.16 36.3C14.16 38.23 16.31 39.39 17.93 38.36L22.8 43.23C21.76 44.84 22.92 47 24.86 47C26.03 47 27.02 46.17 27.26 45.06L34.07 45.06C34.31 46.17 35.29 47 36.46 47C37.81 47 38.91 45.9 38.91 44.55C38.91 43.2 37.81 42.1 36.46 42.1C35.29 42.1 34.31 42.93 34.07 44.03L27.45 44.03L42.7 37.69C44.08 39.67 47.16 38.66 47.16 36.3C47.16 35.12 46.33 34.14 45.23 33.9ZM42.3 25.13L40.88 25.72L37.92 18.61L42.66 23.36C42.32 23.88 42.19 24.51 42.3 25.13ZM42.7 26.08C43.05 26.59 43.58 26.96 44.2 27.09L44.2 33.71L41.27 26.67L42.7 26.08ZM43.24 34.09L37.41 28.27L40.32 27.07L43.24 34.09ZM46.13 24.69C46.13 25.48 45.49 26.11 44.71 26.11C43.93 26.11 43.29 25.48 43.29 24.69C43.29 23.91 43.93 23.28 44.71 23.28C45.49 23.28 46.13 23.91 46.13 24.69ZM36.46 15.03C37.24 15.03 37.88 15.66 37.88 16.44C37.88 17.23 37.24 17.86 36.46 17.86C35.68 17.86 35.04 17.23 35.04 16.44C35.04 15.66 35.68 15.03 36.46 15.03ZM36.03 18.85C36.32 18.91 36.61 18.91 36.91 18.85L39.92 26.11L36.62 27.48L33.68 24.53L36.03 18.85ZM35.59 27.9L31.61 29.54L33.25 25.57L35.59 27.9ZM24.42 18.85C25.04 18.97 25.67 18.84 26.19 18.5L27.36 19.67L23.39 21.32L24.42 18.85ZM22.04 21.88L18.78 23.23L23.4 18.61L22.04 21.88ZM24.86 15.03C25.64 15.03 26.28 15.66 26.28 16.44C26.28 17.23 25.64 17.86 24.86 17.86C24.08 17.86 23.44 17.23 23.44 16.44C23.44 15.66 24.08 15.03 24.86 15.03ZM15.19 24.69C15.19 23.91 15.83 23.28 16.61 23.28C17.39 23.28 18.03 23.91 18.03 24.69C18.03 25.48 17.39 26.11 16.61 26.11C15.83 26.11 15.19 25.48 15.19 24.69ZM18.01 26.71C18.79 26.16 19.2 25.21 19.02 24.25L21.48 23.23L19.02 29.15L18.01 26.71ZM19.02 31.84L20.05 34.32L18.63 34.91C18.46 34.66 18.25 34.45 18.01 34.28L19.02 31.84ZM19.02 35.86L20.45 35.27L23.4 42.38L18.66 37.64C19 37.11 19.13 36.48 19.02 35.86ZM15.19 36.3C15.19 35.51 15.83 34.88 16.61 34.88C17.39 34.88 18.03 35.51 18.03 36.3C18.03 37.08 17.39 37.71 16.61 37.71C15.83 37.71 15.19 37.08 15.19 36.3ZM24.86 45.96C24.08 45.96 23.44 45.33 23.44 44.55C23.44 43.76 24.08 43.13 24.86 43.13C25.64 43.13 26.28 43.76 26.28 44.55C26.28 45.33 25.64 45.96 24.86 45.96ZM36.46 43.13C37.24 43.13 37.88 43.76 37.88 44.55C37.88 45.33 37.24 45.96 36.46 45.96C35.68 45.96 35.04 45.33 35.04 44.55C35.04 43.76 35.68 43.13 36.46 43.13ZM26.87 43.15C26.33 42.37 25.38 41.96 24.42 42.14L21.4 34.88L23.41 34.05C23.47 34.02 23.53 33.98 23.58 33.94C23.63 33.89 23.67 33.83 23.69 33.77C23.72 33.71 23.73 33.64 23.73 33.57C23.73 33.5 23.72 33.43 23.69 33.37C23.67 33.31 23.63 33.25 23.58 33.2C23.53 33.16 23.48 33.12 23.41 33.09C23.35 33.07 23.28 33.05 23.21 33.05C23.15 33.05 23.08 33.07 23.02 33.09L21.01 33.92L19.58 30.5L22.83 22.67L28.15 20.46L32.46 24.78L30.27 30.1L26.76 31.55C26.63 31.6 26.53 31.7 26.48 31.83C26.43 31.95 26.43 32.09 26.48 32.22C26.59 32.49 26.89 32.61 27.15 32.5L29.71 31.45L26.03 40.36C25.89 40.7 26.14 41.07 26.51 41.07C26.61 41.07 26.71 41.04 26.8 40.98C26.88 40.92 26.95 40.84 26.99 40.75L31.06 30.89L36.38 28.69L42.66 34.97C42.32 35.49 42.19 36.11 42.3 36.74L26.87 43.15ZM44.71 37.71C43.93 37.71 43.29 37.08 43.29 36.3C43.29 35.51 43.93 34.88 44.71 34.88C45.49 34.88 46.13 35.51 46.13 36.3C46.13 37.08 45.49 37.71 44.71 37.71Z" fill="#D6D6D6" fill-opacity="1.000000" fill-rule="nonzero"/>
			<path id="Vector" d="M24.89 32.32C24.61 32.44 24.5 32.74 24.6 33C24.63 33.06 24.67 33.11 24.71 33.16C24.76 33.21 24.82 33.25 24.88 33.28C24.94 33.3 25.01 33.32 25.08 33.32C25.15 33.32 25.21 33.3 25.27 33.28C25.56 33.16 25.67 32.86 25.56 32.6C25.51 32.48 25.41 32.37 25.29 32.32C25.16 32.27 25.02 32.27 24.89 32.32Z" fill="#D6D6D6" fill-opacity="1.000000" fill-rule="nonzero"/>
		</g>
	</g>
	<rect id="Frame" rx="18.119318" width="59.472706" height="59.596462" transform="translate(0.880682 0.880682)" stroke="#494949" stroke-opacity="1.000000" stroke-width="1.761364"/>
</svg>
