<svg width="61.234070" height="61.357788" viewBox="0 0 61.2341 61.3578" fill="none" xmlns="http://www.w3.org/2000/svg" xmlns:xlink="http://www.w3.org/1999/xlink">
	<desc>
			Created with Pixso.
	</desc>
	<defs>
		<filter id="filter_52_96_dd" x="0.000000" y="0.000000" width="61.234070" height="61.357788" filterUnits="userSpaceOnUse" color-interpolation-filters="sRGB">
			<feFlood flood-opacity="0" result="BackgroundImageFix"/>
			<feGaussianBlur in="BackgroundImage" stdDeviation="8"/>
			<feComposite in2="SourceAlpha" operator="in" result="effect_backgroundBlur_1"/>
			<feBlend mode="normal" in="SourceGraphic" in2="effect_backgroundBlur_1" result="shape"/>
			<feColorMatrix in="SourceAlpha" type="matrix" values="0 0 0 0 0 0 0 0 0 0 0 0 0 0 0 0 0 0 127 0" result="hardAlpha"/>
			<feOffset dx="0" dy="0"/>
			<feGaussianBlur stdDeviation="3.33333"/>
			<feComposite in2="hardAlpha" operator="arithmetic" k2="-1" k3="1"/>
			<feColorMatrix type="matrix" values="0 0 0 0 0.40392 0 0 0 0 0.40392 0 0 0 0 0.40392 0 0 0 0.7 0"/>
			<feBlend mode="normal" in2="shape" result="effect_innerShadow_2"/>
		</filter>
		<clipPath id="clip52_98">
			<rect id="Frame" rx="-0.500000" width="32.000000" height="32.000000" transform="translate(14.166748 14.500000)" fill="white" fill-opacity="0"/>
		</clipPath>
		<radialGradient gradientTransform="translate(30.617 30.6789) rotate(180) scale(30.6789 30.617)" cx="0.000000" cy="0.000000" r="1.000000" id="paint_radial_52_96_0" gradientUnits="userSpaceOnUse">
			<stop stop-color="#37535F"/>
			<stop offset="1.000000" stop-color="#16171B"/>
		</radialGradient>
	</defs>
	<g filter="url(#filter_52_96_dd)">
		<rect id="Frame" rx="18.119318" width="59.472706" height="59.596462" transform="translate(0.880682 0.880682)" fill="#16171B" fill-opacity="0.800000"/>
		<rect id="Frame" rx="18.119318" width="59.472706" height="59.596462" transform="translate(0.880682 0.880682)" fill="url(#paint_radial_52_96_0)" fill-opacity="0.800000"/>
		<rect id="Frame" rx="-0.500000" width="32.000000" height="32.000000" transform="translate(14.166748 14.500000)" fill="#FFFFFF" fill-opacity="0"/>
		<g clip-path="url(#clip52_98)">
			<path id="Vector" d="M37.52 27.75C37.68 27.75 37.83 27.69 37.95 27.58L41.53 23.98C41.82 24.09 42.13 24.16 42.47 24.16C43.95 24.16 45.15 22.95 45.15 21.46C45.15 19.97 43.95 18.76 42.47 18.76C40.99 18.76 39.78 19.97 39.78 21.46C39.78 22.17 40.06 22.81 40.51 23.3L37.28 26.55L32.8 26.55L32.8 20.75L34.38 20.75C34.64 21.72 35.51 22.43 36.56 22.43C37.81 22.43 38.83 21.41 38.83 20.15C38.83 18.89 37.81 17.86 36.56 17.86C35.51 17.86 34.64 18.58 34.38 19.54L32.76 19.54C32.45 17.22 30.47 15.42 28.07 15.42C25.58 15.42 23.54 17.37 23.35 19.83C21.02 20.11 19.21 22.12 19.21 24.55C19.21 24.91 19.25 25.28 19.33 25.63C16.98 25.99 15.18 28.03 15.18 30.49C15.18 32.96 16.98 34.99 19.32 35.36C19.24 35.71 19.2 36.07 19.2 36.43C19.2 38.86 21.01 40.86 23.34 41.16C23.53 43.62 25.57 45.56 28.06 45.56C30.35 45.56 32.26 43.92 32.7 41.74L33.83 41.74C34.09 42.65 34.92 43.32 35.9 43.32C37.09 43.32 38.06 42.35 38.06 41.14C38.06 39.95 37.09 38.97 35.9 38.97C34.91 38.97 34.09 39.64 33.83 40.54L32.79 40.54L32.79 34.75L37 34.75L38.08 35.84C37.83 36.24 37.69 36.72 37.69 37.22C37.69 38.71 38.89 39.92 40.37 39.92C41.85 39.92 43.06 38.71 43.06 37.22C43.06 35.73 41.85 34.52 40.37 34.52C39.83 34.52 39.33 34.68 38.91 34.97L37.67 33.72C37.62 33.66 37.55 33.62 37.48 33.59C37.4 33.56 37.33 33.54 37.25 33.54L32.79 33.54L32.79 31.1L38.65 31.1C38.92 32.2 39.9 33.01 41.08 33.01C42.46 33.01 43.58 31.88 43.58 30.49C43.58 29.11 42.46 27.98 41.08 27.98C39.9 27.98 38.92 28.79 38.65 29.89L32.8 29.89L32.8 27.75L37.52 27.75L37.52 27.75ZM42.46 19.96C43.28 19.96 43.95 20.63 43.95 21.46C43.95 22.28 43.28 22.95 42.46 22.95C41.64 22.95 40.98 22.28 40.98 21.46C40.98 20.63 41.64 19.96 42.46 19.96ZM41.86 37.22C41.86 38.04 41.2 38.72 40.38 38.72C39.56 38.72 38.89 38.04 38.89 37.22C38.89 36.39 39.56 35.73 40.38 35.73C41.2 35.73 41.86 36.39 41.86 37.22ZM41.08 29.18C41.8 29.18 42.38 29.77 42.38 30.49C42.38 31.22 41.8 31.81 41.08 31.81C40.36 31.81 39.77 31.22 39.77 30.49C39.77 29.77 40.36 29.18 41.08 29.18ZM36.55 19.08C37.14 19.08 37.62 19.56 37.62 20.15C37.62 20.75 37.14 21.24 36.55 21.24C35.96 21.24 35.48 20.75 35.48 20.15C35.48 19.56 35.96 19.08 36.55 19.08ZM35.9 40.17C36.43 40.17 36.87 40.61 36.87 41.14C36.87 41.68 36.44 42.11 35.9 42.11C35.65 42.11 35.4 42.01 35.22 41.83C35.04 41.65 34.94 41.4 34.94 41.14C34.94 40.61 35.37 40.17 35.9 40.17ZM31.6 29.89L21.88 29.89C21.61 28.95 20.76 28.24 19.74 28.24C18.51 28.24 17.5 29.25 17.5 30.49C17.5 31.74 18.5 32.74 19.74 32.74C20.76 32.74 21.62 32.04 21.88 31.1L31.6 31.1L31.6 33.54L29.88 33.54C29.63 32.82 28.95 32.3 28.15 32.3C27.13 32.3 26.31 33.13 26.31 34.15C26.31 35.17 27.13 36 28.15 36C28.95 36 29.63 35.48 29.88 34.75L31.6 34.75L31.6 40.54L29.88 40.54C29.63 39.81 28.95 39.29 28.15 39.29C27.13 39.29 26.31 40.12 26.31 41.14C26.31 42.16 27.13 42.99 28.15 42.99C28.95 42.99 29.63 42.47 29.88 41.74L31.47 41.74C31.06 43.24 29.69 44.36 28.07 44.36C26.12 44.36 24.53 42.76 24.53 40.8C24.53 40.75 24.53 40.71 24.54 40.66C24.56 40.49 24.5 40.32 24.39 40.19C24.27 40.06 24.11 39.99 23.94 39.99C21.99 39.99 20.4 38.39 20.4 36.43C20.4 35.95 20.5 35.47 20.69 35.04C20.78 34.83 20.74 34.57 20.58 34.39C20.47 34.27 20.31 34.2 20.14 34.2C20.11 34.2 20.08 34.2 20.04 34.21C18.02 34.2 16.38 32.53 16.38 30.49C16.38 28.46 18.02 26.8 20.04 26.78C20.24 26.82 20.44 26.74 20.58 26.6C20.74 26.42 20.78 26.16 20.68 25.95C20.5 25.52 20.4 25.04 20.4 24.55C20.4 22.6 21.98 21 23.94 21C24.02 21 24.1 20.98 24.18 20.95C24.26 20.91 24.33 20.86 24.38 20.8C24.44 20.73 24.48 20.66 24.51 20.58C24.53 20.5 24.54 20.41 24.53 20.33C24.53 20.28 24.53 20.24 24.53 20.19C24.53 18.23 26.11 16.63 28.06 16.63C29.79 16.63 31.24 17.89 31.54 19.55L29.87 19.55C29.62 18.83 28.95 18.3 28.14 18.3C27.13 18.3 26.3 19.13 26.3 20.15C26.3 21.17 27.13 22 28.14 22C28.95 22 29.62 21.48 29.87 20.75L31.6 20.75L31.6 26.54L29.87 26.54C29.62 25.82 28.95 25.3 28.14 25.3C27.13 25.3 26.3 26.13 26.3 27.15C26.3 28.17 27.13 29 28.14 29C28.95 29 29.62 28.48 29.87 27.75L31.6 27.75L31.6 29.89L31.6 29.89ZM20.77 30.49C20.77 31.07 20.31 31.54 19.74 31.54C19.17 31.54 18.7 31.07 18.7 30.49C18.7 29.92 19.17 29.45 19.74 29.45C20.31 29.45 20.77 29.92 20.77 30.49ZM28.78 34.14C28.78 34.5 28.5 34.79 28.14 34.79C27.79 34.79 27.5 34.5 27.5 34.14C27.5 33.79 27.79 33.5 28.14 33.5C28.5 33.5 28.78 33.79 28.78 34.14ZM28.78 41.14C28.78 41.5 28.5 41.79 28.14 41.79C27.79 41.79 27.5 41.5 27.5 41.14C27.5 40.79 27.79 40.5 28.14 40.5C28.5 40.5 28.78 40.79 28.78 41.14ZM28.78 20.15C28.78 20.51 28.5 20.8 28.14 20.8C27.79 20.8 27.5 20.51 27.5 20.15C27.5 19.8 27.79 19.51 28.14 19.51C28.5 19.51 28.78 19.8 28.78 20.15ZM28.78 27.15C28.78 27.5 28.5 27.79 28.14 27.79C27.79 27.79 27.5 27.5 27.5 27.15C27.5 26.79 27.79 26.5 28.14 26.5C28.5 26.5 28.78 26.79 28.78 27.15Z" fill="#D6D6D6" fill-opacity="1.000000" fill-rule="nonzero"/>
		</g>
	</g>
	<rect id="Frame" rx="18.119318" width="59.472706" height="59.596462" transform="translate(0.880682 0.880682)" stroke="#494949" stroke-opacity="1.000000" stroke-width="1.761364"/>
</svg>
